<?xml version="1.0" encoding="UTF-8"?>
<svg id="Lager_1" data-name="Lager 1" xmlns="http://www.w3.org/2000/svg" viewBox="0 0 2090.83 1576.05">
  <defs>
    <style>
      .cls-1 {
        fill: #966545;
      }

      .cls-2 {
        fill: #58483c;
      }

      .cls-3 {
        fill: #eaeaea;
        opacity: .23;
      }

      .cls-4 {
        fill: #8a7564;
      }

      .cls-5 {
        fill: #805a3d;
      }

      .cls-5, .cls-6, .cls-7, .cls-8, .cls-9, .cls-10, .cls-11, .cls-12, .cls-13, .cls-14 {
        stroke-miterlimit: 10;
      }

      .cls-5, .cls-6, .cls-9, .cls-10, .cls-11, .cls-12, .cls-13 {
        stroke-width: .18px;
      }

      .cls-5, .cls-7, .cls-8, .cls-9, .cls-10, .cls-11, .cls-12, .cls-14 {
        stroke: #1d1e1c;
      }

      .cls-15 {
        fill: #321e15;
      }

      .cls-16 {
        fill: #564940;
      }

      .cls-6, .cls-17 {
        fill: #cd8f6c;
      }

      .cls-6, .cls-13 {
        stroke: #675245;
      }

      .cls-18 {
        fill: #6e4f35;
      }

      .cls-19 {
        fill: #5b412b;
      }

      .cls-20, .cls-9 {
        fill: #6a4130;
      }

      .cls-21, .cls-8 {
        fill: #645144;
      }

      .cls-22 {
        fill: #1d1e1c;
      }

      .cls-7 {
        fill: #8b8054;
        stroke-width: 1.47px;
      }

      .cls-23 {
        fill: #15693e;
      }

      .cls-24 {
        fill: #3d3129;
      }

      .cls-25 {
        fill: #675245;
      }

      .cls-8 {
        stroke-width: .73px;
      }

      .cls-26 {
        fill: #4f3227;
      }

      .cls-27 {
        fill: #7c7e7f;
      }

      .cls-28 {
        fill: #686967;
      }

      .cls-29 {
        fill: #b88160;
      }

      .cls-10, .cls-13, .cls-14 {
        fill: none;
      }

      .cls-30 {
        fill: #7e714b;
      }

      .cls-31, .cls-12 {
        fill: #d59470;
      }

      .cls-32 {
        fill: red;
      }

      .cls-11 {
        fill: #d7d7d7;
      }

      .cls-33 {
        fill: #735f51;
      }

      .cls-13 {
        stroke-linecap: round;
      }

      .cls-34 {
        fill: #4f3225;
      }

      .cls-14 {
        stroke-width: 2.2px;
      }

      .cls-35 {
        fill: #fbf1d9;
      }

      .cls-36 {
        fill: #c50000;
      }
    </style>
  </defs>
  <rect class="cls-32" width="2090.83" height="1576.05"/>
  <ellipse class="cls-36" cx="1081.11" cy="1304" rx="341.13" ry="139.45"/>
  <g>
    <path class="cls-28" d="M617.06,918.02c67.98,87.29,135.95,174.57,203.93,261.86,64.66,31.6,122.41,46.14,163.14,53.37,49.88,8.86,96.17,17.08,154.65,6.67,53.32-9.49,67.4-25.69,141.05-45.03,46.01-12.09,84.84-17.41,110.46-20.01,48.72-67.27,97.43-134.54,146.15-201.81,8.5-43.37,16.99-86.73,25.49-130.1-10.2-70.61-20.39-141.21-30.59-211.82-36.82-60.6-73.64-121.2-110.46-181.8-41.35-27.8-82.7-55.6-124.06-83.39-66.84-26.13-133.69-52.26-200.53-78.39-56.65,15.57-113.29,31.13-169.94,46.7-45.88,35.03-91.77,70.05-137.65,105.08-38.52,14.45-77.04,28.91-115.56,43.37-22.09,85.06-44.18,170.12-66.28,255.19,3.4,60.04,6.8,120.09,10.2,180.13Z"/>
    <path class="cls-27" d="M1096.3,287.56c29.23,12.41,58.47,24.81,87.7,37.22,56.2,51.08,112.4,102.17,168.59,153.25,14.33,32.2,28.66,64.41,43,96.61-25.65,101.8-51.29,203.59-76.94,305.39-40.36,25.91-80.71,51.82-121.07,77.74,21.12-26.28,42.24-52.56,63.36-78.85-12.45-5.18-24.89-10.36-37.34-15.55-94.29,39.24-188.58,78.48-282.88,117.71-67.51-51.45-135.03-102.91-202.54-154.36,5.66,28.13,11.31,56.27,16.97,84.4-16.22-34.8-32.44-69.59-48.65-104.39-10.94-45.9-21.88-91.8-32.81-137.7-12.45,23.32-24.89,46.64-37.34,69.96-7.17,51.82-14.33,103.65-21.5,155.47-3.77-54.04-7.54-108.09-11.32-162.13,22.51-80.54,45.02-161.08,67.52-241.62,34.82-15.71,69.64-31.41,104.47-47.12,50.28-36.45,100.55-72.89,150.83-109.34,56.65-15.57,113.29-31.13,169.94-46.7Z"/>
  </g>
  <g>
    <path class="cls-10" d="M1029.94,555.58c6.19.41,15.2.48,25.76-1.46,5-.92,11.56-2.52,26.43-8.65,27.81-11.46,30-16.25,47.43-20.95,9.39-2.53,17.1-3.39,25.41-4.32,13.73-1.54,25.41-1.59,34.04-1.26"/>
    <path class="cls-10" d="M1096.99,884.49c2.96-9.96,5.65-20.98,7.74-32.98,4.33-24.89,4.88-47.23,3.89-65.74-17.67.97-37.12,1.23-58.08.27-17.62-.81-34.06-2.37-49.19-4.36-1.36-.9-3.29-2.32-5.28-4.36-5.14-5.27-7.13-11.02-8.62-15.82-3.2-10.36-5.3-17.18-6.67-29.46-1.21-10.82-2.03-18.18-.83-27.55.97-7.65,3.85-21.02,13.9-36"/>
    <path class="cls-10" d="M1133.63,726.04c-8.34-.89-15.32-2.15-20.57-3.27-20.14-4.29-16.34-6.75-32.52-10.09-3.99-.83-9.7-1.81-12.51-6.27-1.4-2.23-1.55-4.49-1.67-6.55-.37-6.69,2.41-12.14,4.45-15.27"/>
    <path class="cls-10" d="M912.52,1348.55c7.69-.82,13.94-1.57,18.13-2.08,21.34-2.6,31.95-4.46,48.34-4.15,1.01.02,1.84.04,2.37.06"/>
    <path class="cls-10" d="M1037.47,1327.58c2.85,1.97,6.9,4.71,11.82,7.91,7.48,4.86,15.6,10.13,25.23,15.3,7.24,3.88,13.1,6.42,24.82,11.48,7.32,3.16,17.19,7.28,29.1,11.82"/>
    <path class="cls-10" d="M918.81,1347.86c1.7,1.33,4.12,3.42,6.58,6.36,3.54,4.23,5.59,8.35,8.62,16.11,6.56,16.85,5.4,19.35,9.85,23.76,4.44,4.4,9.71,6,12.51,6.85,3.1.94,6.16,1.39,19.9.6,12.78-.73,19.29-1.12,24.62-2.82,6.7-2.13,11.73-5.12,14.91-7.31"/>
    <path class="cls-10" d="M1108.61,785.78c5.58-.64,10.04-1.06,12.84-1.31,13.72-1.23,17.15-1,20.38-4,1.66-1.54,2.05-2.81,5.71-6.4,2.57-2.52,4.63-4.1,5.16-4.53,5.78-4.69,8.31-17.6,8.69-26.93.11-2.75.74-17.75-5.71-31.73-1.87-4.06-3.74-6.74-4.62-12-1.09-6.5.52-9.92-2.17-13.07-2.2-2.58-6.5-4.07-8.97-2.67-3.48,1.98-2.64,9.34-1.9,15.73.87,7.6,2.46,8.72,2.17,14.4-.2,3.99-.47,9.27-4.35,11.73-4.09,2.6-9.55.38-10.49-.02"/>
    <path class="cls-10" d="M1130.62,726.23c2.21,4.79,4.35,10.48,5.93,17.03,3.92,16.16,2.68,30.21.98,39.48"/>
    <path class="cls-8" d="M1025.4,573.58c3.84.23,7.68.46,11.53.69,2.19-.92,5.25-2.01,9.01-2.79,2.7-.56,7.79-1.56,14.4-.76,1.61.19,6.33.86,11.93,3.3,3.12,1.36,5.28,2.82,9.62,5.74,2.74,1.85,6.87,4.65,11.76,8.92,4.23,3.7,4.23,4.31,9.57,9.16,3.1,2.82,5.46,4.96,8.89,7.54,7.83,5.89,11.79,8.86,16.96,10.47,1.11.34,2.88.81,4.51,2.34,1.3,1.23,1.25,1.96,3.53,6.09.93,1.69,1.74,3.14,2.99,4.92,1.46,2.08,1.81,2.16,2.79,3.63,1.77,2.63,1.86,4.17,2.87,6.42.8,1.77,1.85,3.28,5.56,7,4.9,4.93,8.88,8.14,11.34,10.24,6.45,5.51,10.65,10.38,16.41,17.07,2.04,2.37,5.34,6.22,9.3,11.61,3.8,5.17,6.66,9.67,9.03,13.38,3.42,5.36,4.39,7.23,7.79,12.2,3.87,5.66,5.5,7.46,6.15,8.16,2.84,3.07,5.03,4.6,9.09,7.72,0,0,4.82,3.71,12.12,9.76,7.52,6.24,12.77,11.57,18.46,17.35,5.06,5.13,7.58,7.7,10.7,11.51,5.21,6.37,5.76,8.35,9.25,12.13,3,3.25,7.9,7.56,15.88,11.15-.55,1.98-1.1,3.95-1.66,5.93-5.78,9.69-11.55,19.38-17.33,29.07-4.76-1.64-9.52-3.29-14.28-4.93-10.2-3.52-20.4-7.05-30.6-10.57-2.08,8.94-4,16.49-5.52,22.24-3.25,12.34-4.88,18.51-6.68,23.29-.2.54-3.27,8.67-5.91,16.2-1.29,3.69-1.81,5.33-2.33,7.47-.85,3.52-.72,4.46-1.51,6.31-1.57,3.69-4.55,5.77-5.82,6.65-5.37,3.73-11.38,3.65-16.15,3.52-4.42-.12-6.12-.81-12.31-1.94-3.93-.72-8.72-1.24-18.14-2.27-19.41-2.11-49.35-4.81-51.63-5.02-.97,3.12-1.94,6.25-2.91,9.37-2.09,6.74-2.55,8.22-2.58,8.3-1.42,4.55-6.1,15.58-19.84,43.18-14.65-6.12-26.55-11.8-35.12-16.08-14.32-7.16-25.88-13.71-40.43-21.96-18.78-10.64-20.5-12.15-32.34-18.3-13.32-6.91-24-11.67-29.36-14-11.86-5.15-22.55-9.21-31.58-12.36-1.07-.99-2.57-2.42-4.3-4.2-2.97-3.05-5.16-5.3-7.19-8.15-3.37-4.73-2.4-5.63-5.9-10.69-1.24-1.8-3.07-4.41-6.05-7-4.21-3.66-8.32-5.19-12.7-6.83-3.3-1.23-8.05-2.69-14.01-3.47,1.17-.78,2.98-1.89,5.3-2.95,4.32-1.98,8.22-2.8,11.07-3.38,5.47-1.12,6.39-.65,9.24-2.03,2.99-1.45,4.8-3.34,5.34-3.93,1.74-1.9,1.96-3.03,3.49-5.62,2.29-3.86,4.78-6.37,6.4-8.01,2.24-2.26,4.21-3.67,8.16-6.5,5.64-4.04,6.06-3.72,9.21-6.22,4.46-3.55,7.21-7.06,8.76-9.07,3.66-4.74,5.64-8.83,7.03-11.75,2.64-5.56,3.92-10,5.09-14.16,1.35-4.79,2.18-9.12,3.84-17.78,1.55-8.13,1.41-8.4,2.26-11.51.33-1.19,1.91-6.86,5.31-13.91,1.91-3.95,4.64-8.86,8.53-14.13-.22-2.99-.21-7.22.86-12.13.43-1.97,1.32-5.39,3.19-9.3,3.21-6.7,7.63-11.37,11.02-14.31-1.06-4.16-1.17-7.64-1.07-9.98.11-2.73.22-4.88,1.39-7.45.34-.74,1.65-3.43,4.58-5.78,2.61-2.08,4.43-2.24,7.79-3.6,5.03-2.04,8.33-4.69,11.47-7.21,1.8-1.44,4.13-3.52,8.9-9.22,6.07-7.26,10.3-13.44,12.28-16.42,3.74-5.61,8.42-13.11,13.3-22.36Z"/>
    <path class="cls-5" d="M1030.18,518.81c-.51-1.8-1.34-4.8-1.72-8.84-.12-1.23-.58-6.65.78-13.9.37-1.96,1.37-5.13,3.36-11.39,3.22-10.13,4.06-11.8,5.35-13.54,2.53-3.42,5.6-5.46,7.72-6.62,13.93-4.53,28.4-8.87,43.41-12.96,5.12-1.4,10.21-2.74,15.25-4.02,1.42-.31,3.7-.6,6.28.06,3.58.92,5.74,3.17,7.91,5.49,1.25,1.34,3.42,3.88,6.19,9.3.54,1.06,1.37,2.75,5,12.26,2.81,7.36,3.42,9.24,5.22,12.66.39.74,1.58,2.98,3.95,6.57,2.63,3.99,6.54,9.41,12.11,15.57,2.05-.6,5.02-1.3,8.66-1.55,2.82-.19,9.33-.56,16.82,2.46,6.15,2.48,10.25,6.15,12.56,8.58-4.81-.17-11.2-.25-18.73.07-5.09.21-13.31.58-23.88,2.22-8.61,1.33-14.05,2.17-21.13,4.55-5.72,1.92-5.91,2.63-22,10.03-3.79,1.74-9.8,4.5-16.75,7.46-11.4,4.85-17.1,7.28-21.97,8.69-11.66,3.37-21.03,3.36-34.67,3.34-6.29,0-15.03-.31-25.48-1.6-.17-1.32-.22-3.38.7-5.52.98-2.28,2.71-3.85,6.74-6.22,5.1-3.01,9.01-4.44,15.02-6.95,3.63-1.51,6.58-2.81,8.53-3.69-1.77-3.11-3.76-7.31-5.23-12.5Z"/>
    <path class="cls-24" d="M1126.12,614.66c2.61,1.07,4.68,1.66,6.07,2.61,2.54,1.74,3.79,4.18,4.16,4.92.97,1.95.5,2.21,1.53,4.04.91,1.63,1.38,1.58,3.12,3.91,1.5,1.99,2.4,3.68,2.72,4.3,1.13,2.19,1.09,2.86,1.9,4.57.96,2.05,2.16,3.54,4.01,5.52,5.26,5.62,10.94,10.21,10.94,10.21,3.98,3.56,8.48,7.86,13.19,12.93,9.13,9.83,15.06,18.22,19.08,23.96,5.17,7.37,7.75,11.06,10,15.62,3.95,8.02,5.15,14.07,7.66,26.37,4.7,23.07,7.06,34.6,7.6,37.07,4.21,19.11,6.51,25.87,4.87,37.35-.16,1.1-1.1,4.88-3,12.43-4.38,17.48-6.57,26.22-9.93,35.04-1.8,4.73-3.39,9.53-5.18,14.26-.34.9-.98,2.57-1.63,4.88-.78,2.75-.73,3.41-1.3,5.4-.61,2.14-1.37,4.82-3.09,7.07-2.08,2.7-4.79,3.78-7.21,4.75-1.61.64-6.26,2.31-14.62,1.73-4.48-.31-6.16-.99-11.48-2.04-5.81-1.14-7.38-1.03-20.85-2.47-11.38-1.22-11.22-1.39-19.49-2.28-6.8-.73-16.42-1.63-28.23-2.32,1.32-4.04,2.93-9.34,4.47-15.63.57-2.32,2.13-8.85,3.8-19.35,2.89-18.12,3.62-32.37,3.8-36.14.52-11.21.05-14.15,0-29.15-.11-32.49,2.06-38.58,1.66-68.32"/>
    <g>
      <path class="cls-34" d="M1132.34,652.92c-.94-.43-2.2-.88-3.71-1.14-1.41-.25-2.6-.25-3.41-.21-.67.03-1.73.13-2.99.44-1.13.28-2.07.65-2.8.99-.14,2.32-.27,4.63-.41,6.95,0,.15.02.36.1.59.13.35.35.57.46.67.16.14.31.22.42.27-.08.87-.17,1.74-.25,2.61-.15,1.57-.3,3.13-.46,4.7-.16,1.65-.32,3.31-.48,4.96-.18,1.89-.37,3.78-.55,5.67-.18,1.81-.35,3.62-.53,5.42l-.56,5.73c0-.12-.06.59-.2,2.02-.03.3-.07.69-.19,1.2-.11.46-.25.81-.31.96-.1.25-.35.82-.81,1.47-.51.72-1.03,1.17-1.18,1.29-.31.26-.35.25-.82.64-.32.26-.6.51-.92.86-.14.15-.32.37-.57.75-.52.76-.86,1.45-1.02,1.8-.65,1.38-1.03,2.54-1.27,3.28-.27.84-.46,1.55-.59,2.02-.17.65-.31,1.21-.4,1.63,0,.9,0,1.8-.01,2.7-.01,2.17-.02,4.33-.03,6.5,0,1.29-.01,2.58-.02,3.88,0,1.69-.02,3.37-.03,5.06,0,1.62-.02,3.24-.02,4.85-.01,2.05-.02,4.1-.03,6.16-.01,2.01-.02,4.02-.03,6.03,0,1.73-.02,3.47-.03,5.2,0,1.63-.02,3.26-.03,4.88-.01,2.48-.06,11.51-.06,11.68,0,1.44-.03,5.94-.03,7.43,0,.17.03.39.07.65.1.59.26,1.05.36,1.3.09.22.3.71.68,1.26.41.58.81.95,1.06,1.17.24.22.69.62,1.37.99.52.29.93.42,1.63.65.96.31,1.72.47,1.91.52,2.69.58,4.74.83,4.74.83.98.12,3.16.36,6.01.37,2.71.02,4.77-.17,5.69-.26.87-.09,2.19-.34,4.83-.83.51-.09,1.28-.25,2.17-.71.64-.33,1.07-.68,1.48-1.02.53-.44,1.24-1.02,1.89-1.99.31-.47.72-1.21,1-2.21,0-2.01,0-4.02,0-6.03,0-3.5,0-7,.01-10.5,0-4.62.01-9.23.02-13.85,0-1.4.02-19.21.02-19.27,0-1.08.02-13.44.02-14.56-.04-.51-.11-1.14-.24-1.87-.23-1.26-.54-2.22-.69-2.67-.14-.42-.57-1.62-1.37-3.07-.7-1.26-1.24-2.23-2.24-3.23-.34-.34-.83-.78-1.48-1.56-.31-.37-.6-.73-.92-1.25-.1-.17-.52-.88-.87-1.94-.06-.2-.25-.81-.44-2.08-.15-1.01-.17-1.64-.24-2.53-.01-.15,0-.06-.33-3.47,0,0-.27-2.85-.39-4.05-.13-1.4-.27-2.79-.4-4.19-.14-1.52-.29-3.04-.43-4.56-.13-1.42-.27-2.83-.4-4.25-.11-1.13-.21-2.25-.32-3.38-.12-1.23-.23-2.46-.35-3.69.13-.11.32-.3.48-.57.06-.11.21-.38.27-.76.07-.41,0-.74-.05-.94-.16-1.28-.32-2.56-.48-3.85-.1-.84-.2-1.68-.31-2.53Z"/>
      <path class="cls-9" d="M1133.05,673.28c-.28-.11-.56-.22-.84-.32-.2-.08-.34-.26-.35-.47-.11-1.62-.23-3.24-.34-4.86,0-.03,0-.06,0-.1.03-.28.09-1.15-.5-1.95-.38-.51-.85-.77-1.13-.89-.07-.03-.14-.04-.21-.05-2.2-.04-4.39-.08-6.59-.12-.07,0-.13,0-.2.03-.26.09-.7.3-1.09.74-.46.52-.58,1.09-.61,1.33,0,.01,0,.02,0,.04-.73,8.6-1.45,17.19-2.18,25.79-.06.42-.1,1.13.12,1.96.19.72.51,1.27.77,1.64.1.15.27.23.45.23.74,0,1.77.13,2.77.7.42.24.9.53,1.15,1.1.31.72.05,1.44,0,1.59-.47,1.33-1.88,1.4-3.99,2.77-.78.51-2.18,1.41-3.13,2.89-1.02,1.59-1.17,3.28-1.15,4.36-.13,7.71-.21,15.5-.25,23.36-.05,10.91,0,21.69.12,32.32,0,.03,0,.07.01.1.2,1.02.66,2.65,1.8,4.35,1.54,2.29,3.43,3.4,3.91,3.67,1.92,1.08,3.73,1.35,4.77,1.42.03,0,.06,0,.09.01,2.37.57,6.43,1.19,11.19.11,2.21-.5,4.05-1.24,5.5-1.97.19-.09.3-.28.3-.49,0-2.2.02-13.51.02-14.24,0-1.19.02-14.95.02-15.71,0-5.45.02-10.9.02-16.35,0-2.6,0-6.19.02-11.21.01-2.31.03-4.22.04-5.51,0-.02,0-.05,0-.07-.13-1.1-.34-2.01-.53-2.71-.11-.41-.26-.94-.53-1.63-.24-.61-.41-.91-.93-2.02-.44-.94-.42-.95-.58-1.26-.87-1.78-2.05-3.07-2.59-3.65-.9-.97-1.03-.89-1.52-1.57-.47-.66-.82-1.39-1.17-2.6-.27-.94-.59-2.36-.69-4.19-.24-2.89-.49-5.78-.73-8.67-.3-2.48-.59-4.96-.89-7.45-.02-.2-.16-.37-.35-.45Z"/>
      <path class="cls-10" d="M1132.34,652.92c-1.2-.54-3.33-1.32-6.09-1.37-3.17-.06-5.59.88-6.83,1.45-.14,2.32-.27,4.63-.41,6.95,0,.15.01.51.25.89.25.4.6.58.74.65-1.02,10.45-2.03,20.89-3.05,31.34-.06.57-.21,1.42-.66,2.34-.86,1.77-2.26,2.72-2.63,2.99-1.42,1.04-3.21,3.6-4.77,10.34-.11,21.43-.22,42.86-.33,64.3.02.54.16,2.15,1.4,3.63,1.48,1.77,3.25,2.36,3.73,2.43,7.75,2.37,19.05,2.2,24.84.15.65-.16,1.91-.96,3.27-2.42,1.06-1.14,1.48-2.35,1.65-2.99-.78-38.35-.46-51.46.07-55.41.02-.16.54-3.99.01-8.8-.25-2.31-.67-4.12-1.48-5.98-.24-.55-.91-2.02-2.14-3.72-1.53-2.11-2.26-2.29-3.21-3.8-.62-.98-1.34-2.55-1.48-4.93-.93-9.8-1.87-19.6-2.8-29.4.23-.2.53-.53.68-1.01.14-.45.08-.84.06-.99-.13-.86-.42-3.31-.82-6.64Z"/>
      <g>
        <path class="cls-20" d="M1120.94,653.93c-.09.61-.18,1.24-.25,1.9-.12,1.09-.18,2.13-.21,3.11,0,.13.02.62.41,1.05.38.42.86.51.99.53,2.36.04,4.72.08,7.08.12.05,0,.38-.07.58-.36.24-.35.1-.73.08-.77-.05-1.68-.11-3.37-.16-5.05-.92.23-1.7.34-2.26.4-1.36.15-2.77.3-4.4-.16-.82-.23-1.45-.54-1.85-.77Z"/>
        <path class="cls-20" d="M1121.64,662.49c2.92.09,5.84.19,8.77.28.21.05.36.23.37.44.01.21-.12.41-.33.48-2.96.04-5.93.08-8.89.12-.31-.16-.48-.5-.41-.81.08-.38.47-.52.49-.53Z"/>
        <path class="cls-26" d="M1135.96,694.4c-.28.12-.75.3-1.36.44-1.05.26-1.57.19-2.84.48-1.09.26-1.4.47-1.56.77-.23.41-.09.85-.08.89.06.18.25.61,1.32,1.01.88.33,1.56.35,2.18.4.65.05,1.97.17,3.21.61,1.2.43,2.06,1.08,3.05,1.82.64.48,1.13.92,1.48,1.25-.2-.45-.46-.94-.78-1.45-.11-.18-.48-.76-1.23-1.66-.36-.42-.94-1.05-2.1-2.3-.31-.33-.72-.78-1.03-1.49-.13-.31-.21-.58-.25-.77Z"/>
        <ellipse class="cls-3" cx="1135.71" cy="706.28" rx="2.81" ry="5.32" transform="translate(-161.55 1031.54) rotate(-45.95)"/>
        <ellipse class="cls-3" cx="1131.22" cy="683.65" rx=".45" ry="5.57"/>
        <ellipse class="cls-3" cx="1130.22" cy="671.11" rx=".55" ry="3.57"/>
        <ellipse class="cls-3" cx="1119.95" cy="724.6" rx="1.85" ry="11.99"/>
        <path class="cls-3" d="M1120.2,689.95c-.56-.85-.6-1.88-.12-2.67.39-.63,1.21-1.25,1.98-1.09,1.08.23,1.45,1.87,1.36,2.91-.02.2-.16,1.54-1.23,2.18-.22.13-.83.5-1.36.24-.47-.23-.73-.86-.62-1.58Z"/>
        <path class="cls-35" d="M1108.47,716c2.52,1.76,8.35,5.31,16.67,6.06,8.84.8,15.55-2.01,18.32-3.35-.14,9.56-.28,19.11-.42,28.67-2.43,1.55-8.31,4.85-16.54,5.09-8.91.25-15.37-3.24-17.81-4.72-.07-10.58-.14-21.16-.21-31.75Z"/>
        <path class="cls-10" d="M1119.37,653.04c1.48.51,2.74.79,3.66.95,1.79.31,3.85.67,6.32.1,1.31-.3,2.33-.78,2.98-1.13"/>
        <path class="cls-15" d="M1129.78,653.17c0,.45-1.67.81-3.72.81s-3.72-.36-3.72-.81,1.67-.81,3.72-.81,3.72.36,3.72.81Z"/>
      </g>
    </g>
    <path class="cls-16" d="M1030.18,518.81c16.77-3.77,34.08-8,51.87-12.75,18.75-5,36.74-10.24,53.96-15.62,4.06,5.26,8.12,10.53,12.18,15.79-5.08,1.94-11.42,4.24-18.8,6.65-11.28,3.68-21.06,6.32-28.57,8.17-16.35,4.03-29,6.07-32.49,6.62-9.29,1.46-20.37,2.82-32.92,3.64-1.74-4.17-3.49-8.33-5.23-12.5Z"/>
    <path class="cls-7" d="M1090.21,906.31c.58,0,1.41.05,2.36.32.37.11,2.32.69,4,2.53,1.25,1.37,1.18,2.15,2.24,4.06,1.04,1.87,2.15,3,3.65,4.53,2.18,2.22,4.28,3.56,9.43,6.47,4.4,2.48,6.59,3.72,9.23,5.05,8.02,4.04,9.64,4.07,14.16,6.84,1.25.77,4.86,3.05,8.66,6.66,4.79,4.54,7.38,8.87,12.37,17.34,2.84,4.81,4.64,8.33,7.31,13.51,4.64,9.02,6.95,13.53,7.95,17.06.32,1.13.91,3.4,2.33,6.23,1.51,3.02,3.17,5.1,4.28,6.44,5.06,6.11,8.06,8.2,11.97,12.53,1.5,1.67,4.89,5.61,7.97,11.11,1.71,3.05,5.38,9.74,6.64,18.96.49,3.63.24,8.02-.26,16.8-.41,7.18-.79,9.14-1.25,15.63-.75,10.58-.28,12.72-.71,20.51-.62,11.28-2.32,19.72-3.72,26.72-2.02,10.06-3.06,11.62-6.86,29.05-.69,3.15-1.23,5.75-2.31,10.95-3.85,18.5-3.65,18.71-4.99,24.29-.77,3.22-3.08,12.49-7.26,23.87-3.24,8.84-3.91,8.87-7.82,19.69-1.76,4.87-2.9,8.4-5.39,14.04-3.19,7.22-5.23,10.27-7.29,12.73-1.46,1.74-2.1,2.2-6.04,6.08-6.08,6-5.7,5.97-8.8,8.99-4.58,4.45-5.18,4.59-7.34,7.17-2.22,2.66-3.55,4.87-4.95,7.22-1.92,3.22-4.36,7.82-6.62,13.72-5.06-.99-12.46-2.69-21.12-5.7-11.15-3.87-19.27-8.12-29.91-13.74-5.24-2.77-12.33-6.68-20.57-11.74.43-1.66,1.12-3.95,2.19-6.6.92-2.27,2.17-4.93,4.77-9.25,3.41-5.67,4.18-5.95,6.36-9.59,1.77-2.95,3.3-6.99,6.29-14.94,2.59-6.89,3.88-10.33,5.01-14.24,1.23-4.28,2.6-9.05,3.36-15.3.71-5.88.75-12.01.82-21.73.02-2.46.01-5.27.97-8.9.91-3.44,2.02-5.1,3.62-8.62,0,0,2.72-6,4.19-12.03,1.05-4.29.63-5.96.2-18.54-.35-10.07-.52-15.1-.18-19.02.25-2.84.96-9.45,3.44-17.56,1.61-5.27,4.31-12.29,8.94-19.92-4.42-3.61-7.45-7.05-9.41-9.54-3.87-4.91-6.56-8.32-8.72-13.5-.89-2.13-1.56-4.25-3.72-6.35-1.59-1.55-3.34-2.45-6.32-3.57-5.57-2.1-8.56-2.39-12.01-3.38-6.19-1.77-10.41-4.78-12.59-6.34-3.1-2.22-8.33-6.63-12.55-14.41-.84,1.48-1.99,3.69-3.01,6.5-.6,1.64-2.92,8.29-2.67,18.05.16,6.18,1.14,5.74,1.03,11.49-.09,4.63-.8,8.48-1.56,12.59-.93,5.01-1.24,5-2.26,10.36-1,5.29-1.48,9.4-1.8,12.17-.25,2.16-.64,5.96-.97,11.83-.53,9.39-.13,10.45-.48,18.06-.26,5.66-.84,10.93-2,21.48-1.17,10.57-1.36,10.28-1.71,15.29-.16,2.28-.6,9.09-.41,18.3.12,5.97.4,8.23.57,12.16.45,10.58-.57,18.71-1.44,25.72-2,15.99-5.62,27.69-11.33,46.11-1.54,4.99-3.35,10.8-6.15,18.49-5.53,15.19-11.24,27.56-15.76,36.57,1.83,3.97,3.64,8.44,5.3,13.37,1.95,5.8,3.32,11.23,4.31,16.11-4.16-.52-10.39-1.14-17.98-1.27-14.85-.27-24.34,1.5-38.61,3.09-8.27.92-20.08,1.99-34.58,2.47-3.03-5.06-5.03-9.58-6.35-13.01-1.66-4.31-3.69-9.72-4.22-17-.27-3.66-.47-6.85.84-10.81.48-1.46,1.77-5.24,5.16-8.61,2.86-2.84,4.03-2.23,7.64-5.65,1.9-1.8,3.9-3.74,4.93-6.7,1-2.88.58-5.29.21-7.77-.55-3.68-1.23-9.01-1.74-16.1.46-7.92-.99-13.24-2.51-16.73-.38-.87-1.99-4.46-2.66-9.31-.43-3.11-.21-4.82.28-6.27.67-1.98,1.43-2.28,2.45-4.51.17-.36,1.46-3.28,1.47-6.63.01-3.82-1.66-3.88-2.61-9.14-.37-2.06-.87-4.97.11-8.32.52-1.78.99-2.09,2.03-4.41,0,0,1.77-3.96,2.51-8.5.88-5.46-.65-6.12.14-12.41.37-2.98.58-4.68,1.6-6.82,1.62-3.43,3.37-3.95,5.21-7.74.42-.86,1.5-3.12,1.85-6.08.48-4.07-.91-5.26-1.6-11.01-.15-1.25-.53-4.9-.06-9.28.53-4.99,1.62-5.79,2.28-9.89.52-3.22-.02-6.94-1.12-14.26-1.55-10.34-2.43-10.43-2.15-14.68.28-4.28,1.25-5.5.92-9.97-.13-1.77-.41-5.06-2.13-8.73-.86-1.85-2.37-3.77-5.36-7.56-4.09-5.18-4.65-5.29-5.46-7.29-1.53-3.76-1.13-7.26-.96-8.43.43-2.85,1.28-3.08,2.08-6.13,1.23-4.7.41-8.75.05-10.44-.68-3.2-2.06-5.54-4.8-10.09-3.9-6.5-5.54-7.5-8.46-12.86-1.87-3.44-2.87-6.11-3.89-8.84-.78-2.09-3.76-10.27-5.37-22-.81-5.91-2.02-15.2-.55-26.78.68-5.39,1.52-7.93,2.01-15.07.41-6,.65-9.55,0-14.46-.42-3.17-.99-5.27-1.22-9.73-.08-1.55-.21-4.19.05-7.39.39-4.77,1.42-8.22,2.54-11.88,1.77-5.79,3.22-10.5,6.68-15.8,2.01-3.08,3.88-6.25,5.97-9.28,1.21-1.75,2.46-3.48,2.62-5.99.15-2.22-.62-4.06-1.24-5.2,2.58.9,5.99,2.12,9.96,3.6,10.88,4.07,19.29,7.67,23.55,9.53,5.49,2.4,15.68,6.98,28.33,13.55,11.53,5.99,13.95,7.84,31.42,17.77,12.05,6.85,23.61,13.42,36.62,20.09,9.48,4.85,22.99,11.43,39.86,18.48,1.38-2.91,2.77-5.82,4.15-8.73,2.23-4.68,4.45-9.37,6.68-14.05,2.58-5.42,5.15-10.84,7.73-16.26Z"/>
    <path class="cls-31" d="M1151.92,520.45c0,4.21-.02,8.43-.02,12.64-.64.12-1.88.46-2.96,1.47-1.49,1.4-1.73,3.19-1.83,4.06-.28,2.41.59,4.45,1.97,6.92,2.93,5.27,4.71,6.29,6.46,9.4,1.26,2.23,2.59,5.69,2.53,10.82-2.58,1.05-5.16,2.11-7.74,3.16v13.29c-2.79,0-4.58.92-5.43,1.46-.89.56-1.57.99-1.66,1.7-.17,1.36,2.11,1.84,2.81,4.17.05.18.49,1.72-.21,3.19-.69,1.46-1.81,1.4-3.01,2.76-1.61,1.83-1.63,4.26-1.63,4.85-.02,2.68,1.42,3.44,1.43,6.28,0,1.48-.38,2.69-.68,3.42-2.46,1.32-4.92,2.65-7.39,3.97-1.1-.69-2.47-.71-3.5-.07-1.16.73-1.37,1.98-1.4,2.19-.87-.41-2.06-.98-3.45-1.7,0,0-5.19-2.69-10.04-6.02-6.67-4.58-13.74-11.62-18.04-15.47-4.29-3.85-10.79-9.32-19.49-15.36-2.58-1.39-5.16-2.78-7.74-4.18,3.74-9.32,7.48-18.63,11.21-27.95,10.53-4.14,18.39-8.08,23.76-11.01,2.81-1.53,6.17-3.46,11.34-5.66,1.71-.72,7.12-2.96,14.61-4.93,5.18-1.36,11.97-2.76,20.08-3.42Z"/>
    <path class="cls-1" d="M1036.93,574.27c1.5-.62,3.53-1.39,6-2.06,1.79-.49,6.52-1.67,11.86-1.74,8.71-.11,15.91,2.8,19.64,4.59,3.49-2.19,5.76-4.64,7.28-6.91,3.56-5.31,2.41-8.7,6.18-11.91,3.11-2.65,4.77-1.08,8.16-4.11,2.64-2.36,3.79-5.23,5.07-8.44,1.26-3.15,1.85-5.93,2.16-7.88-1.83.98-4.38,2.29-7.45,3.76-3.88,1.86-7.93,3.63-13.7,5.91-9.3,3.67-13.95,5.51-18.63,6.77-10.18,2.75-18.46,3.33-22.37,3.49-4.53.19-8.36.04-11.18-.15-.29,1.26-.58,3.13-.41,5.38.15,2.05.73,5.09,2.66,8.2,1.55,2.5,3.42,4.14,4.74,5.11Z"/>
    <path class="cls-1" d="M1117.97,528.15c.45,2.72.97,6.41,1.35,10.81.9,10.34-7.86,21.98-8.1,25.57-.64,9.5-.25,13.9-.25,13.9-1.08,6.77-5.57,11.49-4.79,14.72.99,4.13,8.41,7,13.41,13.17,2.21,2.73,10.71,1.92,14.11,7.2,1.31-.07,3.43-.35,5.73-1.5,1.72-.86,3.21-1.61,3.81-3.14.55-1.39-.19-2.04-.85-6.17-.4-2.53-.6-3.81-.2-4.82.29-.73.54-.83,3.21-3.97,1.6-1.88,1.8-2.18,1.79-2.68-.03-1.64-2.25-3.56-2.38-3.66-.29-.24-.58-.45-.79-.88-.33-.67-.4-1.73.1-2.44.7-.99,1.92-.5,4.74-1.56.95-.36,1.44-.55,1.78-.93.9-1.01.6-2.4.44-4.59-.09-1.25-.16-3.07,0-5.32-1.2.41-2.98.89-5.18.98-1.19.05-6.61.14-11.26-3.27-6.83-5.02-7.03-13.97-7.06-15.53-.07-2.98.6-2.46,1.53-11.67.51-5.07.5-7.07.39-8.74-.24-3.87-1.06-7.01-1.73-9.09-3.26,1.21-6.53,2.42-9.79,3.62Z"/>
    <path class="cls-19" d="M1149.45,520.68c-.08,4.55-.17,9.11-.25,13.66.97-.64,2.48-1.54,4.47-2.29,2.15-.82,3.53-.96,5.16-1.37,2.93-.74,4.02-1.69,7.5-3.47,1.51-.77,6.15-2.53,15.39-6.04,2.55-.97,4.64-1.76,6.04-2.28-3.17-.1-6.43-.13-9.76-.1-10.19.09-19.74.8-28.55,1.89Z"/>
    <path class="cls-11" d="M1140.95,539.81c.79-.16,1.94-.26,3.12.14.62.21,2.62.9,2.32,2.35-.2.95-1.29,1.79-1.57,2-1.92,1.46-3.63.51-4.26.16-.81-.45-1.57-.88-1.44-1.92.11-.9.85-1.96,1.83-2.73Z"/>
    <path class="cls-23" d="M1145.39,541.49c.4.62.22,1.47-.39,1.89-.61.42-1.43.25-1.83-.37-.4-.62-.22-1.47.39-1.89.61-.42,1.43-.25,1.83.37Z"/>
    <ellipse class="cls-22" cx="1145.16" cy="542.08" rx=".35" ry=".37"/>
    <ellipse class="cls-31" cx="1105.38" cy="550.06" rx="5.7" ry="12.73" transform="translate(-82.73 214.18) rotate(-10.67)"/>
    <ellipse class="cls-29" cx="1108.74" cy="552.56" rx=".72" ry="6.94" transform="translate(-118.86 386.32) rotate(-18.78)"/>
    <path class="cls-29" d="M1107.31,557.14c.13-.07-.53-1.32-2.4-5.59-1.16-2.66-2.12-4.92-1.78-7.22.06-.4.27-1.88,1.14-2.17.49-.17.93.12,1.12-.11.24-.29-.19-1.1-.72-1.6-.56-.52-1.62-1.03-2.42-.67-.31.14-.95.57-1.15,2.64-.25,2.7.53,5.36,2.28,8.74,1.7,3.28,3.72,6.08,3.93,5.97Z"/>
    <path class="cls-29" d="M1101.89,559.14c2.6,2.94,6.1,2.64,6.24,2.52s-3.13-.02-5.72-2.96c-2.6-2.94-4.82-7.89-4.97-7.76s1.85,5.26,4.45,8.2Z"/>
    <path class="cls-4" d="M1072.13,1283.99c-1.13,1.7-2.5,3.51-4.18,5.32-5.25,5.66-11.11,8.81-15.31,10.56-6.29,11.48-12.58,22.97-18.86,34.45,10.25,6.91,20.49,13.83,30.74,20.74.29-.1,3.79-1.21,6.81,1.03,2.13,1.58,3.2,4.22,2.79,6.86,16.01,6.51,32.02,13.03,48.03,19.54,2.44-2.36,5.68-6.22,7.59-11.7,1.34-3.84,1.5-6.94,1.53-7.71.26-6.58-2.16-11.35-2.72-12.41-1.21-2.29-3-5.67-7.05-8.02-3.93-2.28-7.82-2.32-9.58-2.23-.87-1.06-1.73-2.12-2.6-3.19.47-2.1,1.26-5.42,2.44-9.46,2.07-7.1,3.29-9.41,4.1-13.95.48-2.68.93-6.72.4-11.88-5.39-1.19-9.83-2.51-13.11-3.58-2-.66-11.67-3.88-23.86-10.35-3.01-1.6-5.47-3.02-7.16-4.03Z"/>
    <path class="cls-4" d="M913.27,1348.38c15.13-1.53,26.28-2.94,34-3.99,4.88-.67,12.24-1.72,22.35-2.02,4.69-.14,8.58-.08,11.24,0-.21,1.46-.35,3.73.35,6.34.86,3.24,2.57,5.34,4.11,7.2,2.42,2.92,5.26,5.19,9.13,8.28,1.67,1.34,2.41,1.85,3.27,3.04,1.51,2.1,1.27,3.34,3.05,5.65,1.01,1.31,2.05,2.16,2.6,2.57,1.85,1.39,3.08,1.55,4.65,2.36,2.66,1.36,4.14,3.45,4.95,4.61,3.45,4.89,2.8,10.33,2.68,11.21-.54,4-2.49,6.78-3.53,8.06-4.43,1.56-9.91,3.21-16.3,4.5-4.14.84-10.84,1.96-19.18,2.31-6.64.27-15.43.09-25.63-1.64-1.16-.24-2.81-.68-4.65-1.54-.85-.4-4.61-2.25-8.83-7.77-1.38-1.81-4.24-5.89-6.22-11.91-1.87-5.66-1.07-7.29-3.38-13.72-1.14-3.16-2.28-5.41-3.16-7.11-2.11-4.11-5.66-10.01-11.52-16.42Z"/>
    <path class="cls-18" d="M1103.34,460.26c1-1.04,1.45-.59,4.94-1.62,4.3-1.27,4.84-2.32,6.95-1.78,1.96.5,3.46,1.93,4.38,2.8,3.87,3.67,5.5,8.87,6.58,12.31,1.18,3.75,2.05,6.53,1.43,9.26-.54,2.38-1.92,3.39-3.72,4.71-2.14,1.57-4.57,2-9.34,2.81-3.66.62-4.22.43-4.78.07-.99-.64-1.95-1.79-5.28-10.49-2.98-7.79-3.16-9.31-3.2-10.42-.03-.83-.21-5.31,2.03-7.65Z"/>
    <path class="cls-18" d="M1037.32,479.77c.43-.77.65-.23,2.25-.4,1.96-.22,2.18-1.1,3.17-.09.93.94,1.68,2.65,2.14,3.7,1.93,4.42,2.88,9.77,3.5,13.32.68,3.87,1.19,6.73.99,9.2-.17,2.15-.78,2.8-1.57,3.65-.94,1.01-2.06.86-4.25.52-1.68-.26-1.95-.57-2.23-1.04-.49-.84-.97-2.17-2.83-11.27-1.66-8.15-1.8-9.65-1.86-10.73-.04-.8-.28-5.13.68-6.85Z"/>
    <path class="cls-12" d="M1284.31,795.04c2.31.25,4.61.51,6.92.76,6.25,1.13,12.54,2.3,18.88,3.51,3.3.63,6.58,1.27,9.84,1.91.37.57.86,1.43,1.24,2.55,1.1,3.26.4,6.18-.02,7.84-.63,2.49-1.03,1.99-2.26,5.56-1.08,3.13-1.59,5.88-1.84,7.23-.64,3.52-.32,3.72-.9,5.36-.94,2.66-2.56,4.32-3.97,5.77-1.14,1.17-4.09,3.95-8.74,5.57-2.02.7-3.56,1.22-5.49.79-2.5-.56-4.06-2.34-4.41-2.76-1.45-1.74-.83-2.5-2.23-4.08-1.73-1.94-4.14-2.42-4.79-2.53-1.91-.32-2.51.3-4.65.36-3.03.09-5.37-1.05-6.45-1.57-4.51-2.19-6.57-6.19-7.23-7.63,5.36-9.54,10.72-19.09,16.08-28.63Z"/>
    <path class="cls-17" d="M1282.7,832c.46-.42,2.38-2.17,4.93-4.51,5.51-5.05,6.95-6.41,9.3-6.55.31-.02,3.26-.16,5.25,1.93,2.26,2.38,1.52,5.79,1.42,6.23-.84,3.61-4.73,6.45-9.74,6.98"/>
    <path class="cls-31" d="M1130.06,726.24c.68.15,2.07.34,3.39-.36.7-.37,1.11-.86,1.44-1.28,1.2-1.52,2.28-2.88,3.08-5.27.45-1.33,1.07-3.73.71-8.3-.26-3.31-.72-3.83-1.73-9-.23-1.19-1.2-6.28-1.1-12.54.04-2.4.23-4.45,1.74-5.73,1.21-1.03,2.74-1.12,3.21-1.15,2.38-.15,4.1,1.13,4.88,1.71.49.36,2.18,1.7,3.03,4.07.58,1.62.3,2.44.38,5.31,0,0,.09,3.21.65,6.3.54,2.96,1.46,4.63,2.9,7.78.38.84,3.07,6.75,4.59,11.49,1.78,5.56,2.15,10.12,2.41,13.45.4,5.26.06,9.08-.39,14.26-.35,3.97-.59,6.61-1.54,10.18-.89,3.36-1.69,6.3-3.92,9.38-2,2.76-2.39,1.84-5.94,5.78-3.58,3.97-4.25,6.1-7.55,8.14-1.68,1.04-3.24,1.56-4.22,1.83.47-1.98,1.03-4.75,1.4-8.1.13-1.22.64-6.17,0-14.39-.16-2.04-.8-9.51-3.19-19.41-.95-3.96-2.3-8.77-4.23-14.16Z"/>
    <path class="cls-2" d="M1220.76,783.4c5.34,2.32,9.71,4.32,12.72,5.73,10.96,5.11,21.21,9.94,33.15,17.39,3.6,2.25,6.45,4.17,8.21,5.39-2.33,3.88-4.66,7.75-6.98,11.63-8.6-2.97-17.2-5.94-25.8-8.91-5.91-2.04-11.82-4.08-17.73-6.12-.38-3.34-.8-6.72-1.27-10.17-.7-5.12-1.47-10.1-2.29-14.94Z"/>
    <path class="cls-2" d="M1254.9,761.35c-1.9.44-2.51,1.54-4.02,2.58-4.1,2.83-8.88,1.1-9.12,2.27-.16.78,1.82,2.17,3.86,2.27,1.66.08,2.77-.72,4.33-1.67,5.74-3.52,9.1-4.01,8.89-4.89-.15-.67-2.24-.96-3.95-.57Z"/>
    <path class="cls-2" d="M1244.54,751.34c-1.84.08-3.01.92-5.41,2.58-5.16,3.55-6.2,4.09-6.03,4.55.25.65,2.68.43,4.33,0,1.71-.45,2.2-1.01,5.56-3.03,3.45-2.07,4.76-2.57,4.64-3.18-.13-.66-1.82-.97-3.09-.91Z"/>
    <path class="cls-2" d="M1229.09,735.41c-.8-.12-1.18,1.94-3.09,4.4-3.1,3.99-6.96,4.81-6.64,5.91.23.8,2.4.96,3.86.76,3.51-.48,6.5-3.51,6.95-6.82.26-1.89-.28-4.12-1.08-4.25Z"/>
    <path class="cls-2" d="M988.31,766.5c-.63,1.04-.32,3.09.29,7.19.88,5.89,2.8,11.25,4.22,13.79,3.32,5.97,11.55,8.12,27.88,12.19,22.82,5.68,34.31,8.53,38.65,9.2,10.56,1.62,20.65,3.1,34.2,2.3,6.41-.38,11.71-1.16,15.44-1.83.65-6.42.33-11.6-.11-15.2-.5-4.09-1.05-5.4-1.6-6.34-2.94-5.07-9.6-6.46-12.33-6.98-16.32-3.13-44.59-4.8-54.35-5.75-28.97-2.82-48.81-14.35-52.29-8.57Z"/>
    <path class="cls-2" d="M1035.48,685.33c-3.95-.48-11.09-.81-18.86,2.18-18.3,7.04-26.71,27.39-25.15,28.67.63.52,3.35-1.71,7.03-4.72,5.64-4.62,6.43-6.84,10.72-10.52,2.26-1.94,3.01-2.15,12.57-7.62,3.2-1.83,7.92-4.56,13.68-7.98Z"/>
    <path class="cls-2" d="M1028.09,583.35c1.18,2.52,12.74-3.21,25.15-1.09,11.89,2.03,19.36,10.39,26.63,18.51,18.17,20.33,22.78,45.5,25.15,58.43,1.93,10.54,2.22,13.79,2.22,13.79.58,6.48.35,11.26,2.22,18.51.81,3.14,1.95,7.55,3.29,7.52,1.8-.05,2.95-8.05,3.76-13.73,1.3-9.07,1.4-15.27,1.74-21.26.57-10.21,1.06-15.31,2.32-21.95,1.19-6.3,2.44-10.36,4.11-20.39.52-3.16.9-5.76,1.13-7.45-7.39-3.73-12.65-7.71-16.16-10.75-4.56-3.96-6.25-6.4-11.27-11.06-4.39-4.06-7.88-6.47-14.7-11.45-4.5-3.29-6.55-4.61-9.23-5.91-4.3-2.1-7.89-3.03-9.25-3.35-5.29-1.27-9.68-1.28-12.06-1.18-5.65.24-9.83,1.53-12,2.21-1.74.55-3.17,1.11-4.19,1.53-8.14,5.8-9.31,8.08-8.84,9.08Z"/>
    <path class="cls-2" d="M854.65,821.39c5.09-.4,12.8-1.09,22.18-2.26,11.32-1.42,18.19-2.69,30.73-4.7,7.54-1.2,18.4-2.87,31.74-4.7-3.03,1.81-7.29,4.42-12.34,7.66-6.3,4.05-9.46,6.07-12.6,8.41-4.65,3.46-5.74,4.77-17.38,14.84-3.03,2.62-5.52,4.75-7.15,6.13-1.46-4.3-3.42-7.5-4.92-9.58-2.06-2.87-4.02-4.7-4.54-5.18-.79-.72-3.38-3.03-7.43-5.12-3.51-1.81-6.38-2.56-11.79-3.98-2.69-.7-4.94-1.19-6.49-1.51Z"/>
    <path class="cls-2" d="M880.37,813.93c2.32.22,5.68.36,9.65-.17,5.55-.74,7.26-2.11,15.81-5.22,11.86-4.32,16.03-4.39,17.29-7.98.78-2.23.21-5.16-1.33-5.95-1.88-.96-4.47,1.66-8.13,4.06-11.07,7.26-18.5,3.66-29.26,11.75-1.92,1.44-3.31,2.78-4.03,3.51Z"/>
    <path class="cls-2" d="M938.44,860.34c1.15-3.72,14.3-3.64,23.88,0,2.08.79,9.29,3.53,9.1,6.69-.19,2.99-6.95,5.47-12.51,5.58-10.83.21-21.63-8.5-20.46-12.27Z"/>
    <path class="cls-2" d="M1059.52,850.3c-1.55-1.15-10.74,13.73-33.54,31.24-13.55,10.41-25.01,16.46-23.88,18.97.82,1.82,7.72.64,11.94-.56,10.26-2.93,16.89-9.52,22.74-16.18,12.33-14.05,24.48-32.19,22.74-33.47Z"/>
    <path class="cls-2" d="M1009.5,910.56c6.82-1.03,15.31-1.7,25.01-1.12,8.07.49,13.37,1.63,23.88,3.91,9.8,2.12,15.38,3.97,21.03,7.81,1.19.81,2.14,1.54,2.76,2.04-3.51,7.38-7.02,14.76-10.53,22.15-12.21-5.15-22.69-10.01-31.24-14.18-9.04-4.41-16.42-8.28-21.2-10.84-4.49-2.41-8.35-4.55-11.4-6.27.56-1.17,1.13-2.33,1.69-3.5Z"/>
    <path class="cls-2" d="M955.65,680.34c3.61-5.92,6-6.83,11.9-13.77,5.99-7.03,4.95-7.75,10.2-13.35,2.56-2.72,6.24-6.58,12.11-10.01,4.62-2.69,10.35-5.93,16.58-4.38,2.17.54,5.56,1.96,5.53,3.55-.05,2.1-6.09,2.73-14.03,6.05,0,0-6.99,2.93-13.81,7.93-7.28,5.33-7.31,8.21-18.7,21.07-4.17,4.71-12.4,13.98-13.78,13.04-.98-.67,1.65-6.25,4.01-10.12Z"/>
    <path class="cls-2" d="M982,632.37c-3.6-.89-8.41,7.52-10.2,10.64-.75,1.32-3.75,6.55-2.76,7.3.51.39,1.76-.65,6.59-4.38,7.47-5.77,9.07-6.84,9.14-8.97.06-1.9-1.12-4.18-2.76-4.59Z"/>
    <path class="cls-2" d="M940.14,716.63c1.93-.34,2.92,3.8,5.95,3.96,4.83.26,7.59-9.93,10.2-9.39,2.24.46,3.69,8.66,1.28,16.27-1.77,5.56-5.01,8.94-10.84,15.02,0,0-2.67,2.78-14.66,13.14,1.19-6.33,2.59-12.62,3.61-18.98,2.07-12.84,2.04-19.6,4.46-20.02Z"/>
    <path class="cls-30" d="M1038.75,930.72c-6.82-3.42-16.46-8.4-27.87-14.76-10.54-5.88-13.51-7.89-26.03-14.93-12.75-7.17-19.19-10.79-28.56-15.45-6.03-3-19.09-9.32-36.4-16.13-6.87-2.7-12.77-4.83-17.24-6.39.44.71,1.03,1.86,1.22,3.35.27,2.05-.3,3.82-1.31,5.88-1.79,3.66-3.86,6-4.9,7.26-2.31,2.84-3.56,5.73-6.05,11.51-1.9,4.41-4.48,10.38-5.39,18.54-.73,6.56-1.44,9.79.05,12.21,3.67,5.98,15.19,5.19,21.49,4.88,0,0,16.81-.82,51.53,2.18,31.42,2.71,41.21,11.9,65.1,6.53,6.24-1.4,11.18-3.29,14.35-4.65Z"/>
    <path class="cls-30" d="M1045.48,968.42c6.76-3.09,12.15-1.76,27.99.34,20.95,2.79,18.68,1.42,24.19,2.75,28.15,6.81,44.3,32.04,48.04,37.88,7.6,11.88,14.29,22.33,12.44,35.13-1.82,12.59-9.92,13.83-25.23,36.85-10.05,15.11-15.55,28.1-19.35,37.19-5.04,12.05-9.05,21.65-11.06,35.13-2.01,13.48-4.98,33.37,5.18,41.32,6.44,5.04,13.49,1.64,29.72,1.72,17.09.09,31.05,3.98,40.43,7.42-.56,1.66-1.52,4.47-2.72,7.94-2.8,8.06-6.14,16.44-12.7,32.89-1.17,2.94-2.47,6.15-5.09,9.89-.99,1.41-1.82,2.41-6.92,7.77-4.93,5.18-7.59,7.86-11.3,11.73-4.41,4.61-6.62,6.92-7.46,7.94-2.98,3.66-6.71,9.4-9.27,18.09-3.23-.65-7.47-1.6-12.37-3.01-5.13-1.47-12.73-3.95-21.59-7.99-7.96-3.63-9.18-4.99-25.61-13.71-4.65-2.47-8.48-4.44-10.95-5.7.71-1.84,1.65-4.17,2.85-6.82.56-1.24,1.94-4.27,3.77-7.62,2.56-4.7,3.7-5.8,5.82-9.33,2.31-3.84,3.67-7.3,6.39-14.22.74-1.89,2.74-7.05,4.91-14.1,2.17-7.04,3.25-10.56,4-15.24,1.14-7.16,1.07-13.52,1.03-16.72-.09-6.35-.65-7.08-.11-11.03.74-5.47,2.61-10.01,3.54-12.06,1.44-3.18,1.76-2.92,2.81-5.39,1.3-3.07,1.93-6.14,2.29-13.53.19-3.86.24-7.83.08-15.26-.24-10.6-.53-10.3-.39-13.85.3-7.88,1.91-13.8,3.08-18.02,1.56-5.59,4.25-13.17,9.08-21.48-3.1-2.97-5.7-5.85-7.86-8.45-2.42-2.92-4.36-5.26-6.45-8.71-3.33-5.49-2.77-6.71-5.58-10.01-.54-.63-3.06-3.53-7.31-5.78-4.38-2.33-6.57-1.83-11.49-3.28-6.75-1.99-11.33-5.47-13.47-7.13-2.89-2.24-7.52-6.46-11.3-13.49,4.93-12.69,3.63-20.6,1.27-25.59-2.19-4.62-5.25-6.64-5.04-10.99.28-6.11,6.71-11.15,11.75-13.45Z"/>
    <path class="cls-30" d="M1112.56,1188.14c5.98-4.75,14.29-11.82,23.39-21.21,13.17-13.59,21.52-25.38,30.5-38.17,6.16-8.77,14-20.6,22.37-35.18.57,4.75.84,11.86-1.27,19.96-1.49,5.74-4.1,11.67-15.25,26.44-11.61,15.38-11.88,13.05-24.15,28.69-9.29,11.85-13.6,18.88-24.15,24.7-1.83,1.01-11.67,6.3-13.98,3.74-1.55-1.71.88-6.26,2.54-8.98Z"/>
    <path class="cls-30" d="M1126.79,1139.49c7.15-9.58,13.56-16.86,18.05-21.7,14.38-15.53,19.08-21.99,28.47-34.93,2.08-2.86,5.84-8.14,4.07-10.73-1.5-2.18-6.24-1.39-7.12-1.25-8.31,1.38-13.57,8.89-15.51,11.73-21.96,32.23-24.66,37.92-24.66,37.92-5.5,11.61-13.91,28.78-25.67,50.64"/>
    <path class="cls-30" d="M1016.08,1214.74c-2.14-1.08-4.56,6.13-11.41,14.53-6.78,8.31-13.51,12.41-18.25,15.29-9.13,5.55-11.78,4.3-21.88,11.03-5.25,3.5-11.08,7.38-10.64,10.19.52,3.3,9.69,5.01,18.02,2.62,10.93-3.14,10.03-10.35,26.27-20.08,1.21-.73,6.79-4.03,12.81-10.48,3.21-3.44,4.78-5.89,5.73-9.07,1.66-5.57,1.33-13.02-.66-14.02Z"/>
    <path class="cls-30" d="M935.87,1303.9c21.77-1.5,33.32-.37,36.77,0,7.03.75,12.91,1.83,17.25,2.75-1.8,3.25-3.59,6.51-5.39,9.76-3.4,1.11-8.39,2.52-14.53,3.49-18.92,2.98-33.73-.63-42.7-2.91-5.47-1.39-20.8-5.29-20.46-8.44.28-2.67,11.74-3.46,29.06-4.66Z"/>
    <path class="cls-30" d="M916.58,1213.94c.88,2.15,15.9-.47,28.12-11.17,6.27-5.5,9.61-11.2,14.29-19.22,7.49-12.82,15.15-30.57,12.65-32.47-2.13-1.62-10.86,8.84-11.72,9.87-8.96,10.81-9.74,18.2-15,27.28-11.19,19.33-29.33,23.33-28.35,25.72Z"/>
    <path class="cls-30" d="M1020.09,975c2.09.85-3.13,11.03-10.97,42.2-2.24,8.88-3.85,16.17-9.79,18.63-4.17,1.73-10.43,1.06-12.75-2.33-2.42-3.53.02-9.1,17.79-36.67,13.56-21.03,14.95-22.14,15.72-21.83Z"/>
    <path class="cls-30" d="M1020.68,1097.54c1.39.74-6.46,17.77-13.35,30.27-6.71,12.19-11.78,18.74-15.42,22.99-5.62,6.58-14.24,15.17-15.42,14.26-.84-.65,2.35-5.9,20.17-32.89,21.45-32.5,23.46-34.94,24.02-34.64Z"/>
    <path class="cls-30" d="M1014.46,1046.31c-1.6-.23-.15,16.98-12.16,33.76-11.07,15.48-25.99,19.97-24.32,27.94.76,3.64,4.69,6.66,8.3,6.99,11.6,1.04,21.88-25.53,23.43-29.69,7.41-19.83,6.43-38.76,4.74-39Z"/>
    <path class="cls-33" d="M1072.21,1284.27c-1.03,1.45-1.97,2.56-2.67,3.33-1.26,1.39-2.07,2.05-1.93,2.88.14.87,1.22,1.38,1.58,1.55,8.83,4.18.62,2.79,15.6,7.89,8.37,2.86,12.56,4.28,18.03,5.38,5.31,1.06,9.97,1.56,13.69,1.8-.08-1.72-.15-3.43-.23-5.15-4.28-.95-9.72-2.38-15.89-4.54-5.71-2-9.89-3.88-12.43-5.02-4.34-1.96-9.72-4.61-15.74-8.12Z"/>
    <path class="cls-33" d="M980.45,1342.37c.09,1.1.19,2.2.28,3.3-1.6-.25-3.83-.55-6.5-.74-2.55-.19-7.16-.4-13.76.16-5.76.49-10.01,1.31-11.69,1.63-5.91,1.1-14.72,2.38-27.11,3.01-.74-.66-1.48-1.33-2.22-1.99,1.34-.14,3.35-.34,5.79-.61,9.65-1.06,13.01-1.63,20.83-2.59,10.35-1.27,15.79-1.92,23.31-2.16,4.62-.15,8.45-.09,11.07,0Z"/>
    <path class="cls-30" d="M908.53,1026.4c-.63-.73.69-2.41,7.34-12,9.39-13.55,10.44-15.53,11.41-15.2,2.03.69,2.17,10.93-3.26,18.4-5.09,7.01-14.18,10.32-15.49,8.8Z"/>
    <path class="cls-30" d="M914.81,1073.52c8.06-3,12.61-9.56,11.65-15.12-.18-1.01-.84-3.74-4.08-6.4"/>
    <path class="cls-30" d="M884.49,979.32c.41-4.22,6.22-4.67,8.55-10.52,2.17-5.46-.44-11.25-.82-11.2-.83.11,5.4,28.56,0,30.4-2.61.89-8.15-4.36-7.73-8.68Z"/>
    <path class="cls-10" d="M1030.18,518.81c9.63-2.17,19.39-4.47,29.25-6.92,26.91-6.69,52.65-13.96,77.17-21.63"/>
    <path class="cls-10" d="M1035.57,531.6c13.29-1.05,27.77-2.84,43.17-5.74,26.76-5.04,50.04-12.22,69.45-19.62"/>
    <path class="cls-10" d="M1036.93,574.27c5.52-2.24,15.8-5.44,27.58-2.86,7.96,1.74,13.13,5.36,20.67,10.64,13.64,9.55,15.68,15.41,29.14,24.94,6.23,4.41,11.76,7.38,15.35,9.16"/>
    <path class="cls-14" d="M1090.21,906.31c-6.19,13.01-12.37,26.02-18.56,39.03-8.48-3.59-22.29-9.64-38.91-18-35.13-17.68-48.26-28.27-78.37-43.1-11.57-5.7-29.39-13.86-52.45-21.92"/>
    <path class="cls-10" d="M1072.13,1283.99c4.81,2.81,10.22,5.66,16.24,8.34,10.14,4.53,19.63,7.56,27.9,9.63"/>
    <path class="cls-25" d="M918.81,1347.86c-1.85.17-3.69.35-5.54.52.58.65,1.38,1.57,2.31,2.69,1.47,1.79,4.37,5.5,6.92,9.89,3.82,6.57,5.58,12.5,6.6,15.99,1.76,6.05,1.27,6.99,3.17,11.49,2.2,5.21,4.76,8.47,5.6,9.5,2.01,2.46,4.39,5.38,8.5,7.38,2.06,1,3.96,1.48,7.94,2.05,8.66,1.24,15.47,1.23,16.16,1.22,6.07-.04,13.95-.13,24.15-2.16,4.79-.96,10.91-2.5,17.8-5.12.99-1.29,2.35-3.45,3-6.39.29-1.31.38-2.51.37-3.51-1.49,1.03-3.15,2.06-4.99,3.06-1.97,1.07-6,3.24-11.41,4.67-2.64.7-4.73.94-8.91,1.43-2.99.35-4.8.46-14.22.96-9.98.53-11.1.57-13.33.36-6.08-.56-9.64-1.95-10.72-2.4-1.92-.79-4.85-2.03-7.71-4.8-1.86-1.8-2.93-3.51-3.28-4.08-1.54-2.55-1.72-4.19-3.03-8.52-.59-1.95-1.2-3.65-2.42-7.05-1.65-4.6-2.63-7.34-4.27-10.74-1.45-3.01-2.87-5.95-5.5-9.31-2.61-3.34-5.29-5.66-7.21-7.13Z"/>
    <path class="cls-25" d="M1037.47,1327.58c1.08.74,2.58,1.77,4.37,2.98,0,0,5.93,4,11.48,7.54,4.59,2.93,12.82,8.18,22.07,13.15,9.17,4.93,16.64,8.04,31.59,14.26,8.92,3.71,16.36,6.62,21.46,8.58-.81,1.64-1.96,3.59-3.61,5.59-.9,1.09-1.81,2.02-2.67,2.81-16.01-6.51-32.02-13.03-48.03-19.54.41-2.64-.66-5.28-2.79-6.86-3.02-2.24-6.53-1.12-6.81-1.03-10.25-6.91-20.49-13.83-30.74-20.74,1.23-2.25,2.46-4.49,3.69-6.74Z"/>
    <path class="cls-25" d="M953.95,1375.62c-.04-.28,2.05.06,3.99-1.26.46-.32,2.75-1.98,3.26-5.28.63-4.07-1.78-8.48-4.11-12.72-1.34-2.45-2.69-4.35-2.59-4.47.1-.11,1.31,1.35,2.34,2.91.3.44,1.32,2.02,2.66,5.07,1.36,3.1,2.07,4.71,2.41,7.05.21,1.46.44,3.07-.05,4.79-.93,3.26-3.67,4.04-4.23,4.19-1.84.52-3.66-.01-3.69-.27Z"/>
    <path class="cls-25" d="M987,1367.17c-.14-.25-1.62,1.23-3.99,1.28-.56.01-3.41-.01-5.8-2.39-2.95-2.93-3.64-7.88-4.31-12.66-.39-2.76-.44-5.08-.59-5.11-.14-.03-.25,1.85-.15,3.71.03.53.14,2.39.89,5.63.76,3.29,1.15,5,2.28,7.09.71,1.3,1.48,2.74,2.91,3.84,2.71,2.1,5.39,1.14,5.94.95,1.8-.64,2.95-2.12,2.83-2.35Z"/>
    <path class="cls-25" d="M1094.88,1304.52c.48,3.81.93,7.32,1.33,10.47,1.23,9.63,1.86,14.47,2.18,15.71,1.61,6.14,3.45,8.7,2.06,10.12-1.21,1.24-4.09.78-8.25.12-.42-.07-3.18-.51-3.15-.83.02-.28,2.04-.59,4.12-.36,2.15.24,3.05.92,4.73.48.48-.13,1.21-.33,1.58-.95.5-.85,0-1.95-.29-2.69-.72-1.8-.77-3.8-1.39-5.64-.76-2.25-1.15-6.23-1.91-14.09-.31-3.26-.68-7.44-1.02-12.34Z"/>
    <path class="cls-25" d="M1110.44,1311.51c.19,2.84.32,6.89,0,11.76-.33,5.02-1.01,8.91-.87,8.93.13.02.94-3.36,1.35-7,.64-5.77.09-10.54-.48-13.69Z"/>
    <path class="cls-13" d="M958.11,1370.77c1.65-1.4,5.45-4.24,11.17-5.35,5.48-1.06,9.92.02,11.99.67"/>
    <path class="cls-13" d="M957.56,1365.56c1.36-1.2,4.36-3.49,8.86-4.41,6.11-1.26,10.98.85,12.53,1.6"/>
    <path class="cls-13" d="M956.47,1361.01c.89-1.18,2.97-3.61,6.54-4.95,6.13-2.3,11.64.47,12.53.94"/>
    <path class="cls-13" d="M953.88,1355.39c1.46-1.16,3.4-2.42,5.86-3.34,7.88-2.97,15.23-.4,17.57.53"/>
    <path class="cls-13" d="M948.98,1350.85c2.72-1.31,6.55-2.8,11.31-3.61,6.34-1.08,11.67-.51,15.12.13"/>
    <path class="cls-13" d="M1095.57,1336.54c1.78-.64,5.09-1.55,9.13-.94,1.87.28,3.43.82,4.63,1.35"/>
    <path class="cls-13" d="M1096.39,1329.86c2-.24,4.14-.43,6.4-.53,2.75-.13,5.33-.13,7.72-.05"/>
    <path class="cls-13" d="M1094.99,1325.74c1.01-.85,3.11-2.37,6.17-2.92,5.26-.96,9.32,1.66,10.19,2.26"/>
    <path class="cls-13" d="M1094.83,1320.5c1.49-.77,3.91-1.79,7.06-2.1,4.59-.46,8.18.84,9.88,1.59"/>
    <path class="cls-13" d="M1093.84,1314.86c1.65-.74,4.79-1.88,8.84-1.74,5.28.17,9.03,2.41,10.56,3.44"/>
    <path class="cls-6" d="M1283.49,814.93c3.86,2.73,5.88,5.67,6.93,7.54,1.53,2.72,1.43,3.97,1.31,4.59-.55,2.88-3.89,4.35-4.87,4.78-5.46,2.39-11.25-.55-12.4-1.17"/>
    <path class="cls-10" d="M1126.12,614.66c-.7,3.24-1.67,7.89-2.7,13.51-2.15,11.73-3.22,20.34-4.25,28.48-1.2,9.49-2.78,21.94-5.03,39.31"/>
    <path class="cls-21" d="M1101.61,721.36c9.76,1.64,19.53,3.28,29.29,4.93,2.44,5.97,4.83,13.4,6.25,22.1,2.28,13.93,1.23,25.85-.31,34.34-4.71.96-11.08,1.81-18.61,1.55-6.95-.25-12.81-1.37-17.24-2.53.2-20.13.41-40.26.61-60.38Z"/>
    <path class="cls-14" d="M1035.57,531.6c-8.1-14.52-7.65-26.11-7.09-31.01.61-5.41,2.21-10.18,4.51-17.08,2.64-7.9,4.02-11.91,7.09-15.19,3.67-3.91,7.3-4.55,18.05-7.59,11.43-3.24,22.77-6.79,34.17-10.12,10.29-3,15.86-4.73,21.28-1.9,1.2.63,3.13,1.87,6.45,6.33,6.92,9.3,9.37,18.51,9.67,19.62,2.09,7.7,7.3,19.07,21.28,34.8,3.62-1.04,15.57-3.99,27.72,1.9,4.68,2.27,8.05,5.2,10.32,7.59-6.95,1.97-12.61,4.03-16.76,5.69-8.86,3.55-7.24,3.79-14.18,6.33-6.46,2.36-9.03,2.58-10.32,5.06-1.74,3.35.44,7.74,1.93,10.76,2.9,5.85,6.11,6.77,7.74,12.02.88,2.85.81,5.39.64,6.96-2.58,1.05-5.16,2.11-7.74,3.16v13.29c-5.36.84-6.9,2.06-7.09,3.16-.33,1.86,3.23,3.03,3.22,5.69,0,2.41-2.91,2.7-4.51,5.69-2.66,4.97,2.61,9.33,0,13.29,0,0-.54.82-8.38,4.43-1.28-.82-2.72-.77-3.45-.04-.39.4-.72,1.13-.46,1.69.33.73,1.38.65,2.53,1.13,1.28.54,1.94,1.46,2.99,2.94,2.19,3.08,1.4,4.15,3.34,7.12,1.33,2.04,1.85,1.76,3.45,4.07,1.8,2.59,2.51,4.91,2.76,5.65,2.04,5.9,10.5,12.95,12.54,14.68,11.1,9.39,20.53,20.38,23.59,23.95,7.2,8.39,12.33,16.37,18.87,26.54,6.25,9.73,8.92,14.95,16,20.9,3.47,2.92,4.83,3.34,11.1,8.43,2.75,2.23,6.23,5.18,14.07,12.61,9.97,9.45,14.96,14.17,17.74,17.41,9.84,11.45,11.82,18.08,22.02,24.01,2.52,1.47,4.73,2.42,6.17,2.98-.35,3.2-1.06,6.23-2.52,6.5-.56.1-1.13-.21-1.1-.31.08-.37,8.44.95,36.74,6.5.53.83,1.2,2.09,1.58,3.71,1.04,4.42-.86,8.22-1.89,10.52-4.34,9.71-1.16,11.3-4.73,16.71-2.78,4.22-6.16,6.27-7.1,6.81-1.96,1.13-7.53,4.35-11.83,2.32-3.82-1.8-2.69-5.89-6.78-8.05-3.48-1.84-5.9.29-10.25-.62-2.91-.61-6.81-2.6-10.72-8.98-15.09-5.21-30.17-10.42-45.26-15.63-2.34,10.08-4.51,18.47-6.15,24.61-10.53,39.29-13.07,35.93-14.51,45.96-.21,1.43-.68,5.18-3.47,8.51-1.64,1.96-4.3,4.03-9.3,5.42-9.18,2.54-17.64.38-21.13-.46-2.45-.59-16.04-2.15-43.21-5.26-6.36-.73-16.09-1.7-28.23-2.32-2.26,7.27-4.52,14.55-6.78,21.82,1.13.02,2.71.21,4.26,1.08,2.89,1.64,3.81,4.66,4.57,6.35.52,1.15,1.89,3.75,11.67,9.75,10.18,6.25,18.18,9.25,23.02,11.76,13.42,6.96,19.77,19.05,31.38,41.17,9.53,18.15,6.28,18.96,13.09,26.93,6.23,7.29,14.06,12.57,20.81,25.23.94,1.76,2.15,4.05,3.31,7.27,3.98,11.07,2.87,20.62,2.37,25.23-3.36,30.85.19,29.38-4.89,59.12-3.26,19.08-3.61,13.17-10.56,47.51-3.49,17.24-4.88,26.01-9.62,40.08-2.91,8.65-2.41,5.39-9.62,24.61-5.2,13.86-7.22,20.24-13.09,27.86-1.48,1.92-.51.37-10.72,10.83-11.51,11.78-13.78,14.7-15.64,17.48-2.24,3.34-5.15,8.39-7.51,15.26-2.15-.63-4.31-1.26-6.46-1.89.5,6.18-.35,10.89-1.22,14.06-.67,2.42-2.78,9.14-5.07,16.63-.86,2.83-1.47,4.93-.35,6.51,1.47,2.07,4.52,1.29,8.21,2.4,5.6,1.68,8.74,6.52,9.96,8.4,6.74,10.4.98,22.85.35,24.17-1.93,4-4.49,6.75-6.29,8.4-5.45-2.36-10.98-4.7-16.59-7.03-10.63-4.41-21.12-8.57-31.44-12.51.41-2.64-.66-5.28-2.79-6.86-3.02-2.24-6.53-1.12-6.81-1.03-10.25-6.91-20.49-13.83-30.74-20.74,6.29-11.48,12.58-22.97,18.86-34.45,2.11-.91,4.42-2.08,6.81-3.6,6.09-3.88,10.17-8.47,12.75-12-6.93-3.83-13.86-7.66-20.78-11.48.31-1.22.81-3.02,1.57-5.14,3.16-8.85,7.39-13.84,10.48-18.51,3.25-4.92,5.2-10.31,9.08-21.08,3.63-10.08,5.97-16.54,6.99-25.71.84-7.56.87-14.91.87-14.91.03-7.05-.5-11.03,1.22-16.8,1.16-3.87,2.7-6.42,3.32-7.54,6.73-12.15,3.82-32.97,4.02-45.43.16-10.1,2.52-24.33,12.58-41.65-8.98-7.76-13.91-15.05-16.77-20.4-1.74-3.25-2.64-5.65-5.41-8.4-5.94-5.9-13.18-6.21-18.69-7.71-6.71-1.83-15.59-6.74-24.45-20.57-1.39,2.48-3.31,6.41-4.54,11.48-2.09,8.62-.96,15.47-.52,19.03,2.08,16.86-4.09,18.61-6.11,51.42-.68,10.99.09,9.57-.7,21.77-1.1,16.94-2.78,22.75-3.67,35.65-1.02,14.8.19,21.54.35,32.05.33,21.43-4.11,37.03-10.3,59.82-4.59,16.89-12.02,39.07-24.45,63.94.84,1.82,1.66,3.71,2.45,5.66,3.41,8.4,5.67,16.45,7.16,23.83-5.01-.4-10.01-.8-15.02-1.2-.2,1.48-.33,3.75.35,6.34,1.18,4.51,4.1,7.38,7.68,10.8,5.38,5.14,8.43,5.85,10.48,10.46.5,1.12.63,1.78,1.4,2.91,2.31,3.39,5.33,3.62,8.21,5.49,4.38,2.84,6.73,8.38,6.81,13.03.09,4.91-2.36,8.61-3.67,10.28-5.68,2-12.29,3.86-19.74,5.14-17.99,3.1-33.49,1.57-44.36-.51-3.17-1.83-7.72-4.97-11.53-10.11-5.54-7.49-5.78-14.18-8.21-22.11-1.98-6.48-5.98-15.6-15.02-25.71-2.85-.17-5.71-.34-8.56-.51-2.14-3.34-4.93-8.38-6.99-14.91-2.63-8.35-6.29-19.97-1.22-29.65,4.92-9.39,13.51-8.31,16.42-17.83.62-2.02.13-6.57-.87-15.6-1.5-13.49-2.24-20.24-2.97-22.97-2.12-8-4.54-11.95-2.62-17.48,1.11-3.21,2.36-3.12,3.32-6.34,1.87-6.28-2.07-9.28-2.62-16.46-.6-7.76,3.75-7.64,5.24-19.2,1.11-8.6-1.14-9.92.87-16.28,2.22-7.02,5.28-6.47,7.16-12.68,2.25-7.44-1.75-9.48-1.22-20.91.39-8.59,2.7-8.47,2.79-16.63.09-7.68-1.94-9.1-3.14-18.68-1.64-13.09,1.83-13-.17-20.57-3.28-12.35-12.71-13.28-13.45-23.83-.46-6.63,3.16-7.76,2.97-15.26-.23-8.96-5.61-15.2-8.56-19.2-16.82-22.78-15.87-55.65-15.72-59.48.5-12.61,3.73-18.37,2.62-35.65-.65-10.22-1.89-9.89-1.4-15.94.68-8.33,4.1-22.29,13.1-35.48,2.83-4.15,5.41-7.05,4.89-11.14-.55-4.35-4.11-6.25-8.73-11.48-5.93-6.73-6.72-11.15-9.61-15.6-3.95-6.08-12.36-13.03-32.14-16.28,2.08-1.36,5.27-3.19,9.43-4.63,7.86-2.71,11.82-1.45,16.94-4.11,4.92-2.55,6.78-6.57,9.26-10.46,9.63-15.13,18.61-12.8,30.22-27.08,8.26-10.16,11.32-20.69,13.97-29.83,3.87-13.33,2.37-18.07,6.46-30.34,3.69-11.06,8.95-19.32,12.75-24.51-.27-3.81-.2-9.81,2.1-16.63,3.46-10.28,10.01-16.61,13.27-19.37-1.63-6.27-2.65-14.61,1.92-20.4,2.75-3.48,6.32-4.51,9.26-5.66,13.99-5.48,22.35-17.21,34.41-34.11,3.73-5.24,8.36-12.45,12.75-21.6,3.84.23,7.68.46,11.53.69-1.4-1.03-4.18-3.37-5.94-7.37-2.24-5.1-1.42-9.69-1.05-11.31-8.5-.57-17-1.14-25.5-1.71-.17-1.51-.19-3.81.87-6.17,1.81-4.04,5.7-5.85,9.08-7.37,5.94-2.67,13.03-5.66,21.17-8.73Z"/>
  </g>
</svg>