<?xml version="1.0" encoding="UTF-8"?>
<svg id="Lager_1" data-name="Lager 1" xmlns="http://www.w3.org/2000/svg" viewBox="0 0 2048 1536">
  <defs>
    <style>
      .cls-1 {
        fill: #966545;
      }

      .cls-2 {
        fill: #eaeaea;
        opacity: .23;
      }

      .cls-3 {
        stroke-width: 2.49px;
      }

      .cls-3, .cls-4, .cls-5, .cls-6, .cls-7, .cls-8, .cls-9, .cls-10, .cls-11, .cls-12, .cls-13, .cls-14, .cls-15 {
        stroke-miterlimit: 10;
      }

      .cls-3, .cls-4, .cls-5, .cls-6, .cls-10, .cls-11, .cls-13, .cls-14, .cls-15 {
        stroke: #1d1e1c;
      }

      .cls-3, .cls-14, .cls-15 {
        fill: #d7d7d7;
      }

      .cls-16 {
        fill: #321e15;
      }

      .cls-4 {
        stroke-width: 5.66px;
      }

      .cls-4, .cls-5, .cls-6, .cls-10, .cls-13 {
        fill: none;
      }

      .cls-5 {
        stroke-width: 3.4px;
      }

      .cls-6 {
        stroke-width: 2.56px;
      }

      .cls-17 {
        fill: #564940;
      }

      .cls-18 {
        fill: #6e4f35;
      }

      .cls-19 {
        fill: #7dc0d9;
      }

      .cls-20 {
        fill: #5b412b;
      }

      .cls-21, .cls-11 {
        fill: #6a4130;
      }

      .cls-22 {
        fill: #1d1e1c;
      }

      .cls-23 {
        fill: #37a4dd;
      }

      .cls-7 {
        stroke-width: .18px;
      }

      .cls-7, .cls-8, .cls-9 {
        fill: #56772d;
      }

      .cls-7, .cls-8, .cls-9, .cls-12 {
        stroke: #fff;
      }

      .cls-8 {
        stroke-width: .23px;
      }

      .cls-9 {
        stroke-width: .25px;
      }

      .cls-24 {
        fill: #15693e;
      }

      .cls-10 {
        stroke-width: 1.71px;
      }

      .cls-25 {
        fill: #f2f4e2;
      }

      .cls-11 {
        stroke-width: .43px;
      }

      .cls-26 {
        fill: #4f3227;
      }

      .cls-27 {
        fill: #b88160;
      }

      .cls-28 {
        fill: #a77759;
      }

      .cls-29 {
        fill: #5bb8e8;
      }

      .cls-12 {
        fill: #ebe7d1;
        stroke-width: 2.71px;
      }

      .cls-30 {
        fill: #805a3d;
      }

      .cls-31 {
        fill: #d59470;
      }

      .cls-13 {
        stroke-width: 1.89px;
      }

      .cls-32 {
        fill: #caccbc;
      }

      .cls-14 {
        stroke-width: 2.06px;
      }

      .cls-33 {
        fill: #4f3225;
      }

      .cls-15 {
        stroke-width: 1.87px;
      }
    </style>
  </defs>
  <rect class="cls-19" x="-16.1" y="-23.26" width="2090.83" height="1576.05"/>
  <path class="cls-25" d="M1872.03,1541.51c-7.4-14.87-14.75-30.04-22.03-45.52-17.35-36.88-33.15-73.03-47.57-108.28-2.96-2.24-6.7-5.83-8.6-11.13-2.66-7.4-.39-14.33.5-17.54,2.03-7.33.72-18.38-1.91-40.48-2.94-24.77-12.96-43.72-28.04-72.29-6.35-12.02-15.72-28.41-28.73-47.03-.48-6.74-2.18-18.49-8.95-31.29-6.65-12.56-15.19-20.5-20.44-24.69-3.8-9.57-10.57-23.6-22.64-37.73-11.76-13.77-23.64-21.89-33.17-27.94-31.94-20.3-64.03-34.36-114.22-53.75-34.83-13.46-52.25-20.19-63.64-22.84-39.02-9.07-72.75-7.78-95.24-5.2-2.59,10.14-5.18,20.27-7.78,30.41-.27,4.18-.66,10.64-1.02,18.55-1.29,28.07-.21,29.93-1.42,41.65-2.18,21.18-7.95,36.92-10.21,42.69-1.11,2.82-5.49,13.77-13.55,26.83-11.9,19.29-17.94,20.72-25.48,37.55-3.08,6.86-3.65,10.15-7.74,15.04-5.43,6.48-9.67,6.95-17.41,15.48-3.29,3.63-5.63,6.2-7.62,10.37-4.04,8.48-3.49,16.93-3.11,21.9.83,10.9,4.19,13.89,1.52,19.26-.45.91-.37.47-6.54,8.18-4.97,6.22-5.63,7.27-6.19,8.62-1.92,4.65-1,8.95-.45,12.15,0,0,2.37,13.87.49,30.76-.67,6-1.51,13.64-6.13,21.87-1.37,2.45-5.41,7.36-13.48,17.2-5.05,6.15-7.66,9.12-10.25,14.41-2.29,4.68-3.31,8.62-3.9,11.02-4.41,18.16-6.34,40.84-6.51,42.83-1.55,18.11-3.01,18.16-5.22,37.25-1.82,15.72-3.47,38.37-2.18,66.9,49-.39,97.99-.79,146.99-1.18,108.53-.87,217.06-1.74,325.59-2.61,58.76-.47,117.52-.94,176.28-1.42Z"/>
  <path class="cls-25" d="M470.34,1552.77c1.69-8.23,4.53-19.49,9.5-32.35,5.06-13.09,12.9-32.86,29.75-51.78,9.1-10.22,8.77-6.65,31.14-27.81,12.26-11.6,20.24-19.14,29.08-30.14,6.57-8.17,7.51-10.66,23.6-36.35,14.45-23.08,21.68-34.62,29.67-45.98,19.68-27.95,19.92-22.52,29.19-38.57,10.4-18.02,11.49-27.27,26.48-51.15,6.77-10.78,10.58-15.32,13.93-18.83,10.51-10.99,18.42-13.78,29.97-21.79,11.21-7.77,10-9.46,31.69-30.19,12.95-12.38,24.8-23.7,41.16-35.97,14.78-11.1,26.6-19.97,44.53-27.49,8.94-3.75,11.24-3.74,42.96-12.97,26.81-7.8,26.33-8.14,39.21-11.75,21.61-6.05,41.6-9.83,80.7-17.14,14.24-2.66,33.58-6.18,56.7-10.11,1.66.95,3.32,1.9,4.98,2.86,12.07,17.73,24.15,35.46,36.22,53.19-.92,4.17-2,10-2.65,17.02-1.62,17.62.47,32.49,2.65,42.52,2.94,13.49,4.63,11.63,8.89,28.47,1.54,6.06,4.62,18.47,5.87,34.4,1.54,19.66-1.49,22.13,1.15,39.31,1.41,9.16,2.53,16.09,6.71,24.37,4.41,8.74,13.64,18.96,15.52,21.12.56.64.43.48,1.63,1.85,7.86,8.94,11.97,13.3,14.07,16.9,3.6,6.16,5.4,11.85,6.35,15.65,3.9,29.07,7.85,58.14,11.85,87.21,5.03,36.6,10.14,73.19,15.31,109.76-2.26.02-60.55.51-62.82.53-186.58,1.56-468.42,3.82-655,5.24Z"/>
  <path class="cls-31" d="M1367.51,1032.09c-1.34,11.69.7,15.61,1.32,28.79.95,20.24-2.71,36-4.96,45.38-2.67,11.15-6.66,27.21-17.41,44.65-6.9,11.19-9.21,10.99-16.97,24.45-1.71,2.96-7.79,13.74-15.41,27.05-2.5,4.36-4.64,8.05-8.65,12.08-5.59,5.61-8.13,5.19-12.7,9.52-9.2,8.73-10.36,21.38-10.42,22.12-.56,7.26,1.96,8.88,1.89,22.48-.02,4.07-.27,7.35-2.24,10.59-2.55,4.2-5.16,3.64-8.09,7.28-3.38,4.19-3.41,9.29-3.34,19.31.05,7.23.77,8.43,1.03,14.74.17,4.16.54,12.84-1.82,22.44-3.07,12.54-9.44,21.23-13.3,26.4-6.06,8.11-8.07,7.89-12.31,13.92-4.13,5.87-8.78,15.36-9.48,30.6-2.24,12.41-5.17,30.22-7.7,52-.77,6.61-1.61,13.88-2.29,22.64-1.11,14.29-1.93,34.39-.54,59.05-12.1.06-24.2.11-36.29.17-2.31-12.72-5.35-30.78-8.26-52.63-.53-3.99-1.11-8.52-6.13-52.84-2.06-18.18-5.5-36.22-6.49-54.49-.42-7.7-.92-21.28-5.98-37.76-3.05-9.91-5.89-14.86-7.28-17.12-4.76-7.71-7.73-8.66-16.69-19.32-6.55-7.8-10.23-12.18-13.61-19.07-4.83-9.86-6-18.65-6.71-24.37-1.25-10.05-.02-13.35.03-24.43.09-18.05-3.05-32.07-4.7-39.2-3.98-17.26-6.47-15.19-11.05-34.26-4.99-20.78-4.45-33.36-4.3-36.29.53-10.13,2.48-18.37,4.13-23.91-5.14-11.13-11.93-23.72-20.95-36.87-6.03-8.79-12.14-16.5-17.99-23.19-.91-12.42-2.76-26.58-6.21-41.97-4.66-20.79-11.04-38.51-17.31-52.82-1.58-6.17-3.89-15.92-5.94-28.02-4.63-27.41-2.2-33.16-6.58-59.57-4.5-27.13-7.53-39.7-7.53-39.7-3.21-13.31-5.77-20.98-2.47-30.46,3.09-8.87,9.57-14.35,13.23-17.44,2.33-1.97,10.33-8.38,24.52-11.69,13.62-3.17,24.04-1.42,33.46-.33,14.84,1.72,30.07,1.18,60.54.12,15.76-.55,29.34-2.05,56.5-5.06,28.35-3.14,57.25-6.92,57.25-6.92,17.07-2.23,26.57-3.62,41.44-4.08,12.29-.38,21.26-.61,33.2,1.29,19.14,3.04,32.97,9.49,38.29,12.15,16.35,8.16,27.19,17.92,32.34,22.96,3.93,3.85,12.15,12.41,19.93,25.27,3.9,6.44,11.12,18.6,14.86,35.47,4.8,21.66,1.15,38.84-3.19,59.2-.83,3.88-3.97,18.07-12.04,34.69-6.29,12.95-10.25,16.41-12.68,18.18-11,7.97-24.75,5.86-29.91,4.79-2.44,14.74-5.54,26.45-7.95,34.5-4.22,14.1-6.88,18.77-8.12,29.54Z"/>
  <path class="cls-30" d="M867.93,758.77c6.09,1.35,14.03,2.99,23.37,4.59,5.84,1,24.4,4.08,47.61,5.82,32.3,2.43,58.29,1.13,87.18-.41,28.81-1.53,50.53-3.83,66.44-5.53,16.14-1.73,28.12-3.28,78.21-10.39,47.11-6.69,85.65-12.3,101.17-14.56,17.56-2.55,62.59-9.09,80.45-11.68-2.08-23.33-4.97-47.92-8.9-73.6-4.74-31.05-10.46-60.17-16.7-87.21-1.91-5.74-5.64-14.4-13.17-22.53-5.2-5.61-13.52-12.39-32.37-18.51-9.13-2.96-25.74-7.39-65.55-7.51-19.47-.06-33.69-.1-53.54,2.51-32.57,4.28-55.34,12.42-74.88,19.4-16.67,5.96-28.34,11.27-40.32,20-13.05,9.51-18.53,17.29-20.25,19.83-7.86,11.68-10.35,23.26-11.25,30.09-1.01,21.08-1.31,43.81-.54,67.99.83,25.68,2.76,49.66,5.35,71.74-5.61,1.74-13.89,4.05-24.09,5.89-16.45,2.97-29.86,3.27-53.54,2.68-16.92-.42-38.09-1.27-62.64-3.02-4.01,1.47-8.03,2.93-12.04,4.4Z"/>
  <path class="cls-20" d="M1034.26,955.72c-13.02-4.82-29.51-12.1-47.34-23.18-18.98-11.8-32.08-23.31-37.76-28.51-19.34-17.71-31.03-34.03-37.9-43.72-12.25-17.31-20-32.15-23.77-39.82-6.97-14.14-14.69-32.73-20.57-55.36.34-2.12.68-4.24,1.02-6.36,5.46,1.21,13.18,2.82,22.48,4.44,6.04,1.05,30.21,5.12,61,6.72,42.07,2.19,80.46-1.08,111.25-3.8,28.62-2.52,51.54-5.6,97.38-11.76,34.51-4.64,56.45-7.58,87.25-12.52,46.94-7.52,66.48-11.98,105.07-15.24,20.83-1.76,35.67-2.2,51.3-1.62,5.95.22,29.06,1.22,58.9,7.09,26.96,5.3,37.71,10.32,41.45,12.15,9.32,4.55,19.04,9.3,28.16,19.71,14.41,16.45,16.76,34.99,17.39,40.56.55,4.87,1.63,15.3-2.07,27.75-2.81,9.49-7.08,15.69-14.18,26.04-5.98,8.71-11.42,14.84-17.61,21.83-7.08,7.99-10.62,11.99-15.72,16.6-6.68,6.04-19.32,17.25-38.8,23.78-6.44,2.16-16.11,4.64-28.38,5,1.58-3.9,3.47-9.11,5.17-15.38,2.37-8.75,4.49-20.1,4.68-33.27.12-8.19.21-22.17-5.2-38.99-1.21-3.77-6.82-20.5-21.31-37.95-3.71-4.46-21.16-24.82-51.98-36.91-22.13-8.68-41.09-9.14-54.58-9.36-5.54-.09-11.24.07-37.95,3.12-34.69,3.95-42.25,5.66-65.5,8.32-26.63,3.04-43.3,4.94-66.53,5.2-33.92.37-50.88.56-58.74,0-9.03-.64-22.18-1.88-37.43,3.64-12.28,4.45-17.9,10.38-19.75,12.48-2.59,2.93-8.93,10.99-9.88,22.35-.52,6.24.88,10.05,3.12,18.19,0,0,3.37,12.26,7.94,36.88,2.21,11.92,2.12,17.36,3.49,35.37,1.01,13.31,2.76,32.59,5.91,56.52Z"/>
  <path class="cls-17" d="M1020.51,745.92c-1.9-23.92-3.8-47.85-5.7-71.77,10.46.07,26.43.07,45.87-.39,58.66-1.39,101.2-5.86,133.27-8.95,34.78-3.35,85.49-7.78,149.52-11.78,2.97,24.53,5.93,49.06,8.9,73.6-10.7,2.03-26.56,4.7-45.93,6.67-22.17,2.25-37.39,2.41-57.36,2.97-20.73.58-3.7.39-79.93,3.57-50.41,2.11-63.03,2.44-110.49,4.44-16.3.69-29.62,1.27-38.14,1.65Z"/>
  <path class="cls-18" d="M1214.5,554.64c5.27-2.42,6.58-.85,22.05-1.79,19.04-1.16,22.45-3.86,30.44-1.09,7.46,2.59,11.95,7.54,14.74,10.6,11.63,12.8,12.39,28.68,12.9,39.19.55,11.46.96,19.95-4.71,27.44-4.94,6.53-11.74,8.64-20.58,11.38-10.55,3.28-20.98,3.12-41.41,2.67-15.67-.34-17.75-1.21-19.63-2.57-3.34-2.41-5.93-6.28-9.64-33.21-3.32-24.11-2.29-28.58-1.2-31.81.81-2.39,5.2-15.37,17.04-20.81Z"/>
  <path class="cls-18" d="M1132.79,563.5c-5.63-1.38-6.63.4-22,2.39-18.92,2.45-22.78.43-30.1,4.66-6.84,3.94-10.32,9.65-12.48,13.18-9.01,14.75-6.78,30.5-5.3,40.91,1.61,11.36,2.81,19.78,9.78,26.06,6.08,5.48,13.15,6.28,22.35,7.31,10.98,1.23,21.19-.88,41.17-5.16,15.33-3.28,17.21-4.53,18.8-6.21,2.83-2.99,4.64-7.28,3.22-34.43-1.27-24.31-3.12-28.5-4.81-31.47-1.25-2.2-8-14.12-20.65-17.23Z"/>
  <path class="cls-1" d="M1291.25,754.68c14.73,10.14,24.79,20.67,31.1,28.21,5.56,6.64,29.15,35.97,35.3,81.45,2.17,16.08,1.37,28.28.68,38.01-2,28.13-4.41,61.96-27.83,84.85-9.18,8.97-19.61,14.33-36.65,23.08-14.53,7.46-21.8,11.19-30.54,12.22-16.01,1.88-20.85-5.18-50.91-13.58-22.45-6.27-33.67-9.41-46.16-7.47-7.37,1.15-25.14,5.21-44.12,14.93-6.47,3.32-8.81,5.1-13.58,5.43-13.9.96-25.23-12.09-33.94-22.4-15.23-18.02-21.72-35.94-25.79-47.51-2.96-8.42-8.01-23.08-9.5-42.76-1.18-15.55,1.25-15.99,1.36-41.41.04-8.2-.43-19.95-1.36-43.44-.52-13.06-1.02-23.51,2.04-37.33,1.33-6.01,2.93-10.87,4.16-14.21-3.7,1.14-9.26,3.34-14.96,7.67-3.13,2.38-11.35,8.64-14.7,19.05-.69,2.15-1.86,6.6.77,23.36,2.2,14.03,4.44,19.99,6.99,32.25,1.62,7.79,2.46,14.51,4.13,27.96,4.28,34.38,2.5,40.48,7.32,59.99.73,2.94,2.76,9.51,6.84,22.64,7.36,23.72,9.78,29.39,12.47,38.78,3.16,11.03,6.64,26.98,7.52,47.55,3.78,5.34,9.18,13,15.65,22.28,10.71,15.35,16.11,23.11,18.46,27.11,7.73,13.13,7.66,16.34,17.53,33.18,5,8.53,7.5,12.79,10.13,15.85,11.67,13.58,27.93,17.66,37.27,19.87,44.11,10.47,88.8-9.61,96.64-13.25,31.33-14.57,50.28-34.46,61.91-46.9,8.79-9.41,29.51-33.18,44.87-69.94,12.16-29.12,16.32-55.27,17.76-73.45.42-30.85-.73-54.09-1.99-70.56-.74-9.69-1.88-21.64,4-34.84,2.24-5.03,7.88-17.69,19.99-23.99,3.5-1.82,7.45-3.06,18.85-8.57,3.54-1.71,6.44-3.17,8.39-4.17-3.37-7.34-8.88-17.37-17.73-27.62-18.39-21.3-39.55-30.02-49.44-33.97-30.89-12.33-58.75-10.38-72.9-8.34Z"/>
  <path class="cls-27" d="M1410.12,936.45c-.69-.28,1.64-6.94,7.73-29.51,3.79-14.05,6.81-26.01,3.53-37.2-.57-1.96-2.68-9.15-7.14-10.02-2.5-.48-4.47,1.27-5.55.25-1.37-1.29.13-5.62,2.4-8.45,2.38-2.98,7.18-6.25,11.36-5.02,1.59.47,5.06,2.17,7.49,12.33,3.18,13.27,1.27,27.08-4.89,45.14-5.98,17.56-13.85,32.91-14.93,32.47Z"/>
  <ellipse class="cls-27" cx="1404.79" cy="899.86" rx="25.7" ry="3.5" transform="translate(243.59 2097.69) rotate(-78.53)"/>
  <path class="cls-28" d="M1151.4,795.88c1.47,6.14,3.24,15.07,4.2,26.14,1.12,12.93.61,22.86.17,31.63-.32,6.33-.9,17.1-3.19,30.58-2.47,14.58-5.85,25.9-7.89,32.67-2.98,9.89-5.43,20.15-8.4,30.06-1.39,4.66-2.84,9.33-1.85,14.38.76,3.85,2.06,3.49,6.89,11.5,2.9,4.82,4.33,8.1,8.4,14.11,1.45,2.15,2.29,3.24,3.53,4.18,1.01.77,3.04,2.02,7.89,1.57,4.57-.43,7.87-.73,11.25-3.92,2.82-2.66,2.25-4.08,6.38-9.93,4.11-5.81,6.43-9.1,9.74-9.67,4.42-.77,8.82,3.6,11.25,6.01,3.15,3.13,4.61,6.03,6.55,5.23,2.25-.93,2.91-5.9,4.03-5.49.78.28,1.29,2.98,1.01,5.23-.21,1.68-1.09,4.97-6.38,8.1-6.59,3.9-10.33,1.82-16.29,2.88-8.74,1.54-7.88,7.28-16.96,10.19-11.46,3.68-21.02-2.81-24.19-4.97-4.13-2.81-8.04-5.46-11.08-12.02-3.75-8.08-3.85-16.99-3.86-21.96-.03-11.13,2.31-17.47,4.53-27.44,3.73-16.74,1.05-15.99,4.53-38.16,2.85-18.13,4.7-20.92,5.54-34.5.58-9.36,0-12.9,0-22.22,0-10.42.72-25.47,4.2-44.17Z"/>
  <path class="cls-15" d="M1225.93,865.8c5.65-2.02,14.26-4.26,24.65-3.67,5.48.31,23.08,1.33,25.14,10.03,1.36,5.71-4.63,12.03-6.15,13.63-10.51,11.09-26.65,8.13-32.62,7.04-7.7-1.41-14.86-2.72-17-8.84-1.86-5.29.68-12.36,5.98-18.19Z"/>
  <path class="cls-24" d="M1247.06,870.16c4.2,3.49,4.95,9.83,1.69,14.18-3.27,4.34-9.32,5.04-13.51,1.55-4.2-3.49-4.95-9.83-1.69-14.18,3.27-4.34,9.32-5.04,13.51-1.55Z"/>
  <ellipse class="cls-22" cx="1238.14" cy="878.03" rx="3.27" ry="3" transform="translate(190.47 1976.35) rotate(-81.69)"/>
  <path class="cls-14" d="M1088.06,872.78c3.37-2.67,6.54-2.54,31.97-.45,10.96.9,16.48,1.41,18.3,4.16,2.83,4.28-.57,11.07-3.95,14.82-8.62,9.58-24.69,7.88-28.48,7.47-5.11-.54-19.73-2.09-22.79-11.11-1.7-5.02.49-11.37,4.94-14.9Z"/>
  <ellipse class="cls-24" cx="1106.8" cy="884.15" rx="11.44" ry="10.39" transform="translate(-59.8 80.55) rotate(-4.06)"/>
  <ellipse class="cls-22" cx="1103.59" cy="884.96" rx="3.64" ry="3.3" transform="translate(-59.86 80.32) rotate(-4.06)"/>
  <path class="cls-3" d="M1128.19,1049.71c1.78-4.04,13.08,6.67,44.42,4.99,12.82-.68,25.68-.35,38.51-.85,12.37-.48,23.04-11.1,26.65-6.78,3.7,4.43-1.01,22.57-4.64,27.52-2.74,3.73-6.9,4.89-11.43,5.93-18.37,4.21-31.74,4.23-31.74,4.23-24.47.04-36.82-.01-42.75-3.81-1.11-.71-8.1-4.07-11.67-11.76-1.43-3.07-8.6-16.66-7.35-19.48Z"/>
  <path class="cls-1" d="M1197.61,849.55c.98,3.17,19.2-1.22,30.12-2.05,16.78-1.27,21.1.41,34.19-1.42,15.13-2.11,22.55-6.8,22.8-8.23.22-1.24-8.1-3.92-14.72-5.45-5.22-1.21-15.84-3.57-29.03-2.15-23.22,2.5-44.49,15.66-43.36,19.3Z"/>
  <path class="cls-1" d="M1128.04,845.98c-.4,3.24-16.32.68-25.72,1.01-11.79.42-18.01.36-29.32-.13-13.06-.56-19.73-2.28-20.13-3.66-.35-1.2,6.31-4.7,11.7-6.89,4.25-1.72,12.9-5.14,24.24-5.07,19.96.13,39.7,11.01,39.24,14.73Z"/>
  <path class="cls-23" d="M1233.9,778.44c-.19.02.58,2.59-.69,4.82-.96,1.69-2.14,1.49-3.79,3.36-.56.63-2.69,3.05-2.15,5.34.67,2.84,5.33,4.89,8.61,3.44,1.58-.7,2.38-2.45,2.25-4.17-.12-1.57-.74-1.67-2.08-4.35-.49-.99-.73-2.01-1.21-4.05-.59-2.55-.78-4.4-.95-4.39Z"/>
  <ellipse class="cls-29" cx="1230.84" cy="789.43" rx="2.47" ry="1.02" transform="translate(14.7 1601.32) rotate(-66.4)"/>
  <path class="cls-23" d="M1187.03,802.76c-.19.02.58,2.59-.69,4.82-.96,1.69-2.14,1.49-3.79,3.36-.56.63-2.69,3.05-2.15,5.34.67,2.84,5.33,4.89,8.61,3.44,1.58-.7,2.38-2.45,2.25-4.17-.12-1.57-.74-1.67-2.08-4.35-.49-.99-.73-2.01-1.21-4.05-.59-2.55-.78-4.4-.95-4.39Z"/>
  <ellipse class="cls-29" cx="1183.98" cy="813.74" rx="2.47" ry="1.02" transform="translate(-35.68 1572.95) rotate(-66.4)"/>
  <path class="cls-23" d="M1068.59,787.16c-.19.02.58,2.59-.69,4.82-.96,1.69-2.14,1.49-3.79,3.36-.56.63-2.69,3.05-2.15,5.34.67,2.84,5.33,4.89,8.61,3.44,1.58-.7,2.38-2.45,2.25-4.17-.12-1.57-.74-1.67-2.08-4.35-.49-.99-.73-2.01-1.21-4.05-.59-2.55-.78-4.4-.95-4.39Z"/>
  <ellipse class="cls-29" cx="1065.53" cy="798.14" rx="2.47" ry="1.02" transform="translate(-92.42 1455.06) rotate(-66.4)"/>
  <path class="cls-23" d="M1252.01,963.73c-.19.02.58,2.59-.69,4.82-.96,1.69-2.14,1.49-3.79,3.36-.56.63-2.69,3.05-2.15,5.34.67,2.84,5.33,4.89,8.61,3.44,1.58-.7,2.38-2.45,2.25-4.17-.12-1.57-.74-1.67-2.08-4.35-.49-.99-.73-2.01-1.21-4.05-.59-2.55-.78-4.4-.95-4.39Z"/>
  <ellipse class="cls-29" cx="1248.96" cy="974.71" rx="2.47" ry="1.02" transform="translate(-144.23 1729.03) rotate(-66.4)"/>
  <path class="cls-23" d="M1307.63,1159.59c-.19.02.58,2.59-.69,4.82-.96,1.69-2.14,1.49-3.79,3.36-.56.63-2.69,3.05-2.15,5.34.67,2.84,5.33,4.89,8.61,3.44,1.58-.7,2.38-2.45,2.25-4.17-.12-1.57-.74-1.67-2.08-4.35-.49-.99-.73-2.01-1.21-4.05-.59-2.55-.78-4.4-.95-4.39Z"/>
  <ellipse class="cls-29" cx="1304.57" cy="1170.57" rx="2.47" ry="1.02" transform="translate(-290.36 1897.45) rotate(-66.4)"/>
  <path class="cls-23" d="M1196.47,1256.71c-.19.02.58,2.59-.69,4.82-.96,1.69-2.14,1.49-3.79,3.36-.56.63-2.69,3.05-2.15,5.34.67,2.84,5.33,4.89,8.61,3.44,1.58-.7,2.38-2.45,2.25-4.17-.12-1.57-.74-1.67-2.08-4.35-.49-.99-.73-2.01-1.21-4.05-.59-2.55-.78-4.4-.95-4.39Z"/>
  <ellipse class="cls-29" cx="1193.42" cy="1267.69" rx="2.47" ry="1.02" transform="translate(-446.01 1853.83) rotate(-66.4)"/>
  <path class="cls-23" d="M1104.83,1005.4c-.19.02.58,2.59-.69,4.82-.96,1.69-2.14,1.49-3.79,3.36-.56.63-2.69,3.05-2.15,5.34.67,2.84,5.33,4.89,8.61,3.44,1.58-.7,2.38-2.45,2.25-4.17-.12-1.57-.74-1.67-2.08-4.35-.49-.99-.73-2.01-1.21-4.05-.59-2.55-.78-4.4-.95-4.39Z"/>
  <ellipse class="cls-29" cx="1101.78" cy="1016.39" rx="2.47" ry="1.02" transform="translate(-270.68 1619.15) rotate(-66.4)"/>
  <path class="cls-32" d="M1314.63,1208.17c5.78-1.57,12.16,4.34,13.77,5.83,1.27,1.18,5.84,5.52,6.88,12.18,1.2,7.65-3.31,11.57-6.35,20.65-.27.81-4.3,13.24-1.59,25.42,3.18,14.3,14.52,23.17,27.54,33.36,7.76,6.07,14.8,10.17,19.59,12.71-.75,2.02-2.38,5.45-5.83,7.41-6.85,3.91-16.8-.33-22.24-5.83-5.27-5.32-3.12-8.61-8.47-13.24-4.4-3.81-9.59-4.82-17.48-6.35-10.06-1.96-14.4-.84-15.89-3.71-1.66-3.2,3.12-5.79,2.65-12.18-.41-5.58-4.27-6.65-5.83-13.24-1-4.25-.22-7.28.53-11.65,2.77-16.13-.59-17.19,2.12-30.19,1.87-8.99,4.04-19.4,10.59-21.18Z"/>
  <path class="cls-32" d="M1381.91,1316.17c-.23,0-1.39-20.96-.45-48.16.89-25.73,2.65-28.13,4.05-54.46,2.16-40.51-1.91-36.79.9-64.81,2.49-24.85,3.31-35.62,4.95-57.16.41-5.42,1.08-15.4-2.7-27-2.98-9.15-7.5-15.58-7.2-15.75.33-.19,6.44,6.99,9.91,17.12,1.78,5.19,2.93,11.36,1.88,29.81-.55,9.76-1.18,13.38-3.14,31.54-1.81,16.79-2.72,25.34-2.98,32.79-.46,13.12.67,11.17.63,29.18-.04,18.28-1.23,34.46-1.88,43.15-.43,5.71-.61,7.11-1.26,15.85-.72,9.75-1.37,19.68-1.73,26.36-1.33,24.59-.78,41.55-.98,41.55Z"/>
  <path class="cls-32" d="M1036.69,1312.69c.2-.01-.38-19.36-3.22-44.27-2.68-23.58-4.37-25.66-7.55-49.75-4.88-37.06-1.11-33.93-5.62-59.48-4-22.66-5.5-32.49-8.52-52.16-.76-4.95.21-12.83,2.57-23.76,1.87-8.61,16.83-25.02,16.7-25.29-.74-1.66-16.15,15.95-18.37,25.5-1.14,4.9-4.49,10.64-2.21,27.52,1.2,8.93,2.01,12.21,5.05,28.75,2.81,15.3,4.23,23.09,5.01,29.92,1.37,12.02.26,10.31,1.65,26.85,1.4,16.79,3.63,31.57,4.84,39.51.8,5.22,1.05,6.48,2.26,14.47,1.35,8.9,2.64,17.99,3.45,24.09,2.98,22.5,3.77,38.11,3.95,38.1Z"/>
  <path class="cls-32" d="M1100.23,1203.12c-.55-.07-1.93,6.77-2.56,10.23-1.43,7.84-2.96,16.24-2.21,26.97.67,9.56,2.92,17.73,4.12,21.63,2.96,9.59,5.1,11.33,4.48,15.98-.97,7.17-7.22,11.69-14.07,16.62-2.55,1.84-12.42,8.7-30.69,13.43-12.3,3.18-19.83,3.18-19.82,4.48,0,1.59,11.29,3.43,22.38,3.2,13.14-.28,23.25-.5,31.97-7.03,17.03-12.76,19.69-42.83,10.23-54.98-1.49-1.91-3.73-3.97-5.29-8.11-2.28-6.07-.76-10.46.51-20.33,1.46-11.26,1.61-21.98.94-22.07Z"/>
  <path class="cls-32" d="M1365.12,1401.11c.1,0,.16,1.63.21,2.83.84,22.43.67,42.45.65,46.52-.06,8.95.1,5.19.22,26.65.09,16.66.11,39.8-.21,68.46-1.55.01-3.09.02-4.64.04.2-5.23.61-16.13,1.05-29.9,2.01-63.64,2.2-114.59,2.74-114.59Z"/>
  <path class="cls-32" d="M1048.53,1409.01c.1,0,.16,1.63.21,2.83.84,22.43.67,42.45.65,46.52-.06,8.95.1,5.19.22,26.65.09,16.66.11,39.8-.21,68.46-1.55.01-3.09.02-4.64.04.2-5.23.61-16.13,1.05-29.9,2.01-63.64,2.2-114.59,2.74-114.59Z"/>
  <path class="cls-32" d="M1374.37,1412.17c4.65,4.62,10.7,6.6,27.68,8.43,10.25,1.1,18.42,1.5,27.38,1.81,29.12,1,32.64-.1,35.81-1.81,12.67-6.8,16.54-21.41,17.75-20.76.88.47-1.12,8.16-6.53,14.27-1.88,2.13-5.55,5.61-12.98,8.4-7.15,2.68-12.98,2.91-34.98,1.71-15.22-.83-21.53-1.44-27.44-2.18-17.14-2.13-22.47-4.24-26.59-8.4-4.76-4.8-6.68-11.11-6.53-11.19.14-.08,2.05,5.39,6.42,9.73Z"/>
  <path class="cls-32" d="M1037.41,1414.62c-4.65,4.62-10.7,6.6-27.68,8.43-10.25,1.1-18.42,1.5-27.38,1.81-29.12,1-32.64-.1-35.81-1.81-12.67-6.8-16.54-21.41-17.75-20.76-.88.47,1.12,8.16,6.53,14.27,1.88,2.13,5.55,5.61,12.98,8.4,7.15,2.68,12.98,2.91,34.98,1.71,15.22-.83,21.53-1.44,27.44-2.18,17.14-2.13,22.47-4.24,26.59-8.4,4.76-4.8,6.68-11.11,6.53-11.19-.14-.08-2.05,5.39-6.42,9.73Z"/>
  <path class="cls-32" d="M1489.13,1544.6c-.41,0,0-13.87-.51-40.9-1.02-54.53-4.45-91.32-3.46-91.35.58-.02,2.23,12.44,3.09,22.97.59,7.17.58,10.71,1.11,23.4.5,11.9.88,17.92,1.11,22.68,1.37,28.89-.69,63.2-1.34,63.19Z"/>
  <path class="cls-32" d="M932.73,1553.13c-.41,0,0-13.87-.51-40.9-1.02-54.53-4.45-91.32-3.46-91.35.58-.02,2.23,12.44,3.09,22.97.59,7.17.58,10.71,1.11,23.4.5,11.9.88,17.92,1.11,22.68,1.37,28.89-.69,63.2-1.34,63.19Z"/>
  <path class="cls-32" d="M1414.68,1410.82c.56.62,1.7,1.68,3.41,2.07,2.36.54,4.44-.53,5.56-1.11,2.56-1.32,3.6-3.05,4.07-2.74.41.27.03,1.83-.74,2.96-1.28,1.89-3.48,2.37-4.52,2.59-1.89.41-3.39.12-4.37-.07-2.28-.46-3.42-1.39-3.7-1.63-.24-.2-1.45-1.24-1.19-1.78.21-.43,1.23-.33,1.48-.3Z"/>
  <path class="cls-32" d="M1259.1,1425.28c.3.78.96,2.19,2.41,3.18,2,1.37,4.32,1.13,5.58,1,2.87-.29,4.47-1.52,4.79-1.06.28.4-.64,1.71-1.77,2.49-1.88,1.29-4.11.93-5.15.76-1.91-.31-3.2-1.13-4.04-1.67-1.96-1.27-2.67-2.54-2.85-2.87-.15-.27-.9-1.68-.45-2.09.35-.32,1.26.15,1.49.27Z"/>
  <ellipse class="cls-32" cx="1420.13" cy="1406.13" rx="4.37" ry=".83"/>
  <path class="cls-32" d="M976.67,1409.95c.33.77,1.07,2.14,2.57,3.05,2.07,1.26,4.37.91,5.62.72,2.85-.44,4.39-1.74,4.74-1.3.3.39-.56,1.74-1.65,2.57-1.82,1.38-4.06,1.13-5.11,1.01-1.92-.21-3.25-.96-4.12-1.47-2.02-1.17-2.8-2.41-2.99-2.73-.16-.27-.98-1.64-.56-2.06.33-.34,1.27.08,1.5.19Z"/>
  <ellipse class="cls-32" cx="983.34" cy="1407.24" rx=".83" ry="4.37" transform="translate(-664.15 1890) rotate(-71.39)"/>
  <ellipse class="cls-32" cx="1266.99" cy="1421.4" rx=".69" ry="3.63" transform="translate(-456.91 2230) rotate(-73.42)"/>
  <path class="cls-32" d="M1525.78,1536.69c-2.04.26-9.18-32.39-12.39-67.5-2.24-24.55.29-19.08-1.86-67.5-1.06-24.02-2.4-41.47,0-67.5.95-10.33,3.15-29.18,4.95-29.11,1.64.06,2.23,15.73,3.1,45.21,2.09,71.07,1.76,86,3.1,118.28,1.91,46.25,4.75,67.91,3.1,68.12Z"/>
  <path class="cls-32" d="M825.89,1563.47c-2.02-.33.45-33.66,7.4-68.23,4.86-24.17,5.72-18.2,17.49-65.22,5.84-23.33,9.54-40.43,19.27-64.69,3.86-9.63,11.35-27.06,13.06-26.48,1.55.53-2.35,15.71-9.94,44.21-18.28,68.71-22.86,82.93-30.79,114.25-11.37,44.88-14.84,66.44-16.48,66.17Z"/>
  <path class="cls-32" d="M1518.35,1292.07c-1.66-.49,2.7-21.09,6.81-36.54,9.19-34.55,23.21-66.39,25.39-65.64,2.23.75-7.6,35.39-14.32,56.36-6.06,18.91-15.92,46.4-17.88,45.83Z"/>
  <path class="cls-32" d="M1538.79,1334.8c-.59-.25,7.7-18.83,19.2-50.78,13.24-36.79,14.62-46.54,26.01-60.07,13.83-16.44,31.3-25.24,32.2-24.15.77.94-10.6,9.29-22.29,24.15-11.03,14.01-15.26,24.8-24.77,46.45-13.95,31.75-29.55,64.73-30.35,64.41Z"/>
  <path class="cls-32" d="M1520.34,1376.97c-.19-.37,21.41-6.07,41.37-26.69,11.26-11.63,12.51-18.22,29.11-35.92,7.05-7.52,21.56-22.04,23.53-20.44,1.96,1.59-8.08,19.29-19.82,33.44-31.01,37.4-73.92,50.14-74.19,49.61Z"/>
  <path class="cls-32" d="M1657.07,1536.69c-.59-1.02,15.92-16.42,41.49-26.01,49.65-18.63,102.07-3.6,132.53,18.58,6.36,4.64,14.31,11.43,13.62,12.48-1.11,1.67-22.18-14.72-51.39-24.24-7.95-2.59-35.7-11.32-68.74-6.81-39.81,5.43-66.77,27.28-67.5,26.01Z"/>
  <path class="cls-32" d="M1686.84,1144.38c-1.43-1.76-12.01,1.72-19.45,8.85-4.6,4.41-4.89,7.24-11.47,19.57-7.08,13.26-11.63,19.14-10.97,19.57.84.54,7.99-9.1,22.44-25.16,14.58-16.2,20.7-21.29,19.45-22.83Z"/>
  <path class="cls-32" d="M1759.26,1322.41c-4.15-.61-3.84,21.55-21.68,37.78-12.45,11.33-26.58,13.24-26.01,19.2.36,3.8,6.46,6.68,11.15,7.43,14.87,2.4,31.7-13.96,37.78-30.96,5.62-15.72,2.37-32.91-1.24-33.44Z"/>
  <path class="cls-32" d="M1529.5,1449.37c-1.53-3.41,18.04-13.87,40.87-29.73,38.46-26.71,58.69-49.64,60.69-47.69,1.76,1.72-13.41,19.88-19.82,27.25-34.86,40.09-59.66,47.44-68.74,49.54-3.12.72-12.03,2.79-13.01.62Z"/>
  <path class="cls-32" d="M1430.29,1024.38c2.59-2.73,10.1-8.42,51.81,2.3,12.43,3.19,37.38,10.28,36.84,12.66-.48,2.15-20.53-5.07-51.81-3.45-22.06,1.14-37.03,6.02-40.3,0-1.76-3.26.57-8.47,3.45-11.51Z"/>
  <path class="cls-32" d="M1408.13,1247.73c-2.35-1.69,3.26-32.99,14.26-58.72,7.36-17.23,19.13-36.59,21.01-34.54,3.79,4.13-30.98,96.33-35.27,93.26Z"/>
  <path class="cls-32" d="M1326.57,1301.57c-.12-.04-6.96,21.75-10.62,34.55-3,10.52-8.14,30.14-15.42,88.38-3.68,29.48-3.64,34.63-13.16,119.97,0,.03-.17.31-.05.47.14.2.64.09,1.09-.06.17-1.98.42-4.8.73-8.17.3-3.28,1.05-11.28,2.25-22.77.71-6.83,1.27-11.87,1.84-16.99,2.1-19.01,2.24-18.93,3.17-28.14,1.05-10.44.96-11.41,2.02-21.17.61-5.64,1.1-9.5,2.02-16.8,1.24-9.83,2.21-16.91,3.89-29.14,1.3-9.44,1.96-14.25,2.63-18.51.75-4.78,1.78-11.24,3.44-19.72.9-4.55,2.21-11.16,4.32-19.65,1.08-4.34,2.58-9.62,5.54-19.99,3.75-13.16,6.36-22.24,6.29-22.26Z"/>
  <ellipse class="cls-32" cx="1146.69" cy="1425.35" rx="1.69" ry="10.54" transform="translate(-195.08 181.9) rotate(-8.36)"/>
  <path class="cls-32" d="M778.02,1249.35c23.3,1.85,25.17,34.06,65.56,77.01,16.27,17.3,31.51,28.6,29.61,31.34-1.75,2.53-16.41-4.48-25.15-9.34-21.76-12.09-28.62-22.94-52.01-45.01-29.08-27.44-43.48-34.26-41.01-43.01,1.9-6.72,12.96-11.8,23-11Z"/>
  <path class="cls-32" d="M837.03,1120.33c1.52-.2,4.27,2.32,15,37.01,9.21,29.77,13.82,44.65,11,46.01-3.18,1.53-13.63-13.17-19.46-24-10.82-20.13-10.78-36.46-10.55-42.01.11-2.73.69-16.56,4-17Z"/>
  <path class="cls-32" d="M575.98,1411.38c.24,1.03,13.32.74,24-7,5.88-4.26,6.58-7.55,11-12,5.67-5.69,12.4-8.22,38.49-12.18,28.76-4.37,43.14-6.55,43.53-4.82,1.17,5.22-117.77,32.84-117.02,36.01Z"/>
  <path class="cls-32" d="M532.97,1455.39c-.3-.84,16.09-9.27,37.01-14,23.35-5.28,43.92-4.06,44.01-3,.06.71-8.93,1.4-33.63,6.19-6.57,1.28-12.71,2.47-20.83,4.32-18.43,4.2-26.35,7.07-26.55,6.5Z"/>
  <path class="cls-32" d="M843.58,1515.16c-.58-1.13,7.53-4.75,17.96-14.24,16.23-14.77,21.42-28.63,22.91-27.87,1.61.82-1.76,18.31-14.86,30.34-10.93,10.04-25.28,13.19-26.01,11.77Z"/>
  <path class="cls-32" d="M707.98,1213.59c1.34-1.19,19.3,10.55,19.82,26.01.14,4.33-1.07,9.17-2.48,9.29-1.79.15-2.74-7.44-7.43-17.96-5.43-12.18-10.68-16.65-9.91-17.34Z"/>
  <path class="cls-32" d="M807.67,1130.62c.84-.17,1.49,1.23,16.72,38.39,8.16,19.91,12.2,29.88,10.53,30.96-2.23,1.44-11.29-7.06-17.34-16.1-15.28-22.84-13.58-52.49-9.91-53.25Z"/>
  <path class="cls-32" d="M938.33,1114.52c-.04-4.55,25.42-11.96,30.96-4.33,1.62,2.23,1.58,5.81,0,8.05-5.53,7.82-30.92.82-30.96-3.72Z"/>
  <path class="cls-27" d="M1324.11,1103.73c-3.7,7.27-9.55,18.98-16.41,33.59-15.48,32.99-18.27,42.83-28.91,57.81-11.88,16.73-24.59,27.25-29.69,31.25-25.7,20.15-40.95,17.89-62.5,36.72-8.53,7.45-7.31,10.71-24.22,30.47-8.84,10.33-16.54,18.49-21.82,23.91-4.76-4.3-11.86-11.79-17.15-22.97-4.58-9.67-5.85-17.97-6.68-23.66-2.05-14.05.53-17.04-.18-33.26-.57-12.98-2.72-22.57-5.14-33.31-4.54-20.19-6.43-17.03-9.93-33.62-5.15-24.43-3.56-43.14-2.5-51.59.43-3.41.91-6.24,1.27-8.21,3.23,6.53,7.22,14.24,11.98,22.81,6.9,12.39,9.08,15.15,11.09,17.32,7.32,7.89,15.5,11.26,22.38,14.01,15.09,6.03,27.87,6.61,38.92,7.01,22.21.8,39.11-3.27,45.15-4.86,17.98-4.76,30.52-11.66,37.17-15.37,13.65-7.63,22.86-15.22,29.58-20.82,11.79-9.82,20.88-19.4,27.58-27.23Z"/>
  <path class="cls-27" d="M1363.04,1043.22c-.15,4.74-.47,11.21-1.26,18.84-3.21,31.25-11.21,54.05-12.89,58.73-12.14,33.84-29.77,56.95-33.66,61.96-22.22,28.53-25.78,32.95-25.78,32.95-11.98,14.86-17.48,21.06-17.55,30.8-.06,9.08,4.64,12.76,2.51,21.85-1.93,8.2-6.79,9.52-10.74,16.83-7.1,13.12,1.01,22.77,0,39.39-1.05,17.2-10.64,21.84-22.56,44.05-8.8,16.39-11.83,29.79-17.91,56.58-10.91,48.13-9.91,92.84-7.52,121.59,2.5-.02,5.01-.04,7.51-.06-.28-4.48-.61-10.95-.71-18.75-.08-5.92-.15-22.54,4.66-66.25,4.87-44.32,4.98-27.49,6.8-48.35.7-8.02,1.07-14.94,5.37-22.92,3.93-7.29,7.36-8.47,15.77-19.69,5.67-7.57,8.76-11.69,11.31-17.82,5.41-12.98,4.59-25.8,4.07-32.69-1.12-15.13-5.33-19.51-1.43-25.78,2.42-3.89,5.77-4.98,10.65-12.59,1.97-3.07,3.34-5.2,4.15-8.11,2.04-7.33-1.76-11.25-2.98-19.05-1.75-11.16,2.85-23.46,10.03-30.44,5.12-4.98,7.02-2.86,13.28-8.56,5.82-5.3,6.91-9.64,13.13-20.84,2.07-3.73,5.46-9,12.22-19.53,10.26-15.96,13.68-19.37,18.28-26.65,9.77-15.44,13-29.48,16.65-45.37,2.48-10.78,6.7-29.9,4.3-54.53-.48-4.92-1.12-8.99-1.62-11.81-1.36,2.07-2.72,4.14-4.08,6.21Z"/>
  <path class="cls-4" d="M1872.03,1541.51c-12-24.02-21.43-44.11-27.97-58.34-22.1-48.12-43.12-99.06-43.12-99.05,0,0-5.22-4.7-7.11-7.53-3.9-5.86-.46-14.11,1.08-19.44,1.97-6.83.59-16.7-2.16-36.44-4.83-34.6-25.27-69.34-34.82-85.57-15.64-26.58-22.92-31.14-25.69-47.35-.83-4.87-1.97-14.95-8.79-25.69-4.32-6.79-8.3-9.74-12.84-14.2-15.05-14.77-14.93-25.24-25.69-40.56-8.43-12.01-17.34-18.16-34.47-29.74-21.67-14.64-46.37-27.72-120.32-56.11-31.59-12.13-47.63-18.25-59.49-20.96-38.02-8.69-70.97-7.38-93.28-4.73,1.58-9.69,3.15-19.38,4.73-29.07,6,3.17,10.9,3.58,14.2,3.38,16.02-.99,31.11-18.8,36.5-44.61,4.16-.09,10.32-.5,17.58-2.03,35.41-7.46,57.16-33.29,70.3-49.35,16.72-20.42,26.96-32.93,29.07-53.4,3.21-31.14-15.16-53.89-17.58-56.78-8.77-10.51-22.28-20.69-60.16-29.74-26.01-6.22-67-12.74-119.64-7.58-1.98-20.18-5.23-49.41-10.51-84.58-11.56-77.07-18.61-87.6-23.35-93.38-25.68-31.38-71.83-31.44-124.9-31.52,0,0-71.53-.1-138.91,37.35-8.98,4.99-19.78,12-28.01,24.51-10.91,16.58-11.48,33.96-11.67,45.52-.84,50.94,3.76,103.38,5.84,124.9-21.69,5.86-39.42,7.62-51.36,8.17-32.66,1.51-63.03-1.17-63.03-1.17-20.86-1.84-34.3-4.45-38.52,2.33-2.74,4.4-.15,10.44,2.33,16.34,20.96,49.79,12.56,37.85,21.01,52.53,13.75,23.88,28.07,48.75,56.03,74.71,33.46,31.06,68.29,46.82,91.05,54.86,8.39,19.22,16.34,42.95,20.74,70.69,1.33,8.38,2.22,16.43,2.78,24.1-91.7,15.74-130.93,24.71-148.3,30.12-4.16,1.3-14.69,4.77-30.59,9.27-22.04,6.24-26.23,6.49-36.15,10.2-13.24,4.95-21.61,10.42-36.15,19.93-10.54,6.9-27.99,18.43-47.27,37.08-16.89,16.33-18.59,22.07-35.22,35.22-12.72,10.05-17.45,11.22-25.95,17.61-21.4,16.07-27.71,35.87-38.93,58.86-16.13,33.06-16.3,19.2-59.13,86.78-23.73,37.43-29.64,51.09-50.5,71.97-15.92,15.93-21.68,17.18-34.09,29.04-17.53,16.75-38.16,44.95-49.24,94.69,467.23-3.75,934.46-7.51,1401.69-11.26Z"/>
  <path class="cls-4" d="M1377.36,995.8c-1.41,7.82-3.74,18.34-7.78,30.41-3.24,9.7-12.71,35.72-33.95,63.91-12.12,16.08-39.85,52.88-89.88,71.9-29.65,11.27-53.05,10.95-60.58,10.65-14.9-.59-39.01-1.55-57.25-17.98-9.96-8.97-13.66-18.49-17.98-27.96-8.46-18.57-22.77-44.56-48.07-74.74"/>
  <path class="cls-4" d="M1035.38,950.98c-.8-5.62-1.99-14.18-3.33-24.63-4.9-38.31-4-41.34-6.66-59.92-6.58-46.01-16.05-54.83-7.99-70.57,6.55-12.79,18.86-18.81,23.97-21.3,16.37-8.01,29.99-5.27,55.26-3.99,13.25.67,28.36.22,58.59-.67,22.12-.65,25.35-2.19,85.22-9.32,70.39-8.38,80-7.92,91.21-5.99,14.51,2.49,40.27,7.24,65.24,27.3,7.49,6.01,31.83,26.13,41.94,62.58,10.87,39.18-1.85,71.48-6.03,81.04"/>
  <path class="cls-13" d="M1367.51,1032.09c1.05,9.44,1.84,22.02,1.03,36.78-.79,14.26-2.35,38.78-13.75,65.52-12.94,30.35-28.61,40.22-39.64,64.72-1.43,3.17-3.96,9.21-9.71,15.37-7.17,7.68-11.11,6.74-16.18,12.94-7,8.57-7.18,19.82-7.28,25.89-.22,13.13,4.37,18.85,0,25.89-2.53,4.07-4.91,3.5-8.09,7.28-6.44,7.65-3.01,17.51-2.43,30.74.26,5.95,1.23,27.82-9.71,45.3-6.98,11.16-12.57,10.56-19.41,23.46-5.17,9.74-6.34,18.3-7.28,25.08-9,64.96-8.35,52.2-9.71,68.76-1.3,15.95-2.65,36.89-3.24,61.69"/>
  <path class="cls-13" d="M1188.16,1547c-2.07-13.29-5.3-34.52-8.91-60.71-17.18-124.56-12.36-138.94-30.74-160.17-10.14-11.71-28.7-27.07-31.55-52.58-.8-7.11.52-7.07,0-22.65-.39-11.78-1.74-29.74-6.47-50.96-4.74-21.25-7.51-20.99-10.52-35.59-2.61-12.67-4.36-31.4.81-55.89"/>
  <path class="cls-4" d="M867.93,758.77c8.64,1.91,20.85,4.37,35.58,6.53,42.05,6.17,76.41,5.73,108.1,4.24,62.15-2.93,111.11-9.82,126.47-12.01,85.46-12.22,152.76-21.94,214.29-30.91"/>
  <path class="cls-4" d="M1014.81,674.14c15.51.11,38.36.03,66-1,49.54-1.84,84.44-5.59,117.69-8.78,34.8-3.33,84.05-7.59,144.96-11.34"/>
  <path class="cls-4" d="M1020.51,745.92c17.68-.77,42.1-1.82,59.78-2.57,77.71-3.31,107.23-3.9,161.57-6.71,24.29-1.26,44-2.45,56.25-3.21"/>
  <g>
    <path class="cls-33" d="M969.47,947.94c-3.73-1.6-8.65-3.26-14.6-4.15-5.52-.83-10.17-.73-13.32-.48-2.61.2-6.73.69-11.63,2.08-4.36,1.24-7.99,2.8-10.83,4.25-.29,9.21-.57,18.43-.86,27.64,0,.59.1,1.43.47,2.35.55,1.38,1.43,2.23,1.88,2.61.63.54,1.25.85,1.67,1.03-.24,3.46-.47,6.92-.71,10.38-.42,6.24-.85,12.49-1.27,18.73-.45,6.59-.9,13.17-1.34,19.76-.51,7.53-1.02,15.05-1.54,22.58-.49,7.2-.98,14.4-1.47,21.6l-1.55,22.81c.02-.5-.17,2.35-.55,8.05-.08,1.21-.18,2.75-.61,4.78-.39,1.86-.88,3.25-1.09,3.84-.36.99-1.26,3.29-3.01,5.93-1.92,2.9-3.9,4.75-4.47,5.26-1.17,1.06-1.35,1.03-3.14,2.64-1.2,1.08-2.3,2.08-3.5,3.53-.52.62-1.19,1.5-2.15,3.02-1.95,3.09-3.18,5.85-3.79,7.25-2.4,5.56-3.74,10.19-4.58,13.15-.96,3.37-1.63,6.21-2.07,8.09-.61,2.61-1.07,4.84-1.4,6.54.08,3.57.16,7.14.24,10.71.19,8.61.38,17.21.57,25.82.11,5.14.23,10.27.34,15.41.15,6.7.3,13.4.44,20.1.14,6.43.28,12.86.43,19.29.18,8.15.36,16.31.54,24.46.18,7.98.35,15.97.53,23.95.15,6.89.3,13.78.46,20.67.14,6.47.29,12.94.43,19.41.22,9.87,1.01,45.73,1.03,46.4.13,5.72.53,23.62.67,29.51.05.67.15,1.56.35,2.58.44,2.34,1.12,4.13,1.54,5.11.37.88,1.24,2.77,2.8,4.92,1.65,2.27,3.26,3.69,4.25,4.55.97.85,2.76,2.39,5.44,3.8,2.07,1.09,3.68,1.58,6.44,2.4,3.79,1.13,6.75,1.7,7.52,1.85,10.57,2.02,18.59,2.79,18.59,2.79,3.83.37,12.38,1.08,23.47.85,10.57-.21,18.59-1.17,22.15-1.64,3.39-.45,8.5-1.57,18.74-3.81,1.97-.43,4.97-1.11,8.39-3.03,2.45-1.38,4.1-2.82,5.67-4.21,2.03-1.8,4.74-4.2,7.14-8.13,1.15-1.89,2.69-4.87,3.66-8.9-.21-7.98-.41-15.97-.62-23.95-.36-13.9-.72-27.8-1.08-41.7-.47-18.34-.95-36.69-1.42-55.03-.14-5.55-1.98-76.33-1.98-76.57-.11-4.31-1.39-53.38-1.51-57.86-.21-2.01-.56-4.53-1.15-7.4-1.03-4.99-2.33-8.76-2.98-10.55-.61-1.67-2.4-6.37-5.68-12.03-2.87-4.95-5.07-8.75-9.08-12.6-1.38-1.33-3.33-3.01-5.94-6.04-1.25-1.45-2.43-2.83-3.71-4.87-.42-.66-2.14-3.44-3.59-7.62-.27-.77-1.08-3.2-1.94-8.24-.68-3.99-.85-6.49-1.19-10.04-.06-.61-.03-.25-1.66-13.75,0,0-1.36-11.28-1.94-16.06-.67-5.53-1.34-11.06-2.01-16.59-.73-6.02-1.46-12.04-2.18-18.06-.68-5.61-1.36-11.23-2.04-16.84-.54-4.46-1.08-8.92-1.62-13.39-.59-4.87-1.18-9.75-1.77-14.62.5-.46,1.21-1.21,1.8-2.3.23-.43.78-1.53.98-3.06.21-1.62-.06-2.95-.29-3.74-.76-5.08-1.52-10.15-2.28-15.23-.49-3.33-.98-6.67-1.47-10Z"/>
    <path class="cls-11" d="M974.46,1028.75c-1.11-.4-2.21-.8-3.32-1.2-.79-.29-1.35-1.01-1.43-1.85-.62-6.42-1.24-12.84-1.86-19.26-.01-.13-.01-.26,0-.38.1-1.11.22-4.58-2.16-7.71-1.52-2-3.4-2.98-4.5-3.43-.27-.11-.54-.16-.83-.16-8.57.08-17.13.15-25.7.23-.26,0-.52.05-.76.15-.99.39-2.72,1.26-4.18,3.06-1.74,2.13-2.14,4.38-2.25,5.34,0,.05,0,.09-.01.14-1.91,34.23-3.81,68.45-5.72,102.68-.17,1.69-.25,4.5.69,7.76.82,2.84,2.11,4.99,3.16,6.42.42.58,1.09.9,1.8.88,2.9-.07,6.92.32,10.88,2.48,1.67.91,3.58,1.99,4.61,4.25,1.28,2.82.37,5.7.17,6.32-1.7,5.33-7.16,5.75-15.27,11.44-3,2.1-8.33,5.84-11.88,11.83-3.82,6.43-4.21,13.15-4.02,17.45.33,30.65.85,61.6,1.56,92.83.98,43.36,2.31,86.16,3.96,128.38,0,.13.02.26.05.39.89,4.01,2.85,10.46,7.49,17.11,6.23,8.93,13.76,13.15,15.64,14.16,7.6,4.09,14.68,4.97,18.76,5.15.11,0,.22.02.33.04,9.31,2,25.18,4.03,43.65-.74,8.55-2.21,15.67-5.36,21.24-8.4.71-.39,1.14-1.15,1.12-1.97-.23-8.75-1.38-53.67-1.46-56.57-.12-4.74-1.54-59.39-1.61-62.44-.56-21.65-1.08-43.3-1.68-64.95-.29-10.34-.7-24.61-1.13-44.54-.2-9.19-.34-16.77-.43-21.89,0-.1,0-.19-.02-.29-.62-4.34-1.53-7.96-2.36-10.73-.48-1.6-1.12-3.72-2.26-6.42-1-2.38-1.7-3.58-3.83-7.92-1.81-3.69-1.75-3.72-2.38-4.96-3.57-6.99-8.33-11.98-10.5-14.22-3.63-3.75-4.13-3.42-6.11-6.07-1.91-2.57-3.36-5.45-4.82-10.2-1.15-3.72-2.54-9.3-3.15-16.57-1.26-11.47-2.52-22.92-3.78-34.39-1.43-9.83-2.85-19.66-4.28-29.49-.12-.8-.66-1.47-1.41-1.74Z"/>
    <path class="cls-6" d="M969.47,947.94c-4.75-2.03-13.14-4.9-23.9-4.81-12.36.11-21.71,4.07-26.48,6.5-.29,9.21-.57,18.43-.86,27.64,0,.6.11,2.03,1.06,3.5,1.02,1.58,2.42,2.26,2.96,2.49-2.83,41.61-5.66,83.23-8.49,124.84-.17,2.26-.68,5.66-2.31,9.38-3.14,7.13-8.53,11.04-9.95,12.15-5.42,4.28-12.12,14.65-17.5,41.58,1.88,85.16,3.77,170.33,5.65,255.49.15,2.15.86,8.53,5.85,14.29,5.94,6.88,12.94,9.05,14.82,9.27,30.46,8.61,74.53,6.73,96.89-2.03,2.52-.69,7.35-4.02,12.5-9.97,4.02-4.66,5.51-9.51,6.1-12.05-7.17-152.29-7.35-204.39-5.7-220.16.07-.64,1.68-15.93-.91-34.98-1.24-9.14-3.06-16.3-6.42-23.59-.99-2.15-3.78-7.93-8.74-14.54-6.18-8.23-9.08-8.87-12.93-14.74-2.52-3.84-5.49-9.99-6.31-19.42-4.69-38.84-9.39-77.68-14.08-116.52.87-.83,2.01-2.18,2.54-4.08.51-1.82.23-3.35.13-3.94-.58-3.39-1.98-13.1-3.93-26.31Z"/>
    <path class="cls-21" d="M925.13,953.16c-.3,2.43-.56,4.95-.76,7.57-.33,4.35-.47,8.49-.47,12.38.02.5.15,2.45,1.72,4.13,1.53,1.63,3.4,1.92,3.91,1.98,9.2-.09,18.41-.18,27.61-.27.21-.04,1.46-.31,2.21-1.51.88-1.42.3-2.91.24-3.06-.4-6.68-.79-13.36-1.19-20.04-3.57,1-6.6,1.54-8.78,1.84-5.27.75-10.76,1.47-17.19-.18-3.21-.82-5.71-1.99-7.3-2.85Z"/>
    <path class="cls-21" d="M928.78,987.1c11.4.07,22.81.13,34.21.2.82.19,1.42.89,1.49,1.73.07.85-.43,1.65-1.23,1.96-11.55.47-23.1.95-34.65,1.42-1.25-.61-1.93-1.92-1.69-3.17.29-1.51,1.78-2.11,1.87-2.14Z"/>
    <path class="cls-26" d="M988.06,1112.35c-1.08.49-2.9,1.26-5.25,1.91-4.07,1.13-6.09.9-11.02,2.23-4.23,1.14-5.41,2.02-6.01,3.21-.84,1.67-.28,3.39-.23,3.54.24.71,1.04,2.38,5.24,3.87,3.46,1.23,6.13,1.23,8.55,1.37,2.53.15,7.71.45,12.58,2.07,4.74,1.58,8.16,4.06,12.07,6.9,2.53,1.84,4.52,3.55,5.91,4.82-.84-1.75-1.89-3.68-3.21-5.69-.45-.69-1.97-2.98-4.99-6.45-1.43-1.64-3.77-4.07-8.43-8.92-1.23-1.28-2.91-3.02-4.17-5.83-.55-1.22-.86-2.29-1.05-3.02Z"/>
    <ellipse class="cls-2" cx="988.36" cy="1159.59" rx="11.08" ry="20.95" transform="translate(-533.19 1079.77) rotate(-46.55)"/>
    <ellipse class="cls-2" cx="968.45" cy="1070.17" rx="1.76" ry="22.15" transform="translate(-28.68 26.67) rotate(-1.55)"/>
    <ellipse class="cls-2" cx="963.19" cy="1020.45" rx="2.14" ry="14.21" transform="translate(-27.33 26.51) rotate(-1.55)"/>
    <ellipse class="cls-2" cx="928.9" cy="1234.07" rx="7.22" ry="47.67" transform="translate(-33.14 25.66) rotate(-1.55)"/>
    <path class="cls-2" d="M926.13,1096.37c-2.27-3.31-2.56-7.41-.77-10.58,1.44-2.54,4.56-5.11,7.58-4.54,4.24.79,5.87,7.29,5.61,11.41-.05.78-.47,6.12-4.58,8.8-.85.55-3.16,2.06-5.27,1.11-1.86-.85-2.96-3.34-2.58-6.19Z"/>
    <path class="cls-10" d="M918.94,949.79c5.81,1.88,10.79,2.85,14.38,3.38,7.03,1.05,15.1,2.26,24.64-.27,5.09-1.35,9-3.34,11.51-4.81"/>
    <path class="cls-16" d="M959.53,949.2c.05,1.79-6.41,3.41-14.43,3.63-8.02.22-14.55-1.06-14.6-2.84-.05-1.79,6.41-3.41,14.43-3.63,8.02-.22,14.55,1.06,14.6,2.84Z"/>
  </g>
  <path class="cls-31" d="M482.57,1513.52c4.15-4.84,10.06-11.19,17.83-17.92,4.84-4.2,9.88-8.56,16.84-12.77,2.89-1.74,8.26-4.76,30.21-11.78,19.28-6.17,21.17-5.78,30.56-9.68,6.83-2.84,11.3-5.32,23.44-12.38,22.8-13.25,40.77-24.09,42.7-25.26,29.58-17.85,33.26-20.06,40.92-24.18,12.19-6.54,24.44-12.53,27.99-14.26,21.87-10.66,21.77-9.53,28.7-13.73,16.67-10.09,26.76-22.4,32.85-29.96,10.72-13.31,16.36-25.08,21.45-35.86,6.64-14.07,6.98-18.34,15.26-41.46,10.75-30.02,16.13-45.03,24.11-56.58,14.69-21.29,32.08-32.26,36.85-35.14,19.73-11.92,37.71-14.75,47.95-16.26,29.16-4.29,51.92,1.64,58.92,3.66,8.57,2.46,32.5,10.25,55.11,31.08,6.11,5.63,10.7,10.9,13.84,14.81-.18,3.55-.96,9.41-4.18,15.74-4.7,9.25-11.87,14.12-15.13,16.05,4.44,2.98,10.76,7.98,16.52,15.72,6.68,8.97,9.7,17.72,11.13,23.23.17,2.43.38,9.86-4.45,17.27-5.51,8.46-13.8,11.06-15.95,11.66-10.36-4.73-19.88-8.14-28.05-10.63-18.31-5.57-32.27-7.26-36.57-7.73-14.44-1.59-21.66-2.39-29.67,0-14.64,4.36-23.47,15.6-27.63,21.94,4.02-.58,9.75-1.35,16.66-2.03,24.74-2.45,29.43-.38,58.92-1.22,15.97-.45,31.14-1.53,44.72,3.6,3.21,1.21,7.86,3.35,11.67,7.96,1.86,2.25,6.13,8.25,5.75,16.06-.55,11.34-10.53,18.52-15.86,22.36-3.98,2.87-7.69,4.58-10.25,5.59-.11,5.16-.94,13.67-5.14,23.1-1.3,2.92-4.41,9.74-10.56,16.02-6.74,6.88-13.54,9.45-29.67,15.04-16.24,5.63-23.61,5.55-36.17,12.19-6.14,3.25-9.82,6.09-12.6,10.16-3,4.39-2.7,6.92-6.1,12.19-3.32,5.15-7.11,8.17-10.16,10.57-6.6,5.18-12.55,7.5-21.43,10.84-13.35,5.02-27.76,10.26-35.6,13.16-16.43,6.08-19.02,7.46-21.52,8.99-9.96,6.12-15.89,13.19-20.07,18.25-5.84,7.07-14.67,19.65-20.46,38.3-108.09.85-216.19,1.69-324.28,2.54,3.52-13.08,7.04-26.16,10.57-39.24Z"/>
  <path class="cls-27" d="M1025.27,1358.06c-6.95-.47-16.37-.82-27.51-.4-8.14.31-15.88.98-39.07,4.39-46.23,6.79-50.16,9.21-50.23,11.16-.04,1.04.99,2.65,6.78,4.78,7.71-.59,19.55-1.77,33.89-4.39,17.53-3.2,17.08-4.57,29.1-6.38,26.74-4.02,45.61.3,47.53-5.81.29-.93.17-2.04-.48-3.35Z"/>
  <path class="cls-27" d="M911.25,1309.43c.53,1.1-5.75,5.68-11.96,7.97-6.75,2.49-14.87,2.81-15.15,1.59-.53-2.29,26.09-11.68,27.11-9.57Z"/>
  <path class="cls-27" d="M1028.46,1232.88c-4.03-2.63-9.99-6.26-17.54-9.97-4.84-2.38-12.43-5.8-47.44-15.55-16.28-4.53-19.47-5.13-24.32-4.39-9.19,1.42-13.91,6.07-23.52,13.16-26.19,19.3-45.96,25.13-44.65,28.7.71,1.94,6.96,1.45,10.37.8,7.33-1.41,10.05-5.23,18.74-11.56,10.33-7.53,11.13-5.52,23.52-14.35,9.78-6.97,9.08-8.08,13.16-9.57,7.56-2.76,14.91-.73,30.7,5.58,16.73,6.69,25.18,9.82,35.88,15.95,6.37,3.65,13.99,8.5,20.33,5.58,2.37-1.09,3.87-2.95,4.78-4.39Z"/>
  <path class="cls-27" d="M752.19,1550.57c2.55-2.97,6.36-7.48,10.87-13.05,17.89-22.09,26.38-35.68,31.39-42.25,13.5-17.7,23.67-13.18,78.07-39.04,39.36-18.71,39.02-23.45,73.64-37.83,28.68-11.91,62.2-22.48,63.58-19.32.79,1.8-8.86,7.85-13.38,10.39-2.6,1.46-6.32,3.33-22.36,8.58-8.38,2.74-12.22,3.81-21.14,6.89-11.69,4.04-13.11,4.96-14.4,5.97-2,1.58-3.39,3.17-12.1,16.39-5.82,8.83-5.46,8.51-6.28,9.51-4.97,6.01-10.77,8.61-20.84,12.67-16.07,6.48-24.11,9.72-34.3,12.89-12.02,3.74-17.22,4.67-25.42,9.5-1.52.89-6.78,4.06-12.79,9.4-8.46,7.52-13.28,14.8-16.54,19.8-4.43,6.79-10.2,17.14-14.47,30.99-14.51-.5-29.02-1-43.53-1.5Z"/>
  <path class="cls-27" d="M613.99,1551.54c5.15-4.06,12.17-9.56,20.59-15.95,19.66-14.95,35.42-26.1,48.07-34.96,17.71-12.4,79.94-55.97,81.15-54.31.59.82-13.75,12.14-14.82,12.98-15.05,11.86-25.69,17.81-39.7,26.83-11.59,7.46-19.32,13.06-32.31,22.45-17.6,12.73-26.5,20.05-50.93,37.51-3.23,2.31-5.9,4.2-7.67,5.46-1.46,0-2.92,0-4.38-.01Z"/>
  <path class="cls-5" d="M479.84,1520.42c8.75-13.59,23.36-31.56,46.61-42.56,14.22-6.72,20.47-5.54,40.06-12.11,16.99-5.7,25.2-10.92,63.34-33.54,44.41-26.32,66.61-39.48,69.86-40.99,25.62-11.86,42.87-16.3,62.41-35.4,8.32-8.14,13.52-15.47,17.7-21.43,17.58-25.05,22.77-45.82,30.74-68,12.37-34.43,19.29-53.67,33.01-69.86,28.73-33.91,84.5-51.12,134.67-37.26,37.54,10.37,60.39,34.94,69.86,46.58-.24,3.99-1.38,13.51-8.38,22.36-3.75,4.74-7.93,7.69-10.93,9.43,4.46,2.93,10.88,7.9,16.52,15.72,5.3,7.34,14.51,20.13,10.25,33.54-3.86,12.13-16.42,17.42-19.51,18.63-20.12-9.36-37.82-13.67-50.36-15.83-21.95-3.78-40.4-6.68-56.82,3.73-7.34,4.65-12.05,10.55-14.9,14.9,9.84-1.1,23.21-2.3,39.12-2.79,13.6-.43,24.59.03,46.58.93,32.69,1.35,38.45,2.59,43.63,7.68,6.34,6.23,10.56,17.02,7.61,25.85-2.42,7.26-9.28,11.97-14.9,15.84-4.03,2.77-7.7,4.52-10.25,5.59-.04,3.52-.41,8.39-1.86,13.97-.41,1.56-3.62,13.47-12.11,23.29-7.51,8.68-17.53,12.43-37.26,19.56-24.42,8.83-29.36,7.28-38.19,14.9-10.41,8.98-6.47,13.63-16.77,24.22-6.3,6.47-12.46,9.55-47.51,22.36-27.17,9.92-25.34,8.76-28.47,10.25-13.92,6.61-31.8,20.96-46.05,55.89"/>
  <path class="cls-12" d="M1210.82,1059.62c42.52-.62,129.2-8.8,213.58-71.98,105.59-79.06,201.81-239.88,167.82-370.2-50.82-194.8-367.58-225.53-445.47-233.09-163.72-15.88-189.82,32.93-436.32,30.85-206.55-1.74-324.37-4.52-372.25-92.55-51.2-94.14-16.93-174.27,86.37-223.83,76.98-36.94,144.12-18.54,287.07-27.12,127.43-7.65,247.92,6.03,436.63,18.08,26.68,1.7,94.74-.36,224.28,58.06,73.43,33.11,152.1,155.4,204.43,315.35,20.54,62.8,48.94,153.1,27.49,260.5-12.31,61.63-37.35,110.49-52.38,136.18-6.41,10.96-35.79,60.05-89.54,107.44-13.06,11.51-39.86,34.86-77.97,54.74-65.96,34.42-129.49,39.53-173.74,37.57Z"/>
  <g>
    <path class="cls-8" d="M587.17,222.1l15.92-4.76c2.42,13.79-.3,32.77-8.15,56.95-7.85,24.19-21.87,44.51-42.04,60.96-20.18,16.46-38.99,22.68-56.45,18.67-17.46-4.01-28.03-16-31.7-35.96-3.68-19.97.58-46.34,12.78-79.13,12.2-32.79,28.53-55.22,49-67.29,20.47-12.07,37.69-16.14,51.69-12.22,13.99,3.93,26.42,16.62,37.28,38.09l-28.32,24.68ZM577.65,224.86c-3.26-17.88-8.57-27.74-15.92-29.57-8.02-2-17.65,1.92-28.88,11.78-11.24,9.86-20.13,23.7-26.69,41.54-6.56,17.84-9.46,33.33-8.71,46.49.75,13.16,5.11,20.78,13.09,22.87,7.98,2.09,17.29-1.48,27.94-10.71,10.65-9.23,18.92-21.81,24.81-37.72,5.89-15.91,9.13-30.34,9.71-43.29l4.64-1.38ZM566.66,122.42c2,2.3,2.71,5.37,2.13,9.21-.51,3.76-2.55,7.21-6.14,10.34-3.59,3.14-7.27,4.7-11.03,4.7s-6.74-1.15-8.71-3.44c-1.96-2.3-2.69-5.33-2.19-9.09.58-3.84,2.65-7.33,6.2-10.47,3.55-3.13,7.25-4.7,11.09-4.7s6.64,1.15,8.65,3.45ZM604.19,123.36c1.8,2.09,2.44,4.85,1.94,8.27-.42,3.34-2.26,6.44-5.51,9.27-3.26,2.84-6.56,4.26-9.9,4.26s-6.03-1.04-7.83-3.13-2.45-4.8-1.94-8.15c.42-3.42,2.25-6.56,5.51-9.4,3.26-2.84,6.6-4.26,10.02-4.26s5.91,1.05,7.71,3.13Z"/>
    <path class="cls-8" d="M629.52,284.63l48.87-13.53-8.65,27.57-81.7,24.56c14.28-43.52,31.58-91.18,51.88-142.98l28.82-3.14c-15.29,40.1-28.36,75.94-39.22,107.52Z"/>
    <path class="cls-8" d="M768.49,184.01c-9.19.67-19.86,2.3-32.02,4.89-12.15,2.59-18.9,8.15-20.23,16.67-.59,4.68,4.4,10.13,14.97,16.35,10.57,6.22,14.89,16.06,12.97,29.51-3.59,15.29-11.86,26.36-24.81,33.21-12.95,6.85-28.11,11.44-45.49,13.78l-9.4-20.8c7.43-1.34,18.36-4.22,32.77-8.65,14.41-4.43,22.2-10.49,23.37-18.17.83-6.43-4.15-11.97-14.97-16.6-10.82-4.64-15.23-14.14-13.22-28.51,1.92-13.53,8.08-23.37,18.48-29.51,10.4-6.14,26.25-10.88,47.56-14.22l10.02,22.05Z"/>
    <path class="cls-8" d="M806.46,185.76l5.64,2.88-2.88,7.77c-8.1,20.55-17.13,45.74-27.07,75.56l-25.06,5.51c10.53-31.66,21.38-62.19,32.58-91.6-5.43.17-12.41.79-20.93,1.88l-3.88-21.05c10.52-1.92,20.13-2.88,28.82-2.88s24.02.38,46.24,1.13l-6.52,21.18c-11.03-.16-20.01-.29-26.94-.37Z"/>
    <path class="cls-8" d="M891.79,199.67l9.77-1.75c1.76,7.85.5,18.29-3.76,31.33-4.26,13.03-12.37,23.75-24.31,32.14-11.95,8.4-23.27,10.93-33.96,7.58-10.69-3.34-17.36-10.92-19.99-22.74s-.59-26.52,6.14-44.11c6.72-17.58,16.14-29.11,28.26-34.59,12.11-5.47,22.47-6.68,31.08-3.63,8.61,3.05,16.5,10.92,23.69,23.62l-16.92,12.15ZM886.28,200.55c-2.42-10.19-5.85-16.08-10.28-17.67-4.93-1.59-10.71.04-17.35,4.89-6.64,4.84-11.76,12.05-15.35,21.61-3.59,9.57-5.04,18.28-4.32,26.13.71,7.85,3.51,12.6,8.4,14.22,4.88,1.63,10.48-.02,16.79-4.95,6.31-4.93,11.07-11.65,14.29-20.17,3.22-8.52,4.86-16.38,4.95-23.56l2.88-.5Z"/>
    <path class="cls-8" d="M949.75,162.83c4.89.5,9.61,1.88,14.16,4.13,4.55,2.26,8.08,5.56,10.59,9.9,2.51,4.35,3.26,10.07,2.26,17.17-1.17,8.27-3.6,15.44-7.27,21.49-3.68,6.05-8.23,10.44-13.66,13.16-5.43,2.71-16.29,4.7-32.58,5.95-3.76,9.36-7.35,19.3-10.77,29.83l-21.93,4.76c9.61-29.32,21.64-58.39,36.09-87.21-1.26.17-2.63.34-4.13.5l-3.38-18.29c6.43-1.42,12.82-2.13,19.17-2.13,2.75,0,6.58.25,11.46.75ZM931.52,214.33c8.69-.59,15.08-2.21,19.17-4.89,4.09-2.67,6.72-8.27,7.9-16.79.5-3.76-.8-6.47-3.89-8.14-3.09-1.67-6.68-2.75-10.78-3.26-1-.08-2.21-.13-3.63-.13l6.14,3.64c-5.18,9.02-10.15,18.88-14.91,29.57Z"/>
    <path class="cls-8" d="M1054.57,163.21l-7.39,17.79-34.96.12c-3.01,7.6-5.89,15.08-8.65,22.43l25.44-2-6.14,18.3-26.32,3.01c-2.76,7.43-5.35,14.79-7.77,22.05l41.98-8.65-6.39,18.67-64.16,14.28c9.61-29.4,20.47-58.72,32.58-87.96-.51,0-.92.04-1.26.12l-2.75-17.17c7.43-1.34,15.66-2,24.68-2,2.17,0,15.87.34,41.1,1Z"/>
    <path class="cls-8" d="M1081.64,181.38l5.01,2.63-2.63,7.02c-7.35,18.55-15.45,41.27-24.31,68.17l-21.93,4.76c9.36-28.49,19.05-56.01,29.07-82.58-4.84.17-10.94.71-18.29,1.63l-3.38-19.05c8.85-1.59,16.91-2.38,24.18-2.38,8.35,0,22.22.38,41.6,1.13l-5.76,19.3c-9.61-.25-17.46-.46-23.56-.63Z"/>
  </g>
  <g>
    <path class="cls-7" d="M120.35,1263.58l20.63-3.84-6.44,19.53-21.45,4.87c-3.52,9.96-7.65,22.21-12.41,36.74l-21.11,7.27c9.96-30.52,20.95-61,32.97-91.43-.41.14-.85.25-1.3.34l-2.47-19.4c8.91-2.7,16.96-4.41,24.16-5.14,7.2-.73,18.63-1.53,34.3-2.4l-6.65,19.95c-13.94,1.37-23.56,2.38-28.86,3.02-3.93,10.28-7.72,20.45-11.38,30.5Z"/>
    <path class="cls-7" d="M194.72,1279.69c1.1,2.65,1.87,4.73,2.33,6.24.78,2.79.78,8.96,0,18.51l-18.44,10.01c1-7.22,1.44-13.08,1.3-17.58-.14-4.5-.73-7.87-1.78-10.11-.14-.27-.34-.55-.62-.82-3.93,1.01-8.39,1.99-13.37,2.95-3.79,10.14-7.52,20.81-11.17,32.01l-21.11,7.27c10.19-31.35,22.69-62.65,37.49-93.9-1.19.27-2.47.57-3.84.89l-2.6-18.44c8.91-3.15,17.68-4.73,26.32-4.73,6.58,0,11.97.91,16.18,2.74,4.2,1.83,7.45,4.88,9.73,9.15,2.28,4.27,2.76,10.25,1.44,17.92-1.42,8.41-3.99,15.94-7.71,22.58-3.72,6.65-8.24,11.64-13.54,14.98-.18.14-.39.25-.62.34ZM172.92,1267.08c8.22-1.55,14.23-3.86,18.03-6.92,4.16-3.29,7.01-9.37,8.57-18.23.64-4.02-.5-6.73-3.43-8.12-2.92-1.39-6.35-2.09-10.28-2.09-.91,0-2.06.07-3.43.21l5.69,3.08c-5.16,9.87-10.21,20.56-15.15,32.08Z"/>
    <path class="cls-7" d="M237.28,1294.63l20.15-6.51-5.89,18.92-57.71,19.53,6.65-20.01,16.18-5.21c7.86-25.68,16.34-48.98,25.43-69.91-6.67.91-13.39,2.26-20.15,4.04l4.93-20.84c4.39-1.37,12.11-2.44,23.17-3.22l32.76-2.81-5.89,18.51-21.11,2.6,5.14,3.91c-9.46,21.11-15.43,35.58-17.92,43.42-2.49,7.84-4.4,13.7-5.72,17.58Z"/>
    <path class="cls-7" d="M347.84,1211.42l32.83-2.81-7.68,19.26-33.38,3.84c-3.06,8.04-6.03,16.02-8.91,23.92l24.06-4.66-6.37,19.53-25.16,5.83c-2.83,7.95-5.58,15.86-8.22,23.72l40.23-13.37-6.79,19.95-61.48,21.52c10.23-31.48,21.61-62.92,34.13-94.31-.37.09-.73.18-1.1.27l-1.99-17.41c8.86-2.74,18.8-4.5,29.82-5.28Z"/>
    <path class="cls-7" d="M382.45,1274.68c-5.12,14.3-10.37,29.7-15.76,46.2l-21.11,7.27c9.87-30.29,20.79-60.57,32.76-90.82l-1.71-16.04,17.34-8.5,6.92,57.92c6.44-19.28,13.25-38.54,20.43-57.78l19.19-2.74c-12.61,34.86-23.44,67.1-32.49,96.71l-21.32,7.4-4.25-39.62Z"/>
    <path class="cls-7" d="M470.05,1231.98l4.59,2.13-2.88,7.54c-7.54,19.92-16.06,44.26-25.57,73l-21.11,7.27c10.01-30.48,20.31-59.97,30.91-88.49-4.57.69-10.42,1.9-17.55,3.63l-2.47-19.4c8.86-2.7,16.91-4.41,24.13-5.14,7.22-.73,20.06-1.71,38.52-2.95l-6.24,20.49c-9.09.73-16.54,1.37-22.34,1.92Z"/>
    <path class="cls-7" d="M526.32,1279.69c1.1,2.65,1.87,4.73,2.33,6.24.78,2.79.78,8.96,0,18.51l-18.44,10.01c1-7.22,1.44-13.08,1.3-17.58-.14-4.5-.73-7.87-1.78-10.11-.14-.27-.34-.55-.62-.82-3.93,1.01-8.39,1.99-13.37,2.95-3.79,10.14-7.52,20.81-11.17,32.01l-21.11,7.27c10.19-31.35,22.69-62.65,37.49-93.9-1.19.27-2.47.57-3.84.89l-2.6-18.44c8.91-3.15,17.68-4.73,26.32-4.73,6.58,0,11.97.91,16.18,2.74,4.2,1.83,7.45,4.88,9.73,9.15,2.28,4.27,2.76,10.25,1.44,17.92-1.42,8.41-3.99,15.94-7.71,22.58-3.72,6.65-8.24,11.64-13.54,14.98-.18.14-.39.25-.62.34ZM504.52,1267.08c8.23-1.55,14.23-3.86,18.03-6.92,4.16-3.29,7.01-9.37,8.57-18.23.64-4.02-.5-6.73-3.43-8.12-2.92-1.39-6.35-2.09-10.28-2.09-.91,0-2.06.07-3.43.21l5.69,3.08c-5.16,9.87-10.21,20.56-15.15,32.08Z"/>
    <path class="cls-7" d="M585.88,1211.42l32.83-2.81-7.68,19.26-33.38,3.84c-3.06,8.04-6.03,16.02-8.91,23.92l24.06-4.66-6.37,19.53-25.15,5.83c-2.83,7.95-5.58,15.86-8.22,23.72l40.23-13.37-6.79,19.95-61.48,21.52c10.23-31.48,21.61-62.92,34.13-94.31-.37.09-.73.18-1.1.27l-1.99-17.41c8.86-2.74,18.8-4.5,29.82-5.28ZM597.94,1204.7l-8.91-.21-11.31-11.51,14.67-7.68,5.55,19.4Z"/>
  </g>
  <g>
    <path class="cls-9" d="M682.15,344.57l6.76-2.28-1.13,6.64-19.29,6.85,1.35-7.02,5.41-1.83c1.49-9.01,3.32-17.19,5.48-24.53-2.29.32-4.59.79-6.88,1.42l.7-7.31c1.47-.48,4.14-.86,7.98-1.13l11.35-.99-1.15,6.49-7.29.91,2,1.37c-2.28,7.41-3.66,12.49-4.15,15.24-.49,2.75-.87,4.81-1.14,6.17Z"/>
    <path class="cls-9" d="M699.27,337.57c-1.09,5.02-2.17,10.42-3.25,16.21l-7.05,2.55c1.97-10.63,4.31-21.25,7.02-31.87l-1.39-5.63,5.68-2.98,5.27,20.32c1.31-6.77,2.76-13.52,4.33-20.27l6.59-.96c-2.71,12.23-4.92,23.54-6.64,33.93l-7.09,2.6-3.46-13.9Z"/>
    <path class="cls-9" d="M735.21,319.26c1.76,2.06,2.59,4.53,2.51,7.42-.1,3.4-.88,7.07-2.34,11-1.47,3.94-3.24,7.12-5.31,9.56-2.08,2.44-4.55,4.42-7.43,5.95-2.88,1.53-6.63,2.58-11.24,3.14,2.04-11.01,4.89-22.02,8.56-33.02-.43.11-.88.24-1.35.38l-1.8-6.47c2.32-.75,4.33-1.22,6.02-1.39,1.69-.18,2.79-.25,3.28-.22,4.31.37,7.35,1.58,9.1,3.64ZM719.55,347.79c4.33-2.41,7.37-5.75,9.13-10.03,1.76-4.28,2.67-7.6,2.73-9.96,0-2.13-.49-3.55-1.45-4.26-.97-.71-2.91-1.05-5.81-1.03l2.53,1.3c-3.14,7.84-5.52,15.83-7.12,23.98Z"/>
    <path class="cls-9" d="M748.04,344.57l6.76-2.28-1.13,6.64-19.29,6.85,1.35-7.02,5.41-1.83c1.49-9.01,3.32-17.19,5.48-24.53-2.29.32-4.59.79-6.88,1.42l.7-7.31c1.47-.48,4.14-.86,7.98-1.13l11.35-.99-1.15,6.49-7.29.91,2,1.37c-2.28,7.41-3.66,12.49-4.15,15.24-.49,2.75-.87,4.81-1.14,6.17Z"/>
    <path class="cls-9" d="M761.8,346.09c-1.14,3.58-1.8,6.24-1.97,7.98l-6.93,2.48c.3-3.99,1.47-8.97,3.49-14.95,2.02-5.97,6.11-14.43,12.27-25.38l4.86-.77c1.67,8.26,2.5,15.41,2.5,21.45,0,3.74-.22,7.63-.67,11.69l-6.2,2.24c.21-2.92.37-5.44.48-7.58l-7.82,2.84ZM764.78,337.57l5.07-1.37c-.06-2.53-.3-4.99-.7-7.36-1.35,1.83-2.81,4.74-4.38,8.73Z"/>
    <path class="cls-9" d="M785.32,337.57c-1.09,5.02-2.17,10.42-3.25,16.21l-7.05,2.55c1.97-10.63,4.31-21.25,7.02-31.87l-1.39-5.63,5.68-2.98,5.27,20.32c1.31-6.77,2.76-13.52,4.33-20.27l6.59-.96c-2.71,12.23-4.92,23.54-6.64,33.93l-7.09,2.6-3.46-13.9Z"/>
    <path class="cls-9" d="M804.56,346.09c-1.14,3.58-1.8,6.24-1.97,7.98l-6.93,2.48c.3-3.99,1.47-8.97,3.49-14.95,2.02-5.97,6.11-14.43,12.27-25.38l4.86-.77c1.67,8.26,2.5,15.41,2.5,21.45,0,3.74-.22,7.63-.67,11.69l-6.2,2.24c.21-2.92.37-5.44.48-7.58l-7.82,2.84ZM807.54,337.57l5.07-1.37c-.06-2.53-.3-4.99-.7-7.36-1.35,1.83-2.81,4.74-4.38,8.73Z"/>
    <path class="cls-9" d="M844.99,307.38c0,4.87-2.04,8.81-6.13,11.84l-2.79.28c1.61-2.58,2.42-4.84,2.42-6.81,0-1.51-.29-3.04-.86-4.57l7.36-.74ZM853.23,306.63c0,4.62-1.94,8.37-5.83,11.24l-2.65.26c1.53-2.45,2.3-4.6,2.3-6.47,0-1.44-.27-2.88-.82-4.34l6.99-.7Z"/>
    <path class="cls-9" d="M865.01,306.25c2.94,0,5.41.41,7.4,1.23,1.99.82,3.63,2.18,4.92,4.09,1.29,1.91,1.88,4.58,1.78,8.02-.1,3.76-.78,7.13-2.02,10.1-1.25,2.97-2.95,5.21-5.12,6.7-2.15,1.47-6.59,2.89-13.34,4.26-1.06,4.54-2.06,9.31-3,14.32l-8.98,3.25c2.6-14.02,6.22-28.02,10.88-42.01-.53.12-1.09.26-1.69.4l-2.3-8.25c3.78-1.41,7.6-2.12,11.47-2.12ZM861.18,330.9c3.58-.69,6.12-1.73,7.63-3.1,1.66-1.47,2.54-4.19,2.67-8.16.04-1.8-.64-3.01-2.04-3.63-1.4-.62-2.98-.94-4.74-.94-.41,0-.91.03-1.5.09l2.73,1.38c-1.7,4.42-3.28,9.2-4.75,14.35Z"/>
    <path class="cls-9" d="M882.95,345.15c-1.45,4.56-2.29,7.95-2.51,10.18l-8.83,3.16c.39-5.09,1.87-11.44,4.45-19.06,2.58-7.61,7.79-18.4,15.64-32.36l6.19-.98c2.13,10.53,3.19,19.64,3.19,27.35,0,4.76-.29,9.73-.86,14.9l-7.91,2.85c.27-3.72.47-6.94.61-9.66l-9.96,3.62ZM886.75,334.3l6.47-1.75c-.08-3.23-.38-6.36-.89-9.38-1.72,2.33-3.58,6.04-5.58,11.13Z"/>
    <path class="cls-9" d="M910.82,344.79l13.92-4.69-1.69,9.6-14.2,5.21v.06l-8.98,3.25c2.8-15.13,6.36-31.68,10.67-49.67l8.4-1.1c-3.23,13.92-5.94,26.37-8.13,37.34Z"/>
    <path class="cls-9" d="M940.01,306l14.5-1.26-2.24,8.62-14.69,1.72c-.86,3.6-1.69,7.16-2.48,10.7l10.49-2.08-1.62,8.74-10.88,2.61c-.78,3.56-1.51,7.09-2.21,10.61l17.17-5.98-1.78,8.92-26.15,9.63c2.6-14.08,5.71-28.15,9.35-42.19-.16.04-.33.08-.49.12l-1.96-7.79c3.78-1.23,8.11-2.01,13-2.36Z"/>
    <path class="cls-9" d="M970.73,345.15c-1.45,4.56-2.29,7.95-2.51,10.18l-8.83,3.16c.39-5.09,1.87-11.44,4.45-19.06,2.58-7.61,7.79-18.4,15.64-32.36l6.19-.98c2.13,10.53,3.19,19.64,3.19,27.35,0,4.76-.29,9.73-.86,14.9l-7.91,2.85c.27-3.72.47-6.94.61-9.66l-9.96,3.62ZM974.54,334.3l6.47-1.75c-.08-3.23-.38-6.36-.89-9.38-1.72,2.33-3.58,6.04-5.58,11.13Z"/>
    <path class="cls-9" d="M998.6,344.79l13.92-4.69-1.69,9.6-14.2,5.21v.06l-8.98,3.25c2.8-15.13,6.36-31.68,10.67-49.67l8.4-1.1c-3.23,13.92-5.94,26.37-8.13,37.34Z"/>
    <path class="cls-9" d="M1027.79,306l14.5-1.26-2.24,8.62-14.69,1.72c-.86,3.6-1.69,7.16-2.48,10.7l10.49-2.08-1.62,8.74-10.88,2.61c-.78,3.56-1.51,7.09-2.21,10.61l17.17-5.98-1.78,8.92-26.15,9.63c2.6-14.08,5.71-28.15,9.35-42.19-.16.04-.33.08-.49.12l-1.96-7.79c3.78-1.23,8.11-2.01,13-2.36Z"/>
    <path class="cls-9" d="M1049.68,307.38c0,4.87-2.04,8.81-6.13,11.84l-2.79.28c1.61-2.58,2.42-4.84,2.42-6.81,0-1.51-.29-3.04-.86-4.57l7.36-.74ZM1057.92,306.63c0,4.62-1.94,8.37-5.83,11.24l-2.65.26c1.53-2.45,2.3-4.6,2.3-6.47,0-1.44-.27-2.88-.82-4.34l6.99-.7Z"/>
    <path class="cls-9" d="M1092.15,314.39l-1.15,6.83-4.35.55,1.39,1.06c-1.86,4.54-3.2,8.51-4.03,11.9-.83,3.4-1.86,7.99-3.1,13.78-1.24,5.79-3.03,9.47-5.35,11.05-2.32,1.58-4.54,2.37-6.64,2.37-2.29,0-4.16-.63-5.62-1.9-1.45-1.27-2.67-2.93-3.64-5l4.93-4.5c1.35,2.71,2.99,4.06,4.93,4.06,1.15,0,2.3-.62,3.43-1.85,1.13-1.23,2.24-4.83,3.32-10.8,1.08-5.96,2.88-12.53,5.4-19.7-1.8.14-3.92.51-6.37,1.08l-1.8-6.45c2.97-.96,6.36-1.58,10.2-1.85l8.47-.65Z"/>
    <path class="cls-9" d="M1108.48,327.09l2.93-.91c.83,2.65.82,6.29-.04,10.93-.86,4.64-3,8.54-6.42,11.7-3.42,3.16-6.87,4.35-10.33,3.58-3.46-.77-5.82-3.07-7.06-6.9-1.24-3.83-1.13-8.89.32-15.19,1.46-6.29,3.99-10.6,7.59-12.91,3.6-2.32,6.79-3.1,9.58-2.34,2.79.75,5.52,3.19,8.18,7.31l-4.76,4.74ZM1106.72,327.62c-1.11-3.43-2.39-5.32-3.85-5.68-1.59-.38-3.33.37-5.22,2.26s-3.23,4.55-4,7.97c-.78,3.42-.92,6.4-.42,8.92.5,2.53,1.54,3.99,3.13,4.39,1.59.4,3.28-.28,5.07-2.06,1.8-1.77,3.05-4.18,3.75-7.24.71-3.05.94-5.82.7-8.31l.84-.26Z"/>
    <path class="cls-9" d="M1119.95,337.57c-1.09,5.02-2.17,10.42-3.25,16.21l-7.05,2.55c1.97-10.63,4.31-21.25,7.02-31.87l-1.39-5.63,5.68-2.98,5.27,20.32c1.31-6.77,2.76-13.52,4.33-20.27l6.59-.96c-2.71,12.23-4.92,23.54-6.64,33.93l-7.09,2.6-3.46-13.9Z"/>
    <path class="cls-9" d="M1147.92,315.38l11.38-.99-1.76,6.76-11.52,1.35c-.67,2.82-1.32,5.62-1.95,8.39l8.23-1.64-1.27,6.85-8.54,2.04c-.61,2.79-1.19,5.56-1.73,8.32l13.47-4.69-1.39,7-20.51,7.55c2.04-11.05,4.48-22.08,7.33-33.09-.13.03-.26.06-.38.1l-1.54-6.11c2.97-.96,6.36-1.58,10.2-1.85Z"/>
    <path class="cls-9" d="M1177.12,320.09c-2.44.27-5.26.86-8.48,1.77-3.21.91-4.82,2.43-4.82,4.58,0,1.92,1.46,3.85,4.38,5.77,2.92,1.92,4.38,4.89,4.38,8.9,0,4.73-1.75,8.2-5.25,10.43-3.5,2.22-7.56,3.76-12.16,4.61l-3.15-6.33c1.96-.48,4.82-1.46,8.59-2.95,3.77-1.48,5.65-3.34,5.65-5.57,0-1.97-1.52-3.87-4.56-5.7-3.04-1.83-4.56-4.65-4.56-8.47,0-4.18,1.37-7.22,4.11-9.11,2.74-1.89,6.92-3.44,12.53-4.64l3.34,6.71Z"/>
  </g>
</svg>