<?xml version="1.0" encoding="UTF-8"?>
<svg id="Lager_2" data-name="Lager 2" xmlns="http://www.w3.org/2000/svg" viewBox="0 0 224.87 828.39" height="290" width="50">
  <defs>
    <style>
      .cls-1, .cls-2 {
        fill: #6a4231;
      }

      .cls-3 {
        fill: #523225;
      }

      .cls-4 {
        fill: #56772c;
        stroke: #fff;
        stroke-width: .25px;
      }

      .cls-4, .cls-5, .cls-6, .cls-2 {
        stroke-miterlimit: 10;
      }

      .cls-7 {
        fill: #332017;
      }

      .cls-5 {
        stroke-width: 2.74px;
      }

      .cls-5, .cls-6 {
        fill: none;
      }

      .cls-5, .cls-6, .cls-2 {
        stroke: #1d1d1b;
      }

      .cls-6 {
        stroke-width: 4.11px;
      }

      .cls-8 {
        fill: #503228;
      }

      .cls-2 {
        stroke-width: .69px;
      }

      .cls-9 {
        fill: #ededed;
        opacity: .23;
      }

      .cls-10 {
        fill: #fef4dc;
      }
    </style>
  </defs>
  <g id="Lager_1-2" data-name="Lager 1">
    <g>
      <path class="cls-3" d="M151.16,10.84c-5.92-2.73-13.76-5.62-23.27-7.31-8.84-1.57-16.3-1.61-21.38-1.36-4.19.21-10.84.82-18.77,2.83-7.06,1.8-12.97,4.15-17.58,6.35-.86,14.79-1.72,29.58-2.58,44.37-.01.95.1,2.3.65,3.8.82,2.24,2.2,3.64,2.9,4.27.99.89,1.97,1.42,2.64,1.73-.53,5.55-1.06,11.1-1.59,16.65-.95,10.01-1.91,20.02-2.86,30.03-1.01,10.56-2.01,21.12-3.02,31.68-1.15,12.07-2.3,24.14-3.45,36.21-1.1,11.55-2.2,23.09-3.3,34.64l-3.49,36.58c.05-.8-.38,3.76-1.23,12.91-.18,1.94-.41,4.41-1.19,7.64-.71,2.97-1.55,5.19-1.92,6.13-.62,1.57-2.17,5.23-5.1,9.39-3.22,4.58-6.47,7.45-7.41,8.26-1.92,1.65-2.21,1.6-5.16,4.11-1.98,1.68-3.79,3.24-5.78,5.51-.86.98-1.98,2.36-3.59,4.76-3.27,4.88-5.36,9.25-6.4,11.48-4.09,8.83-6.45,16.21-7.94,20.93-1.7,5.38-2.89,9.91-3.67,12.91-1.09,4.16-1.93,7.72-2.54,10.44-.03,5.74-.06,11.48-.09,17.22-.07,13.83-.14,27.67-.21,41.5-.04,8.25-.08,16.51-.12,24.76-.05,10.77-.11,21.54-.16,32.31-.05,10.33-.1,20.67-.16,31-.07,13.11-.13,26.22-.2,39.32-.06,12.83-.13,25.67-.19,38.5-.06,11.08-.11,22.15-.17,33.23-.05,10.4-.1,20.8-.16,31.2-.08,15.87-.37,73.51-.37,74.59-.04,9.2-.18,37.97-.22,47.44.06,1.09.18,2.51.44,4.17.6,3.78,1.62,6.68,2.25,8.28.56,1.43,1.87,4.51,4.28,8.02,2.55,3.72,5.07,6.07,6.62,7.5,1.52,1.4,4.33,3.97,8.58,6.35,3.27,1.84,5.85,2.69,10.24,4.13,6.04,1.97,10.77,3.03,12,3.3,16.89,3.71,29.74,5.3,29.74,5.3,6.14.76,19.84,2.27,37.67,2.39,16.98.12,29.92-1.07,35.66-1.68,5.46-.57,13.73-2.15,30.27-5.3,3.18-.61,8.03-1.57,13.61-4.51,4-2.11,6.71-4.35,9.29-6.52,3.34-2.8,7.8-6.54,11.83-12.74,1.94-2.98,4.54-7.71,6.26-14.14.02-12.83.03-25.67.05-38.5.03-22.35.06-44.69.08-67.04.04-29.49.07-58.98.11-88.47.01-8.93.15-122.7.15-123.1,0-6.93.1-85.82.1-93.03-.25-3.24-.7-7.3-1.53-11.95-1.44-8.05-3.36-14.18-4.33-17.07-.91-2.71-3.57-10.35-8.6-19.58-4.4-8.08-7.77-14.27-14.03-20.63-2.16-2.19-5.22-4.98-9.28-9.96-1.94-2.39-3.78-4.66-5.75-7.99-.64-1.08-3.29-5.62-5.43-12.4-.39-1.25-1.6-5.19-2.75-13.32-.92-6.44-1.08-10.46-1.48-16.19-.07-.99-.03-.4-2.07-22.15,0,0-1.7-18.19-2.42-25.88-.83-8.92-1.67-17.83-2.5-26.75-.91-9.7-1.81-19.41-2.72-29.11-.85-9.05-1.69-18.09-2.54-27.14-.67-7.19-1.34-14.38-2.02-21.57-.73-7.85-1.47-15.71-2.2-23.56.82-.71,2-1.89,2.99-3.61.39-.68,1.32-2.42,1.71-4.87.41-2.59.03-4.74-.3-6.02-1-8.19-2-16.38-2.99-24.57-.64-5.38-1.28-10.76-1.93-16.13Z"/>
      <path class="cls-2" d="M155.66,140.88c-1.76-.69-3.52-1.38-5.28-2.07-1.26-.49-2.12-1.67-2.21-3.03-.71-10.34-1.43-20.69-2.14-31.03-.01-.21-.01-.41.01-.62.21-1.78.56-7.34-3.13-12.48-2.36-3.29-5.33-4.94-7.07-5.71-.42-.19-.87-.28-1.33-.29-13.76-.25-27.53-.51-41.29-.76-.42,0-.84.06-1.24.2-1.61.59-4.42,1.9-6.85,4.73-2.89,3.35-3.63,6.94-3.85,8.48-.01.08-.02.15-.03.23-4.55,54.9-9.11,109.8-13.66,164.7-.35,2.71-.6,7.21.77,12.5,1.19,4.6,3.17,8.11,4.8,10.45.66.94,1.71,1.49,2.85,1.49,4.66,0,11.11.81,17.37,4.46,2.65,1.54,5.67,3.36,7.22,7.03,1.94,4.59.34,9.17,0,10.16-2.96,8.49-11.76,8.92-25.02,17.71-4.91,3.25-13.64,9.03-19.61,18.49-6.42,10.17-7.34,20.95-7.22,27.86-.8,49.26-1.32,99-1.55,149.2-.31,69.71-.04,138.52.77,206.42,0,.22.02.42.06.64,1.25,6.49,4.12,16.92,11.29,27.81,9.63,14.62,21.53,21.73,24.51,23.43,12.04,6.9,23.37,8.62,29.91,9.09.18.01.35.04.53.08,14.86,3.63,40.28,7.57,70.16.72,13.83-3.17,25.4-7.93,34.49-12.56,1.16-.59,1.89-1.8,1.89-3.12.02-14.06.12-86.27.13-90.95.01-7.61.12-95.48.13-100.38.04-34.8.15-69.61.13-104.41-.01-16.62-.05-39.57.13-71.61.08-14.77.18-26.96.26-35.19,0-.16,0-.31-.02-.46-.81-7-2.11-12.86-3.33-17.34-.7-2.59-1.64-6.02-3.35-10.42-1.51-3.87-2.58-5.83-5.8-12.89-2.74-6-2.65-6.05-3.61-8.07-5.43-11.39-12.86-19.6-16.25-23.3-5.67-6.19-6.48-5.67-9.54-10.02-2.96-4.21-5.15-8.9-7.31-16.59-1.69-6.02-3.67-15.05-4.34-26.76-1.53-18.48-3.05-36.93-4.58-55.41-1.86-15.86-3.73-31.71-5.59-47.57-.15-1.29-1-2.39-2.2-2.86Z"/>
      <path class="cls-6" d="M151.16,10.84c-7.54-3.48-20.89-8.45-38.18-8.77-19.87-.37-35.06,5.59-42.82,9.29-.86,14.79-1.72,29.58-2.58,44.37-.01.96.08,3.27,1.55,5.68,1.57,2.58,3.78,3.73,4.64,4.13-6.36,66.73-12.73,133.46-19.09,200.18-.38,3.62-1.34,9.06-4.13,14.96-5.36,11.32-14.19,17.36-16.51,19.09-8.9,6.63-20.11,23-29.92,66.04-.69,136.9-1.38,273.79-2.06,410.69.14,3.46,1.02,13.74,8.77,23.22,9.25,11.3,20.39,15.1,23.41,15.54,48.56,15.16,119.44,14.06,155.75.97,4.08-1,11.98-6.13,20.51-15.48,6.67-7.3,9.26-15.03,10.32-19.09-4.87-244.97-2.9-328.68.45-353.93.14-1.03,3.39-25.51.07-56.24-1.59-14.74-4.21-26.33-9.29-38.18-1.49-3.49-5.72-12.9-13.41-23.73-9.57-13.49-14.2-14.65-20.12-24.25-3.88-6.28-8.38-16.29-9.29-31.47-5.85-62.6-11.69-125.2-17.54-187.8,1.43-1.3,3.32-3.42,4.26-6.45.89-2.9.52-5.38.39-6.32-.79-5.47-2.6-21.13-5.16-42.44Z"/>
      <g>
        <path class="cls-1" d="M79.7,17.29c-.59,3.88-1.11,7.93-1.55,12.12-.72,6.98-1.12,13.61-1.29,19.86,0,.8.14,3.95,2.58,6.71,2.38,2.69,5.38,3.23,6.19,3.35,14.79.26,29.58.52,44.37.77.34-.06,2.36-.43,3.61-2.32,1.48-2.24.61-4.66.52-4.9-.34-10.75-.69-21.5-1.03-32.25-5.78,1.45-10.67,2.18-14.19,2.58-8.5.97-17.35,1.89-27.6-1.03-5.13-1.46-9.08-3.45-11.61-4.9Z"/>
        <path class="cls-1" d="M84.09,71.98c18.32.6,36.63,1.2,54.95,1.81,1.31.34,2.25,1.5,2.32,2.84.07,1.37-.77,2.63-2.06,3.1-18.57.26-37.15.52-55.72.77-1.97-1.03-3.01-3.18-2.58-5.16.53-2.42,2.96-3.31,3.1-3.35Z"/>
        <path class="cls-8" d="M173.86,275.78c-1.76.75-4.72,1.9-8.51,2.84-6.59,1.64-9.83,1.18-17.8,3.1-6.84,1.64-8.78,3.01-9.8,4.9-1.43,2.64-.59,5.43-.52,5.68.36,1.15,1.56,3.87,8.26,6.45,5.5,2.12,9.8,2.25,13.67,2.58,4.07.35,12.37,1.06,20.12,3.87,7.55,2.74,12.93,6.87,19.09,11.61,3.99,3.07,7.11,5.9,9.29,8-1.28-2.85-2.88-5.99-4.9-9.29-.69-1.13-3.03-4.87-7.74-10.58-2.23-2.7-5.87-6.7-13.16-14.7-1.92-2.11-4.54-4.97-6.45-9.54-.83-1.99-1.29-3.72-1.55-4.9Z"/>
        <ellipse class="cls-9" cx="172.29" cy="351.68" rx="17.8" ry="33.67" transform="translate(-198.21 224.83) rotate(-45)"/>
        <ellipse class="cls-9" cx="144.2" cy="207.16" rx="2.84" ry="35.6"/>
        <ellipse class="cls-9" cx="137.92" cy="127.06" rx="3.44" ry="22.83"/>
        <ellipse class="cls-9" cx="73.51" cy="468.74" rx="11.61" ry="76.62"/>
        <path class="cls-9" d="M75.06,247.4c-3.5-5.42-3.79-12.02-.77-17.03,2.42-4.02,7.55-8,12.38-6.97,6.77,1.46,9.11,11.96,8.51,18.57-.11,1.25-1.02,9.81-7.74,13.93-1.39.85-5.17,3.18-8.51,1.55-2.95-1.44-4.6-5.5-3.87-10.06Z"/>
        <path class="cls-10" d="M1.54,413.79c15.82,11.22,52.32,33.89,104.48,38.7,55.39,5.1,97.49-12.81,114.84-21.39-.87,61.05-1.75,122.09-2.62,183.14-15.23,9.92-52.11,31-103.71,32.5-55.88,1.62-96.38-20.68-111.67-30.17-.44-67.59-.88-135.19-1.32-202.78Z"/>
        <path class="cls-5" d="M69.9,11.62c9.26,3.27,17.21,5.04,22.96,6.06,11.25,2,24.16,4.29,39.6.64,8.23-1.94,14.6-4.97,18.7-7.22"/>
        <path class="cls-7" d="M135.15,12.43c0,2.87-10.45,5.2-23.33,5.2s-23.34-2.33-23.34-5.2,10.45-5.2,23.34-5.2,23.33,2.33,23.33,5.2Z"/>
      </g>
      <g>
        <path class="cls-4" d="M18.49,509.32c2.57.7,5.16,1.34,7.77,1.93-.48,2.41-.96,4.82-1.44,7.23-2.69-.51-5.36-1.08-8.02-1.7-.82,3.61-1.75,8.07-2.78,13.4-2.55-.3-5.08-.65-7.6-1.06,2.13-11.09,4.66-21.99,7.62-32.74-.16-.02-.32-.06-.5-.11-.65-2.92-1.3-5.85-1.95-8.79,3.22.57,6.21,1.32,8.96,2.29,2.74.96,7.12,2.6,13.24,4.58-.5,2.48-1.01,4.96-1.51,7.43-5.41-1.56-9.07-2.81-11.09-3.46-.95,3.7-1.86,7.36-2.72,10.99Z"/>
        <path class="cls-4" d="M48.64,527.34c.59,1.24,1.01,2.2,1.27,2.88.48,1.26.83,3.84,1.05,7.74-2.28.68-4.55,1.33-6.81,1.93,0-2.9-.16-5.3-.47-7.21-.31-1.91-.74-3.41-1.28-4.49-.07-.13-.17-.28-.3-.43-1.49-.1-3.2-.29-5.12-.6-.94,3.73-1.82,7.69-2.65,11.88-2.64-.02-5.26-.1-7.87-.23,2.26-11.64,5.43-22.91,9.55-33.95-.47-.06-.97-.13-1.49-.2-.68-2.72-1.35-5.45-2.02-8.18,3.32.02,6.71.61,10.15,1.75,2.62.87,4.83,1.92,6.62,3.18,1.79,1.27,3.27,2.91,4.43,4.94,1.16,2.04,1.7,4.57,1.61,7.63-.09,3.35-.7,6.22-1.83,8.58-1.13,2.36-2.66,3.94-4.61,4.69-.07.03-.15.06-.22.07ZM39.23,519.22c3.17.49,5.45.28,6.8-.52,1.48-.86,2.28-3.06,2.39-6.59.04-1.6-.57-2.87-1.83-3.82-1.25-.95-2.66-1.68-4.23-2.2-.36-.12-.81-.24-1.34-.37.81.69,1.62,1.37,2.43,2.05-1.51,3.47-2.92,7.28-4.23,11.45Z"/>
        <path class="cls-4" d="M66.71,537.94c2.62-.32,5.25-.7,7.88-1.12-.44,2.46-.88,4.91-1.32,7.37-7.51,1.28-14.97,2.17-22.34,2.66.51-2.53,1.03-5.07,1.55-7.6,2.07-.12,4.15-.26,6.23-.44,1.72-9.89,3.84-18.74,6.35-26.6-2.66-.21-5.32-.3-7.96-.26.27-2.72.54-5.44.81-8.16,1.7-.12,4.78.21,9.26.83,4.4.53,8.83.93,13.27,1.19-.45,2.41-.9,4.83-1.35,7.24-2.85-.08-5.69-.21-8.52-.4.78.67,1.55,1.34,2.33,2-2.66,8-4.27,13.48-4.84,16.52-.57,3.03-1.01,5.29-1.33,6.79Z"/>
        <path class="cls-4" d="M107.5,509.1c4.48-.3,8.97-.73,13.45-1.31-.69,2.61-1.38,5.22-2.08,7.82-4.54.67-9.08,1.2-13.62,1.59-.8,3.21-1.56,6.39-2.3,9.53,3.24-.5,6.48-1.07,9.73-1.71-.5,2.62-1,5.24-1.51,7.85-3.37.78-6.73,1.48-10.09,2.1-.72,3.16-1.4,6.3-2.05,9.42,5.3-1.49,10.61-3.17,15.92-5.05-.55,2.68-1.1,5.36-1.65,8.03-8.09,2.95-16.18,5.46-24.23,7.51,2.4-12.4,5.28-24.77,8.65-37.17-.15.03-.3.05-.45.08-.61-2.37-1.21-4.74-1.82-7.12,3.5-.85,7.52-1.34,12.05-1.57Z"/>
        <path class="cls-4" d="M125.53,534.08c-1.29,5.83-2.57,12.09-3.83,18.77-2.78,1.1-5.55,2.16-8.33,3.15,2.33-12.19,5.1-24.41,8.3-36.72-.55-2.12-1.1-4.24-1.65-6.37,2.24-1.23,4.47-2.49,6.7-3.78,2.07,7.61,4.14,15.19,6.21,22.74,1.55-7.9,3.25-15.82,5.1-23.78,2.58-.68,5.16-1.42,7.73-2.19-3.17,14.51-5.77,27.81-7.79,39.95-2.78,1.33-5.57,2.61-8.35,3.84-1.36-5.19-2.72-10.39-4.09-15.61Z"/>
        <path class="cls-4" d="M159.11,512.1c.66.14,1.32.27,1.98.4-.24,1.07-.48,2.13-.73,3.2-1.93,8.45-4.02,18.68-6.26,30.67-2.74,1.52-5.48,2.99-8.23,4.4,2.36-12.62,4.89-24.92,7.59-36.9-1.83.63-4.16,1.56-7,2.72-.7-2.48-1.41-4.97-2.11-7.46,3.48-1.61,6.67-2.88,9.58-3.75,2.91-.88,8.1-2.33,15.48-4.85-.45,2.87-.9,5.74-1.36,8.6-3.64,1.27-6.63,2.24-8.95,2.98Z"/>
        <path class="cls-4" d="M184.44,523.95c.58.86.99,1.54,1.25,2.06.47.95.81,3.3,1.03,7.06-2.24,2.16-4.49,4.29-6.75,6.38,0-2.9-.16-5.2-.47-6.91-.31-1.71-.74-2.92-1.29-3.64-.07-.09-.17-.16-.3-.23-1.5.88-3.22,1.81-5.17,2.77-.96,4.35-1.86,8.9-2.7,13.63-2.7,1.73-5.41,3.4-8.13,5.02,2.36-13.16,5.65-26.55,9.84-40.31-.48.25-.98.51-1.52.79-.69-2.27-1.38-4.55-2.07-6.84,3.41-2.19,6.85-3.84,10.3-4.95,2.63-.85,4.82-1.25,6.58-1.15,1.77.1,3.21.78,4.34,2.06,1.13,1.28,1.65,3.48,1.56,6.59-.09,3.41-.68,6.67-1.78,9.76-1.1,3.09-2.6,5.66-4.52,7.69-.07.08-.14.15-.22.21ZM175.04,521.99c3.21-1.6,5.47-3.3,6.82-4.98,1.47-1.82,2.26-4.55,2.37-8.15.04-1.63-.57-2.5-1.81-2.63-1.24-.13-2.65.06-4.22.57-.37.12-.81.29-1.34.51.81.16,1.63.31,2.44.46-1.51,4.46-2.93,9.2-4.25,14.23Z"/>
        <path class="cls-4" d="M203.96,488.5c4.16-2.33,8.27-4.79,12.32-7.39-.63,2.92-1.25,5.84-1.88,8.76-4.12,2.72-8.3,5.31-12.53,7.75-.74,3.57-1.46,7.09-2.15,10.57,3.03-1.97,6.03-4,9.01-6.11-.46,2.85-.92,5.69-1.39,8.53-3.1,2.3-6.23,4.52-9.38,6.67-.68,3.49-1.32,6.93-1.92,10.35,4.99-3.89,9.91-7.98,14.77-12.25-.5,2.93-1.01,5.85-1.51,8.78-7.42,6.61-15,12.77-22.7,18.49,2.29-13.49,5.04-27.17,8.21-41.1-.14.1-.29.19-.43.29-.57-2.1-1.14-4.19-1.72-6.29,3.31-2.43,7.08-4.75,11.28-7.03ZM208.58,483.57c-1.13.54-2.27,1.06-3.41,1.58-1.66-.75-3.32-1.53-4.99-2.32,1.75-1.81,3.49-3.64,5.23-5.5,1.06,2.09,2.12,4.17,3.17,6.24Z"/>
      </g>
    </g>
  </g>
</svg>