<?xml version="1.0" encoding="UTF-8"?>
<svg id="Lager_1" data-name="Lager 1" xmlns="http://www.w3.org/2000/svg" viewBox="0 0 2090.83 1576.05">
  <defs>
    <style>
      .cls-1 {
        fill: #725e51;
      }

      .cls-2 {
        fill: #966545;
      }

      .cls-3 {
        fill: #a97759;
      }

      .cls-4 {
        fill: #b1b2a5;
      }

      .cls-5 {
        fill: #8c7363;
      }

      .cls-6 {
        fill: #564940;
      }

      .cls-7 {
        fill: #007839;
      }

      .cls-8 {
        fill: #7f724b;
      }

      .cls-9 {
        fill: #bb8362;
      }

      .cls-10 {
        fill: #6e4f35;
      }

      .cls-11 {
        fill: #009245;
      }

      .cls-12 {
        fill: #868686;
      }

      .cls-13 {
        fill: #806656;
      }

      .cls-14, .cls-15 {
        fill: #6a4130;
      }

      .cls-16 {
        fill: #d9d9d9;
      }

      .cls-16, .cls-17, .cls-18, .cls-19, .cls-15, .cls-20, .cls-21, .cls-22 {
        stroke-miterlimit: 10;
      }

      .cls-16, .cls-17, .cls-18, .cls-19, .cls-15, .cls-21, .cls-22 {
        stroke: #1d1d1b;
      }

      .cls-16, .cls-19 {
        stroke-width: .55px;
      }

      .cls-23 {
        fill: #331f17;
      }

      .cls-24 {
        fill: #645144;
      }

      .cls-25 {
        fill: #1d1d1b;
      }

      .cls-26 {
        fill: #513225;
      }

      .cls-27 {
        fill: #523112;
      }

      .cls-28 {
        fill: #d79671;
      }

      .cls-29 {
        fill: #f4f6e4;
      }

      .cls-17 {
        stroke-width: 1.46px;
      }

      .cls-17, .cls-18, .cls-19, .cls-21, .cls-22 {
        fill: none;
      }

      .cls-30 {
        fill: #8d7f54;
      }

      .cls-31 {
        fill: #fdf3db;
      }

      .cls-32 {
        fill: #fff;
      }

      .cls-33 {
        fill: #e0e2d1;
      }

      .cls-18 {
        stroke-width: .73px;
      }

      .cls-34 {
        fill: #4f3227;
      }

      .cls-35 {
        fill: #3c3129;
      }

      .cls-36 {
        fill: #7d704a;
      }

      .cls-15 {
        stroke-width: .66px;
      }

      .cls-37 {
        fill: #1a693e;
      }

      .cls-38 {
        fill: #cbcdbe;
      }

      .cls-39 {
        fill: #ececec;
        opacity: .23;
      }

      .cls-20 {
        fill: #55762c;
        font-family: IndianaJonas-Italic, 'Indiana Jonas';
        font-size: 41.9px;
        font-style: italic;
        stroke: #fff;
        stroke-width: .44px;
      }

      .cls-21 {
        stroke-width: 2.66px;
      }

      .cls-40 {
        fill: #6e5a4d;
      }

      .cls-41 {
        fill: #7e5a3c;
      }

      .cls-22 {
        stroke-width: 3.99px;
      }

      .cls-42 {
        fill: #58473c;
      }
    </style>
  </defs>
  <rect class="cls-11" width="2090.83" height="1576.05"/>
  <ellipse class="cls-7" cx="1223.82" cy="1380.83" rx="175.13" ry="46.48"/>
  <ellipse class="cls-7" cx="583.9" cy="1491.37" rx="126.2" ry="46.48"/>
  <g>
    <path class="cls-24" d="M1104.45,526.39c-1.63.43-4.01,1.15-6.77,2.34-3.09,1.34-4.43,2.31-10.09,5.67-5.59,3.33-8.43,5-10.38,5.72-4.55,1.68-5.7.98-9.39,2.45-3.25,1.29-6.51,3.48-9.57,6.99-2.48-4.08-5.8-10.42-7.95-18.48-.78-2.91-2.18-8.3-2.31-15.4-.03-1.86.05-2-.04-2.42-.93-4.11-13.27-7.34-61.61-4.14-.12,2.32-.33,5.88-.76,10.23-.65,6.72-1.48,12.04-2.96,21.55-1.36,8.71-1.46,8.61-1.87,12.1-.72,6.16-.96,11.18-1.16,15.68-.15,3.39-.29,7.68-.3,12.66.44,2.37,1.08,5.62,1.98,9.45.58,2.47,2.24,9.59,4.29,15.57,1.83,5.33,5.11,13.09,11.28,22.08-.02.75-.02,1.84.08,3.15.27,3.51,1.07,6.16,1.93,8.71,2.02,6.01,3.04,9.02,4.8,12.28.6,1.12,3.08,5.59,7.6,10.59,4.63,5.12,8.96,8.09,13.27,11,3.59,2.42,8.59,5.45,14.96,8.27.68,1.96,1.41,4.25,2.09,6.84,1.04,3.95,1.57,6.99,1.67,7.6.66,3.88.46,4.45,1.23,9.96.54,3.84.81,5.76,1.3,7.12.84,2.32,2.14,4.42,5.77,8.26,4.74,5.02,9.14,8.44,10.88,9.76,6.5,4.94,8.42,5.24,11.31,9.08,1.96,2.6,3.1,5.16,3.69,6.68.62,1.58,1.01,3.04,1.92,8.92,1.3,8.48,1.95,12.71,2.08,15.94.08,1.98.06,3.47.64,5.63.91,3.4,2.54,5.67,3.51,7.02,3.51,4.91,6.73,10.01,10.29,14.88,1.59,2.17,3.97,5.46,6.86,9.56,2.3.13,4.6.26,6.89.39-1.82,2.6-3.8,6.05-5.3,10.33-.35,1-1.79,5.23-2.28,11.07-.29,3.42-.17,6.34.04,8.54,3.49-.19,6.99-.38,10.49-.56.11-1.61.51-4.19,2.05-6.87.73-1.27,2.62-4.47,6.49-6.09,1.3-.54,2.46-.76,3.28-.86-.08,1.74-.19,4.26-.27,7.3-.11,4.08-.16,6.17-.04,8.69.15,3.3.49,5.76.78,7.78.45,3.2,1.19,7.32,2.45,12.07-.03,1.46-.21,3.29-.8,5.32-.28.96-.6,1.82-.94,2.58,1.85,3.71,3.46,6.78,4.66,9.02,5.54,10.34,8.44,14.42,10.57,17.15.77.99,1.42,1.78,1.83,2.27,6.17-1.99,12.34-3.97,18.51-5.96,5.77,1.46,11.9,2.82,18.38,3.99,12.29,2.23,23.76,3.43,34.16,3.98.99-.54,2.5-1.36,4.34-2.35,6.71-3.63,8.52-4.56,10.08-5.41,7.5-4.11,13.12-8.66,17-11.79,2.63-2.12,5.58-4.66,8.7-7.65-1.75-3.31-4.14-7.44-7.26-11.99-1.83-2.66-5.65-8-11.55-14.35-5.96-6.42-9.25-8.73-14.71-13.72-7.59-6.94-12.21-12.53-20.22-22.21-5.23-6.32-12.85-16.04-21.03-28.53-.49-.75-.9-1.38-1.17-1.81-.22-2.09-.55-4.95-1.04-8.33-.81-5.63-1.93-11.82-3.82-19.91-.65-2.79-2.36-9.95-6.58-24.19-2.52-8.5-5.65-18.99-10.4-32.61-5.83-16.7-6.53-16.43-9.03-25.55-2.81-10.29-1.99-10.93-5.53-23.98-2.68-9.9-3.86-12.13-5.7-20.85-1.01-4.76-2.11-10.07-2.55-17.18-.43-6.91-.07-12.73.39-16.97.08-.69.16-1.38.24-2.06-3.18-5.83-5.72-10.71-7.53-14.27-3.57-7.02-4.75-9.7-5.24-10.83-2.22-5.15-3.69-9.53-4.61-12.51-1.32-1.24-3.02-3.07-4.65-5.53-2.06-3.11-3.04-5.8-3.61-7.39-.81-2.26-1.73-5.52-2.09-9.59-.05-.71-.1-1.43-.15-2.14l-1.45.23Z"/>
    <path class="cls-24" d="M1276.87,566.28c-7.22-3.45-12.78-6.68-16.42-8.92-9.03-5.57-13.03-9.2-21.97-13.73-4.9-2.48-9.05-4.1-11.65-5.03.68-.26,1.72-.56,2.99-.56,2.62,0,4.44,1.28,6.56,2.65,4.82,3.13,2.91,1.35,9.27,5.46,4.8,3.1,4.96,3.51,7.25,4.63,3.55,1.72,6.59,2.4,7.82,2.65,2.53.5,7.63,1.52,13.11-.26,3.41-1.11,2.82-1.96,7.5-4.28,2.63-1.3,8.02-3.91,15.07-3.9,3.18,0,5.73,0,8.6,1.37,2.5,1.19,3.16,2.41,5.55,2.76,1.53.22,3.15-.23,6.34-1.15,3.85-1.12,4.01-1.59,6.42-2.02,2.22-.4,4.36-.78,6.49.2.95.43.79.63,3.88,3.46,3.23,2.97,4.48,3.74,5.01,4.05.73.43,1.45.78,3.78,1.67,4.44,1.69,6.83,2.32,11.46,3.99,4.02,1.45,4.54,1.82,4.87,2.07,2.11,1.63,4.47,4.82,5.05,5.59.8,1.08,1.39,1.98,2.49,2.2.92.18,1.67-.22,2.78-.79,3-1.54,4.5-2.31,5.36-2.56,2.86-.84,5.59.3,6.47.67,3.06,1.28,2.98,2.92,5.89,3.66.5.13,2.44.57,4.66-.08,1.62-.48,2.3-1.22,3.72-2.12,1.94-1.23,3.18-1.43,6.44-2.44,4.98-1.54,4.08-1.68,11.94-4.32,6.33-2.12,7.27-2.15,8.31-1.86.9.25,2.53.92,4.32.3.82-.29,1.42-.75,1.79-1.11,2.2,1.82,5.45,3.86,9.4,3.91,5.31.07,8.87-3.45,26.47-19.94,5.39-5.05,11.35-10.5,18.14-10.32,1.02.03,2.92.2,4.91.53,4.96.82,8.85,2.32,11.35,3.47,4.71,2.17,7.98,4.68,9.49,5.92,6.22,5.12,9.38,10.66,10.27,12.3,3.06,5.63,4.17,10.86,4.61,14.32-1.16,1.64-2.92,4.1-5.12,7.04-9.02,12.08-10.4,12.27-15.69,19.78-3.94,5.6-6.41,10.09-12.31,18.81-2.54,3.75-4.18,6.01-6.86,8.1-.81.63-1.77,1.29-2.96,2.56-2.12,2.27-2.95,4.35-3.69,5.83-.5,1.01-3.49,7.02-8.76,9.87-4.04,2.19-5.99.66-8.68,3.36-1.31,1.31-2.11,2.94-3.36,5.45-1.73,3.5-1.37,4.07-2.47,5.4-2.11,2.56-5.55,2.97-7.87,3.25-4.94.59-8.99-.97-11.16-2.03-1.61.38-4.2.9-7.42,1.03-5.61.23-8.13-.9-12.98-.85-2.43.03-6.06.36-10.53,1.93-11.02.14-22.05.28-33.07.43,9.42,11.68,18.84,23.35,28.27,35.03,1.23.17,2.47.35,3.7.52,0,2.12.09,5.33.63,9.19.81,5.79,1.58,5.57,1.87,9.33.41,5.36-1.08,6.89-1.29,15.04-.05,2.1,0,3.82.05,4.91.35,1.12.85,2.77,1.36,4.8,1.53,6.01,1.79,9.65,2.48,14.32.56,3.81,1.41,9.56,3.53,16.46.95,3.08,1.6,4.63,4.32,13.12,1.33,4.17,1.77,5.66,2.01,7.9.34,3.21-.12,4.24.63,7.3.65,2.65,1.69,4.72,2.17,5.69.86,1.7,1.76,3.06,2.5,4.07-.67.2-1.74.42-3,.21-3.35-.57-5.16-3.76-5.42-4.24-1.47-2.67-.39-3.99-2.16-6-.44-.5-1.47-1.51-3.02-2.24-1.44-.68-2.13-.53-2.99-1.24-1.04-.85-1.31-2.11-1.54-3.34-1.3-6.84-.88-9.18-2.68-10.95-.7-.69-1.4-.95-2.55-1.38-3.49-1.31-6.7-.47-8.45-.12-6.05,1.23-6-1.07-15.9-.64-4.36.19-7.57.78-11.34,1.46-5.48,1-10.02,2.23-13.37,3.27-.74-2.68-1.73-6.98-2.09-12.37-.2-2.97-.05-3.93.1-12.73.12-7.24.18-10.92,0-13.84-.07-1.13-.41-6.38-1.8-13.13-1.44-6.99-3.28-12.14-5.71-18.85-3.44-9.48-4.23-9.73-5.31-14.74-1.3-6.02-1.31-10.99-1.3-14.24.02-5.83.69-10.75,1.4-14.44-2.17-1.53-5.24-3.78-8.74-6.7-7.47-6.23-12.11-11.48-19.77-20.22-15.01-17.15-12.95-17.69-18.55-22.49-1.28-1.1-4.6-3.82-6.76-8.52-1.12-2.44-1.58-4.66-2.06-6.97-.3-1.46-.95-4.89-1.08-10.39-.09-3.68-.19-8.15.5-13.73.26-2.04.73-5.12-.4-8.82-.36-1.17-.78-2.1-1.1-2.72Z"/>
    <path class="cls-41" d="M1121.54,403.83c.98-.19,2.61-.43,5.89-.26,3.26.17,6.19.32,9.75,1.46,3.49,1.12,3.6,1.92,7.19,2.92.21.06,3.23.88,6.17.99,5.15.2,7.69-1.89,14.13-4.29,2.95-1.1,8.23-2.83,14.54-3.64,3.37-.43,8.26-1.01,14.4.19,2.64.52,6.13,1.23,10.04,3.59,1.84,1.11,5.06,3.09,7.58,6.91,1.97,2.98,2.53,5.6,3.51,10.17,1.18,5.49,1.24,9.93,1.24,11.34,0,2.71-.2,3.22-.53,12.16-.07,1.83-.12,3.7.39,6.12.41,1.94.97,3.2,2.04,5.6,3.71,8.28,4.21,9.14,5.07,11.62.98,2.83,1.58,4.6,1.69,7.16.13,2.93-.46,5.34-.96,6.9,3.13.86,5.63.79,7.24.6,2.78-.33,5.03-1.27,8.37-2.66,3.31-1.38,2.8-1.5,4.45-1.98,2.27-.66,3.21-.42,8.82-1,2.39-.24,3.6-.37,4.12-.6,1.47-.65,2.67-1.79,5.36-3.04.46-.21,1.04-.47,1.6-.24.8.33,1.24,1.44,1.16,2.36-.08.95-.7,1.59-1.82,2.61-2.84,2.58-3.96,3.28-3.96,3.28-7.57,4.74-5.86,3.87-7.47,4.72-10.42,5.52-18.46,8.99-18.46,8.99-14.01,6.05-12.27,6.35-22.64,10.67-5.26,2.19-14.66,6.05-27.29,9.1-11.3,2.73-19.89,3.53-29.77,4.46-7.87.74-16.86,1.55-28.83,1.18-10.84-.33-18.21-1.44-28.07-2.93-5.46-.82-14.87-2.39-24.15-7.12-2.4-1.22-5.84-3.19-8.46-7.05-.89-1.31-2.97-4.46-3.11-8.95-.06-2.05.3-3.74.63-4.88,1.87.02,4.66.03,8.04,0,6.18-.05,10.38-.22,18.97-.53,3.52-.13,9.17-.33,16.38-.59.35-.99.79-2.34,1.2-3.98.27-1.07.87-3.63,1.22-7.6.23-2.53.58-6.44.06-11.19-.57-5.23-1.5-5.17-2.7-12-.95-5.41-1.43-8.12-.82-11.33.67-3.56,1.73-3.76,3.53-9.77.62-2.07,1.04-4.06,1.88-8.05,1.34-6.34,2.01-9.51,2.15-10.99.26-2.7.16-3.86,1.12-5.36,1.28-1.99,3.44-3.02,4.9-3.7.39-.18,1.95-.9,4.22-1.34Z"/>
    <path class="cls-6" d="M1107.06,466.07c2.74-.52,6.69-1.23,11.44-1.99,17.9-2.86,31.73-3.86,42.36-4.6,13.11-.91,23.04-1.19,32.09-1.44,10.18-.28,18.79-.36,25.19-.36.74,1.56,1.8,3.84,2.98,6.62,1.92,4.53,2.88,6.84,3.25,9.22.31,1.99.48,5.16-.69,9.22-12.81.81-23.15,1.49-29.83,1.94-32.03,2.14-43.46,3.08-61.6,3.78-11.8.45-21.31.61-26.97.67.9-2.86,1.43-5.34,1.75-7.24.42-2.45,1.08-6.5.62-11.68-.15-1.72-.39-3.14-.58-4.14Z"/>
    <path class="cls-28" d="M1403.35,487.35c2.08-.47,3.75.02,4.72.32.49.15,2.14.7,3.8,2.13,1.25,1.08,2.01,2.22,2.44,2.99.12-.68.58-2.88,2.54-4.64.45-.4,2.43-2.18,5.01-2.01,1.44.1,2.75.92,5.36,2.58.86.54,1.54,1.02,1.98,1.34.54-.76,1.52-1.94,3.08-2.92.58-.36,2.34-1.44,4.62-1.58,4.27-.27,7.29,2.97,7.75,3.48.09-.7.44-2.71,2.12-4.39.47-.47,1.45-1.45,2.95-1.79,2.66-.6,5.13,1.23,8.1,3.42,1.38,1.02,2.35,1.91,2.7,2.25,4.01,3.78,4.98,6.31,10.02,12.98,2.13,2.82,2.35,2.9,3.65,4.81,1.22,1.81,3.07,4.54,4.48,7.94,1.81,4.37.83,4.85,3.29,15.54.49,2.13.75,3.06.87,4.71.25,3.26-.39,4.27-.29,8.37.06,2.3.09,3.44.54,4.94.57,1.91,1.29,2.76,3.18,6.04.7,1.21,1.56,2.76,2.5,4.58-1.41,1.35-3.7,3.25-6.93,4.73-4.43,2.04-8.34,2.24-11.66,2.39-2.46.11-5.84-.23-12.6-.9-3.29-.33-5.27-.58-8.87-.78-3.43-.19-4.92-.14-6.22-.21-3.33-.17-8.16-1.24-14.31-5.46-.05-.75-.09-1.51-.14-2.26-3.42-.49-6.06-1.44-7.83-2.22-3.27-1.44-6.47-2.86-7.27-5.67-.25-.89.03-.89.39-4.83.3-3.25.45-4.88.23-6.65-.18-1.46-.68-3.61-2.19-6.11-.27-3.01-.87-6.99-2.25-11.51-.8-2.63-1.79-5.81-3.92-9.51-1.39-2.42-3.79-5.96-7.74-9.49-.35-.83-.99-2.67-.69-5.01.1-.8.39-2.86,2.03-4.79.43-.5,1.93-2.22,4.53-2.82Z"/>
    <path class="cls-29" d="M1483.18,536.29c1.03.2,2.55.61,4.15,1.57.6.36,2.53,1.58,4.68,4.81,2.59,3.89,3.4,7.54,4.06,10.62.9,4.24,1.35,6.36.47,9.03-1.04,3.13-3.21,4.98-3.9,5.56-2.13,1.77-4.35,2.43-6.8,2.98-8.02,1.81-14.81,1.6-16.28,1.55-6.62-.24-10.38-.42-14.81-2.62,0,0-5.95-2.05-6.67-4.84-.05-.2-.19-.74.09-1.09.57-.72,2.41-.08,3.73.29,2.27.63,4.68.53,7.01.89,4.98.76,10.68,1.62,17.04.18,4.96-1.13,8.01-3.13,8.88-3.73,1.75-1.2,3.04-2.44,3.91-3.37-1.42-2.06-3.88-5.86-5.44-9.69-.51-1.25-.75-2.08-.84-3.03-.19-1.89.32-2.85.61-5.47.09-.82.18-2.07.13-3.62Z"/>
    <path class="cls-28" d="M994.01,465.23c2.47-4.76,6.83-7.15,10.71-9.27,1.87-1.02,4.83-2.61,9.09-3.72,6.31-1.64,11.54-1.21,13.87-.91,2.76.35,9.65,1.31,16.22,6.32,1.91,1.45,4.72,3.64,6.8,7.57.69,1.29,2.18,4.2,2.32,8.27.04,1.22.14,5.75-2.55,9.92-1.28,1.98-1.88,1.85-2.75,3.66-.95,1.98-1.09,3.92-.79,7.96.49,6.7,1.29,7.19,1.27,10.93-.03,4.64-1.29,8.11-1.6,8.93-2.09,5.53-5.72,8.94-7.59,10.46-1.44,1.18-5.45,4.36-11.42,5.28-6.05.92-10.8-.99-14.6-2.58-2.87-1.2-5.76-2.81-19.47-13.98-3.03-2.47-5.51-4.53-7.16-5.91.1-2.64.19-5.27.29-7.91-.69-.81-1.78-2.31-2.25-4.44-.79-3.61.74-6.68,1.26-7.67,1.33-2.58,2.41-2.5,3.42-5.02.68-1.7.27-1.95.79-5.08.59-3.56,1.62-6.31,2.79-9.45.67-1.79,1-2.69,1.34-3.33Z"/>
    <path class="cls-29" d="M1225.43,538.11c2.55.79,6.32,2.13,10.62,4.34,3.65,1.87,5.12,3.05,12.2,7.47,2.93,1.83,5.37,3.3,10.26,6.23,7.32,4.39,10.74,6.33,14.8,8.39,1.83.93,3.36,1.66,4.35,2.12.69,5.43.78,9.86.73,12.91-.1,6.36-.8,7.85-.5,14.07.25,5.19.96,8.63,1.73,11.3.64,2.24,1.36,4.07,1.93,5.39,2.12,2.34,5.39,6.02,9.27,10.68,4.25,5.12,5.26,6.65,10.02,12.51,5.37,6.61,8.06,9.92,12.02,14.11,6.42,6.81,11.63,11.19,13.23,12.53,3.39,2.82,6.41,5.05,8.74,6.7-1.05,4.97-1.42,9.35-1.51,12.84-.17,6.63.64,11.64.92,13.24.2,1.13.76,4.21,1.96,8.12,1.58,5.16,2.69,6.67,4.62,11.66,1.89,4.91,2.82,8.67,3.93,13.13,1.32,5.3,2.31,9.3,2.79,14.71.2,2.21.16,5.96.07,13.37-.15,12.58-.4,12.56,0,15.38.57,4.05,1.33,5.88,1.96,11.88.36,3.4.25,4.12.49,6.58.58,5.94,2.07,10.36,3.46,14.39,2.92,8.49,4.98,10.2,7.29,18.7.62,2.26,1.02,4.16,1.27,5.44-.47.79-1.17,1.95-2.01,3.37-3.63,6.17-5.16,9.07-6.3,11.01-3.52,5.99-7.59,9.96-11.37,13.65-.93.91-4.96,4.79-11.77,9.6-6.31,4.46-12.74,8.1-20.61,11.79-13.03,6.1-23.41,9.24-38.96,13.87-13.1,3.9-19.76,6.03-27.35,7.45-12.25,2.29-22.68,2.81-30.06,2.83,1.37-.65,3.75-1.8,6.65-3.34,14.77-7.85,24.45-15.92,27.44-18.48,1.53-1.31,3.65-3.18,6.08-5.53-1.81-3.18-4.36-7.39-7.71-12.16-2.79-3.97-8.41-11.91-17.13-20.42-7.32-7.15-8.88-6.95-16.08-14.55-2.64-2.79-4.89-5.52-9.38-10.99-6.91-8.41-12.05-15.23-14.79-18.94-3.13-4.23-6.85-9.4-10.93-15.4-.79-6.93-2.23-16.97-5.04-29-1.14-4.88-2.13-8.5-3.39-13.06-2.29-8.35-4.97-17.27-9.56-31.07-6.73-20.25-6.47-17.6-9.71-28.15-3.62-11.82-2.78-11.36-8.44-32.23-3.9-14.39-5.43-18.78-7.29-28.52-1.01-5.33-2.49-14.19-1.05-25.3.21-1.65.45-3.02.62-3.96.6,1.3,1.44,3.08,2.49,5.18,1.07,2.15,2.6,5.18,4.74,8.86,3.71,6.36,6.28,9.5,8.06,11.46.97,1.07,2.04,2.14,3.61,3.15,2.18,1.4,4.15,1.93,5.92,2.39,3.4.88,6.17.9,7.31.88,3.73-.07,6.47-.92,8.48-1.55,1.74-.55,4.72-1.52,8.02-3.69,2.24-1.48,3.91-3.18,7.26-6.59,1.94-1.97,3.26-3.32,4.91-5.37,2.65-3.3,4.28-6.1,5.5-8.23,1.91-3.32,3.07-5.9,4.41-8.9,1.47-3.29,2.92-6.84,4.51-11.22,2.75-7.58,3.04-9.7,5.8-17.91.94-2.8,2.39-6.95,4.33-11.97,1.17-.97,2.51-2.23,3.82-3.84.95-1.15,1.71-2.27,2.32-3.29Z"/>
    <path class="cls-28" d="M1217.69,549.45c0,9.97,0,19.95.01,29.92,2.49,2.89,5.42,5.95,8.84,9.02,2.44,2.18,5.18,4.34,10.57,8.57,6.71,5.26,7.68,5.83,9.81,8.02,3.23,3.31,5.17,6.27,6.58,8.44,4.6,7.1,6.68,13.35,8.44,18.77,2.29,7.06,3.32,12.85,3.79,15.96.57,3.73,1.26,9.77,1.09,17.34-.17,7.52-.58,20.18-7.05,33.94-.85,1.82-1.64,3.28-2.18,4.25-9.19-13.54-17.18-21.89-22.93-27.08-2.21-1.99-7.11-6.26-13.34-12.92-4.2-4.49-4.73-5.49-9.69-11.19-7.37-8.45-13.46-14.56-20.99-22.1-3.24-3.25-7.58-7.52-12.8-12.48,1.03-.42,2.54-1.11,4.25-2.17,3.27-2.03,5.24-4.17,8.34-7.6,3.35-3.71,5.56-6.77,6.18-7.64,1.21-1.7,3.22-4.67,5.34-8.6,2.25-4.18,3.56-7.48,4.84-10.73,1.25-3.17,2.15-5.93,3.97-11.44,1.84-5.6,2.11-6.74,3.55-10.98,1.36-4,2.56-7.23,3.36-9.31Z"/>
    <path class="cls-13" d="M1160.51,630.79c2.91,1.54,7.32,3.84,12.75,6.56,7.39,3.7,9.13,4.39,13.84,6.74,6.09,3.03,14.71,7.34,24.65,13.92,4.76,3.15,9.47,6.29,15.15,11.36,1.08.96,5.4,4.86,10.59,10.77,5.24,5.97,6.08,7.99,11.42,14.45,4,4.84,7.15,8.1,10.75,11.81,9.92,10.25,14.28,13.16,29.42,26.91,7.2,6.54,12.46,11.56,21.49,20.16,3.15,3,10.11,9.66,18.96,18.34,6.6,6.47,13.61,13.44,20.99,20.89,1.91,6.32,4.01,12.82,6.33,19.48,1.75,5.03,3.54,9.91,5.35,14.64-.03.03-.4.4-.43.43-.21.21-.95.94-1.16,1.15-2.14-1.98-4.76-4.41-7.05-6.53-5.66-5.25-20.77-19.27-37.18-34.65-9.21-8.64-5.65-5.35-32.04-30.2-14.43-13.59-21.75-20.49-27.16-25.54-20.24-18.91-19.97-18.35-28.39-26.45-11.79-11.35-19.91-19.77-30.58-30.82-15.85-16.42-21.44-22.9-25.59-27.92-5.2-6.29-9.31-11.7-12.13-15.51Z"/>
    <path class="cls-30" d="M1161.08,891.89c-.58,2.67-1.17,5.37-1.79,8.09-.57,2.52-1.16,5.01-1.75,7.48-.14.17-.35.42-.61.74-1.89,2.31-2.25,2.76-2.86,3.48-.49.58-1.23,1.41-2.17,2.4.6,6.19,1.09,12.52,1.44,18.99,1.96,35.91-.56,68.93-5.34,98.32.37,7.79-.66,13.99-1.83,18.49-1.78,6.88-3.39,7.98-5.64,16.28-1.96,7.26-2.57,13.21-3.02,17.87-.71,7.35-.02,6.67-.82,17.1-.43,5.62-.78,7.7-1.3,15.35-.36,5.2-.54,7.85-.47,10.4.05,2.16.29,7.42,1.73,14.04,1.24,5.67,2.05,6.32,3.05,12.09.71,4.12,1.07,6.18.75,8.83-.43,3.55-1.58,4.85-4.15,10.93-1.13,2.66-2.66,6.28-3.67,9.87-1.36,4.81-.69,5.75-1.58,16.02-.74,8.52-1.11,12.78-2.11,17.05-1.02,4.36-1.95,6.59-1.78,10.7.11,2.6.71,4.75,1.89,8.96,1.12,3.98,1.58,4.71,4.21,12.58,2.31,6.91,2.64,8.38,2.7,10.43.09,2.78-.4,3.58-.05,6.36.41,3.22,1.43,5.01,2.7,8.02,1.35,3.18,2.2,6.18,3.9,12.19,2.03,7.15,1.95,8.83,4,11.96,1.06,1.61,2.36,3.59,4.8,4.98,4.16,2.36,8.72,1.37,11.59.7,6.48-1.51,10.68-5.1,14.84-8.74,3.02-2.64,7.15-6.8,11.04-12.82,0-2.27.02-4.53.02-6.8,5.37-7.51,10.75-15.02,16.12-22.53,1.91.19,4.52.29,7.58-.06,1.72-.19,5.26-.62,9.12-2.27,3.88-1.66,6.36-3.84,8.41-5.66,9.7-8.63,14.55-12.94,17.5-16.52,7.46-9.02,11.18-13.53,11.51-18.03.12-1.65.21-6.88,2.61-7.74.39-.14.76-.13,1.02-.1.08,1.94.18,4.86.24,8.42.18,10.38-.19,13.69-.19,21.23,0,8.76.53,15.26,1.24,24.17.65,8.19,1.3,13.18,1.79,16.56.36,2.47.7,4.54.95,6.03-1.9,3.81-4.01,8.94-5.43,15.24-1.55,6.89-1.75,12.91-1.57,17.39,4.8,3.81,9.61,7.63,14.41,11.44,2.63.3,6.51.73,11.22,1.21,6.79.7,12.73,1.25,19.75,1.58,7.49.35,9.8.15,12.22-.37,4.92-1.05,8.37-2.96,9.62-3.7,2.41-1.43,4.24-2.95,5.5-4.14.06-1.88.29-4.7,1.18-7.98,1.11-4.11,2.19-5.03,3.26-8.44,1.05-3.36,1.04-6.55.98-12.8-.09-8.56-.89-8.1-.58-12.28.36-4.9,1.45-5.42,4.25-15.2,2.38-8.32,3.44-14.44,3.66-15.74.98-5.79,1.21-9.83,1.53-14.81.81-12.37.42-2.22,2.23-27.52,1.13-15.81,1.86-25.93,2.54-40.05.31-6.39.67-14.78.78-25.37.15-15.31-.37-20.31-1.13-24.8-1.58-9.3-4.13-16.06-5.35-19.04-1.64-4.05-3.34-7.36-4.7-9.79,2.62-4.02,3.73-7.57,4.26-10.02.71-3.35.67-6.82.58-13.77-.03-2.51-.1-4.59-.16-6.04,2.28-1.74,5.51-4.62,8.22-8.97,2.23-3.59,2.43-5.49,4.83-10.18,2.62-5.12,4.02-6.03,7.3-11.14,3.57-5.55,3.48-6.91,8.3-16.6,5.48-11.01,5.76-9.6,9.44-17.46,3.63-7.75,2.33-6.93,8.08-21.04,3.44-8.45,4.88-11.13,6.01-16.78.46-2.32.67-5.87,1.08-12.86.8-13.78.6-19.54,2.1-29.9.23-1.57.44-2.85.57-3.67-4.82-4.3-7.95-8.31-9.9-11.15-3.53-5.14-4.06-7.68-8.39-12.49-3.1-3.44-6-5.66-7.46-6.71-2.27-1.63-4.35-2.81-5.98-3.65-2.87.57-6.78,1.52-11.24,3.2-5.81,2.19-9.84,4.57-13.77,6.93-6.49,3.89-10.95,7.33-16.22,11.41-6.28,4.87-9.8,7.61-14.34,11.98-4.37,4.21-10.13,9.76-15.56,18.25-2.87,4.49-2.88,5.46-8.39,14.91-2.89,4.96-5.39,8.97-7.09,11.65-.43.32-1.12.74-2.04.9-1.89.31-3.48-.74-4.24-1.22-1.97-1.24-4.88-2.75-9.53-4.64-4.72,1.29-11.48,2.95-19.72,4.32-21.62,3.58-38.6,2.67-51.82,1.87-10.46-.63-24.16-2-40.09-5.13,27.89-11.76,55.77-23.52,83.66-35.28-3.48-3.27-6.97-6.53-10.45-9.8-3.17.28-7.79.58-13.36.54-2.63-.02-12.29-.15-33.07-3.77-5.57-.97-12.94-2.36-21.61-4.32Z"/>
    <path class="cls-5" d="M1157.21,908.45c2.71,0,6.56-.02,11.15-.17,2.92-.09,16.59-.58,35.55-3.13,12.43-1.67,23.25-3.71,38.17-6.53,1.12-.21,2.04-.39,2.66-.51,1-.69,2-1.37,2.99-2.06,4.07-1.08,9.97-2.67,17.05-4.69,17.43-4.99,26.15-7.48,35.16-11.15,8.79-3.58,18.75-7.7,29.99-15.86,5.05-3.67,12.36-8.94,19.66-18.06,5.25-6.55,8.65-12.74,10.79-17.28.6-.73,1.2-1.46,1.8-2.19,4.02,8.71,5.65,14.88,6.36,19.1,0,0,1.03,6.04,4.81,12.57.38.66.89,1.44,1.75,2.18,1.64,1.4,2.88,1.21,5.09,2.25.35.17,2.55,1.23,4.23,3.16,1.63,1.88,1.74,3.4,2.64,5.57.38.94,1.11,2.48,5.47,7.44,5.48,6.23,10.1,10.41,10.1,10.41,6.44,5.81,8.13,6.61,16.77,13.74,7.49,6.18,11.23,9.27,15.17,13.53,5.91,6.39,9.47,11.93,10.82,14.09,2.98,4.8,5.07,9.18,6.52,12.63-2.93,3-5.87,6.01-8.8,9.01-2.13-4.27-4.97-9.39-8.71-14.92-5.15-7.64-10.04-13.18-12.91-16.25-9.21-9.86-10.73-7.54-19.93-17.4-6.01-6.44-9.73-10.43-13.14-16.48-.77-1.37-2.04-3.77-4.38-6.68-4.23-5.28-8.23-7.62-9.22-8.18-2.22-1.25-4.22-1.98-5.65-2.42-3.28.69-7.98,1.9-13.37,4.08-3.88,1.57-9.77,4.32-21.92,13.21-12.34,9.03-18.51,13.55-24.92,21.02-4.16,4.85-7.36,9.9-13.75,19.99-4.95,7.81-8.8,14.5-11.47,19.29-.85.66-2.12,1.41-3.65,1.39-1.94-.02-3.27-1.27-4.59-2.24-1.69-1.24-4.28-2.71-8.18-3.57-2.76.82-6.71,1.91-11.51,2.93-9.87,2.09-17.41,2.61-25.3,3.12-12.01.78-21.64.61-27.03.42-12.3-.42-21.56-1.58-28.36-2.45-8.61-1.1-15.92-2.35-21.52-3.42-.29-10.31-.58-20.62-.87-30.94,1.48-1.52,2.96-3.05,4.45-4.57Z"/>
    <path class="cls-5" d="M1125.86,870.1c.43.99,1.02,2.33,1.76,3.89.7,1.47,2.31,4.78,4.94,9.24,1.33,2.26,3.9,6.61,7.78,11.86,3.32,4.51,4.39,5.32,6.63,8.95,2.39,3.88,3.45,6.34,3.93,7.58,1.43,3.71,1.91,6.67,2.03,7.47.29,1.91.23,2.66.23,8.08,0,9.25.17,11.87.4,14.07.29,2.8.64,4.84.74,5.37.84,4.69,1.96,8.05,2.3,9.11,1.66,5.18,2.32,10.42,3.38,18.77,1.29,10.18,1.14,17.99,1.04,24.47-.18,11.63-.3,26.06-.3,45.79-1.24.53-2.88,1.02-4.84,1.05-2.72.04-4.76-.83-5.89-1.32-1.07-.47-1.91-.98-2.49-1.36.4-3.95.69-9.04.4-14.95-.08-1.72-.34-6.22-1.31-12.02-1.39-8.35-3.07-18.46-8.82-28.8-2.27-4.08-4.41-6.83-5.77-12.22-.71-2.8-1.23-6.4-1.63-9.11-.73-5.04-.66-6.42-1.63-9.4-.97-2.97-2.31-5.46-2.84-6.41-2.11-3.77-2.98-3.79-3.71-6.32-.25-.87-.18-.98-1.01-6.04-.21-1.3-.39-2.37-.52-3.09-6.73-5.44-13.46-10.87-20.2-16.31,3.37-1.23,6.73-2.46,10.1-3.69,3.33,2.08,6.66,4.15,9.99,6.23-1.69-6.34-2.53-11.79-2.98-15.89-.33-3.06-.4-6.43-.53-13.15-.04-2-.12-8.18,1.71-12.13.79-1.69,1.86-3.14,1.86-3.14.94-1.26,1.89-2.19,2.65-2.84.87-1.25,1.73-2.5,2.6-3.74Z"/>
    <path class="cls-5" d="M1332.46,1316.36c.17,1.29.41,3.07.76,5.17.43,2.63.99,5.99,2.03,10.12,1.33,5.28,2,7.91,3.31,10.39.91,1.73,1.99,3.32,3.38,6.52.71,1.65,1.25,3.12,1.49,3.87,1.56,4.78.27,7.49.24,15.1-.01,3.2.22,2.14.7,11.86.17,3.49.28,6.36.34,8.3-1.55,2.68-3.11,5.37-4.66,8.05-1.48.07-2.97.14-4.45.21.1,6.28-.49,10.71-.94,13.27-.23,1.3-.55,2.81-1.55,4.44-1.5,2.43-3.64,3.67-4.92,4.35-6.34,3.34-14.43,4.78-16.35,5.13-11.12,2.01-8.52,2.24-17.03,3.61-10.37,1.67-18.11,1.96-27.78,2.28-7.53.25-17.16.33-28.41-.17-.76-.15-3.47-.76-4.85-3.09-.84-1.43-.83-2.89-.81-4.79.02-1.7.03-2.8.68-3.97,1.02-1.84,2.29-1.4,3.33-3.13.76-1.27.21-1.72.87-5.18.28-1.45.51-2.7,1.11-4,.92-1.99,2.24-3.14,3.52-4.27,5.32-4.68,8.01-7.06,9.35-8.84,1.25-1.66,1.93-3,3.22-5.54,2.55-5.01,2.01-5.77,3.88-8.99,1.7-2.93,2.23-2.44,6.33-7.78,2.52-3.28,3.78-4.92,4.65-6.92,1.24-2.87,1.38-5.17,1.58-10.36.29-7.47.35-11.54.43-13.78.14-3.9.63-9.53,2.22-16.45,1.26.15,3.07.35,5.24.58,4.44.48,9.22.94,15.95,1.5,13.65,1.14,16.01,1.07,18.7.75,4.82-.57,7.5-1.53,8.68-2,4.58-1.81,7.8-4.41,9.75-6.26Z"/>
    <path class="cls-5" d="M1135.44,1263.34c.97-.02,1.56,2.97,4.32,12.87,3.95,14.21,3.15,9.55,3.91,13,.5,2.27,1.13,5.6,3.56,8.98,1.33,1.86,2.47,2.7,2.81,2.94,2.78,1.98,5.8,2.06,7.8,2.08,1.46.02,5.88-.08,11.36-2.86,4.65-2.36,7.43-5.33,12.74-11.1,2.88-3.13,5.07-5.85,6.48-7.67.02,1,0,2.49-.18,4.28-.53,4.99-1.85,6.68-2.91,11.14-1.21,5.12-.99,9.31-.87,11.36.29,4.9,1.37,8.2,1.61,8.94.94,2.79,1.53,3.21,2.46,5.5,2.94,7.21,1.65,14.16,1.33,15.68-.37,1.81-1.19,5.56-3.97,9.44-3.14,4.38-6.99,6.41-10.31,8.12-6.69,3.44-12.67,4.02-15.73,4.29-3.7.33-9.85.8-17.19-1.69-3.26-1.1-9.81-3.33-15.01-9.63-4.54-5.51-5.67-11.27-6.62-16.06-1.13-5.73-.89-10.08-.53-15.91.2-3.22.8-11.54,3.52-21.84.41-1.54,2.75-10.26,6.07-17.8.96-2.18,1.87-3.96,2.95-7.17,1.56-4.63,1.65-6.87,2.39-6.89Z"/>
    <path class="cls-18" d="M1343.68,1368.68c-1.15,2.15-2.88,5.28-5.11,9.01-3.26,5.43-4.14,6.34-5.13,9.13-1.52,4.29-.49,5.09-1.88,10.5-.93,3.65-1.94,7.59-4.63,10.5-3.16,3.43-7.39,4.05-13.63,4.88-13.55,1.79-20.32,2.68-24.38,2.88-15.51.74-27.29.25-32.14,0-8.06-.41-14.81-1.06-19.73-1.61"/>
    <path class="cls-18" d="M1120.45,1318.79c.56,3.09,1.68,7.62,4.16,12.64,2.18,4.4,4.96,10.03,10.75,13.88,6.79,4.52,14.01,4.12,20.88,3.75,6.67-.36,14.35-.78,20.88-6.38,4.95-4.24,7.28-9.77,8.25-12.13,1.52-3.69,2.14-7,2.42-9.34"/>
    <path class="cls-24" d="M1343.68,1368.68c-1.75,3.71-3.49,6.53-4.79,8.45-1.64,2.43-3.46,4.75-4.96,8.42-.73,1.79-1.05,3.1-1.21,3.82-.45,2.1-.32,3.02-.56,5.03-.3,2.6-.93,4.49-1.47,6.11-.96,2.9-1.61,4.86-3.38,6.88-.45.51-1.39,1.51-2.81,2.42-2.81,1.83-5.61,2.13-7.09,2.29-5.32.6-10.59,1.58-15.91,2.14-7.02.73-5.95.79-9.94,1.14-6.85.61-11.78.6-19.02.58-4.34-.01-11.37-.04-20.67-.68-5.86-.4-10.92-.93-14.91-1.41-.66.34-1.74,1.01-2.66,2.21-1.64,2.12-1.69,4.41-1.69,5.2,0,.86-.02,3.08,1.48,4.98,1.28,1.62,2.98,2.15,4.52,2.6,3.36.99,5.32.4,11.32.3,1.75-.03.87.03,5.54.07,5.6.04,11.55.09,17.27-.15,8.11-.34,14.31-1.21,18.29-1.78,5.66-.81,12.8-1.85,21.87-4.35,6.74-1.86,12.45-3.96,16.95-5.81.83-.58,2.17-1.68,3.26-3.47,1.35-2.23,1.59-4.36,1.65-5.42.28-4.1.57-8.19.85-12.29,1.48-.07,2.97-.14,4.45-.21,1.55-2.68,3.11-5.37,4.66-8.05-.34-6.34-.69-12.67-1.03-19.01Z"/>
    <path class="cls-24" d="M1120.43,1321.02c.4,1.06,1,2.6,1.73,4.47,1.09,2.76,1.63,4.14,2.09,5.19,1,2.32,2.66,6.15,5.88,9.87,1.19,1.38,2.95,3.37,5.84,5.15,4.15,2.55,8.09,3.09,10.56,3.4,1.84.23,3.89.17,8,.05,4.31-.12,7.09-.22,10.73-1,1.99-.43,3.73-.8,5.94-1.78,1.11-.49,4.54-2.11,7.88-5.56,2.72-2.81,4.07-5.48,5.25-7.87,1.24-2.51,2.81-6.33,3.64-11.33.55,1.18,1.24,2.9,1.76,5.05.48,1.98,1.87,8.17-.68,15.13-2.32,6.32-6.64,9.86-8.68,11.49-6.73,5.37-13.95,6.27-18.99,6.9-7.16.89-12.56-.09-13.88-.35-3.75-.73-9.58-1.93-15.35-6.48-5.7-4.5-8.18-9.77-8.67-10.86-1.64-3.62-2.08-6.72-2.59-10.29-.66-4.59-.63-8.46-.47-11.17Z"/>
    <path class="cls-28" d="M1231.08,496.69c.02.81.04,1.93.06,3.25.04,3.26.03,7.5-.18,12.91-.25,6.45-.37,9.68-.87,12.44-.46,2.52-.95,5.26-2.31,8.46-1.11,2.62-3.41,6.96-8.2,11.23-.9,2.11-2.07,4.95-3.33,8.35-1.51,4.08-2.55,7.33-3.89,11.53-1.98,6.2-1.65,5.62-2.74,8.84-2.28,6.74-4.47,11.56-4.96,12.64-1.66,3.62-3.21,7-5.95,11.22-2.25,3.47-4.28,5.92-6.06,8.07-3.14,3.79-4.7,5.68-6.93,7.5-4.23,3.44-8.39,5.07-10.59,5.8-1.8.6-5.45,1.77-10.34,1.66-2.68-.06-7.12-.15-11.41-2.85-1.92-1.21-3.35-2.64-3.88-3.18-1.78-1.81-2.97-3.61-3.73-4.95-1.17-1.66-2.87-4.15-4.76-7.27-3.32-5.49-4.16-7.83-8.15-15.65-4.59-8.97-4.87-8.58-8.2-15.53-2.51-5.24-4.16-9.25-5.17-11.81-1.32-3.36-2.35-6.27-3.12-8.55-1.33-1.26-3.03-3.08-4.65-5.53-2.26-3.41-3.28-6.39-3.88-8.18-.54-1.62-2.11-6.65-2-13.34.02-1.52.13-2.78.22-3.69,2.87.36,6.44.74,10.56,1.04,3.18.23,8.7.55,15.57.51,3.19-.02,10.72-.14,20.96-1.19,9.3-.96,21.1-2.18,36.02-6.43,13.4-3.81,23.52-8.42,29.72-11.27,4.98-2.29,9.12-4.41,12.16-6.03Z"/>
    <circle class="cls-8" cx="1326.54" cy="1009.51" r="2.62"/>
    <ellipse class="cls-8" cx="1302.07" cy="1018.63" rx="6.34" ry="1.25"/>
    <circle class="cls-8" cx="1313.66" cy="992.63" r="2.25"/>
    <ellipse class="cls-8" cx="1344.66" cy="984.88" rx="1.75" ry="3.5"/>
    <ellipse class="cls-8" cx="1350.16" cy="958.21" rx="3.75" ry="2.17"/>
    <ellipse class="cls-8" cx="1344.29" cy="953.04" rx="5.87" ry="3"/>
    <path class="cls-2" d="M1230.52,496.91c-5.06,2.48-10.12,4.97-15.19,7.45-.15,1.15-.34,2.84-.44,4.89-.11,2.43.01,3.1.11,7.45.12,5.32-.01,6.41.34,9.37.18,1.53.4,2.77.55,3.56-.39.89-.92,2.07-1.54,3.46-1.53,3.4-2.88,6.32-3.96,8.61-.62,1.33-1.69,3.58-3.01,6.31-2.86,5.91-5.31,10.72-6.77,13.57-2.44,4.75-5.36,10.25-8.74,16.35-4.4-.3-7.96-.76-10.4-1.13-3.51-.52-4.64-.84-9.32-1.51-5.69-.81-7.61-.85-9.03-.83-1.54.03-3.84.08-6.78.75-.84.19-3.4.81-6.5,2.26-.87.41-1.59.79-2.12,1.09-1.1-.69-2.52-1.66-4.07-2.96-1.39-1.17-3.56-3.01-5.57-5.83-.73-1.03-1.71-2.95-3.65-6.78-2.04-4.02-1.98-4.11-2.83-5.54-1.34-2.25-1.81-2.53-4.25-5.95-1.07-1.51-2.82-3.95-4.72-7.13-2-3.33-1.64-3.24-3.88-6.95-1.79-2.97-2.11-3.19-2.43-4.43-.54-2.09-.28-4.08.07-6.82,0,0,.03-.26.59-3.84.36-.68.29-1.02.19-1.19-.37-.67-1.65,0-4.04-.52-.6-.13-1.02-.28-1.24-.06-.32.32.02,1.11.34,1.95.46,1.21.7,2.49,1.22,3.68,1.23,2.82,1.85,8.51,2.28,12.38.35,3.23.66,7.37.64,12.23.19.63.47,1.53.83,2.6,1.19,3.56,2.37,6.4,3.67,9.37,2.64,6,4.97,10.66,5.34,11.38,2.78,5.52,2.95,5.36,6.85,12.95,1.38,2.69,2.02,3.99,3.99,7.81,3,5.8,3.83,7.22,4.31,8.02,2.05,3.45,3.7,5.75,5.07,7.66,2.6,3.61,3.57,4.5,4,4.88.73.65,2.79,2.39,5.95,3.64,3.21,1.28,5.89,1.39,7.9,1.46.8.03,4.79.13,9.8-1.34,5.05-1.48,8.44-3.78,9.49-4.52,2.27-1.6,3.67-3.06,5.76-5.22,3.07-3.18,5.05-5.91,6.31-7.65,2.69-3.73,4.38-6.76,5.74-9.21,2.31-4.17,3.82-7.55,4.47-9.03,1.88-4.31,2.98-7.65,4.22-11.39,1.43-4.31,1.19-4.09,2.88-9.25,1.3-3.96,2.44-7.13,3.39-9.79,1.16-3.22,2.18-5.93,2.94-7.95-.32-1.97-.72-4.5-1.14-7.44-.82-5.69-.91-7.24-.94-7.86-.13-2.44-.04-4.19.13-7.69.18-3.77.27-5.66.68-7.47.73-3.25,1.31-2.96,1.88-6.11.4-2.2.33-3.55,1.37-5.34.18-.31.71-1.18,1.96-2.35,1.18-1.1,3.48-2.91,7.29-4.08Z"/>
    <path class="cls-16" d="M1178.32,523.1c1.63-.79,4.15-1.77,7.33-2.02,1.68-.13,7.08-.57,8.09,1.77.67,1.54-.87,3.54-1.26,4.05-2.7,3.52-7.74,3.35-9.61,3.29-2.4-.08-4.64-.15-5.56-1.77-.8-1.4-.34-3.47,1.01-5.31Z"/>
    <path class="cls-16" d="M1131.54,523.85c.9-.68,1.7-.58,8.09.51,2.76.47,4.14.72,4.55,1.52.64,1.25-.34,3.07-1.26,4.05-2.35,2.49-6.38,1.7-7.33,1.52-1.28-.25-4.95-.97-5.56-3.54-.34-1.43.33-3.15,1.52-4.05Z"/>
    <circle class="cls-37" cx="1184.43" cy="526.33" r="2.9"/>
    <circle class="cls-37" cx="1137.16" cy="527.57" r="2.9"/>
    <circle class="cls-25" cx="1183.75" cy="526.52" r=".92"/>
    <circle class="cls-25" cx="1137.44" cy="528.08" r=".92"/>
    <path class="cls-35" d="M1483.23,531.54c1.49.35,3.6.88,6.11,1.63,3.83,1.14,7.12,2.13,10.49,3.76,1.33.65,6.31,3.16,11.33,8.27,5.23,5.33,7.69,10.62,8.38,12.19,2.08,4.71,2.86,8.95,3.18,11.87-1.44.71-3.7,1.72-6.57,2.62-4.79,1.5-10.05,1.71-20.38,2.07-4.38.15-8.06.18-12.67-.96-1.31-.32-2.37-.66-3.09-.91,2.7-.09,4.88-.58,6.39-1.02,1.49-.44,3.19-.95,5.09-2.2,1.15-.75,2.56-1.68,3.58-3.3.39-.63,1.1-1.95,1.24-6.47.11-3.53.18-5.97-.69-9.23-.44-1.64-1.22-4.46-3.44-7.44-1.04-1.39-2.82-3.72-6.02-5.17-1.18-.53-2.24-.81-2.98-.95.02-1.59.03-3.17.05-4.76Z"/>
    <path class="cls-4" d="M1488.73,558.11c.54-.48,1.3-1.29,1.8-2.48.32-.76.74-2.16-.14-6.47-.64-3.16-.96-4.74-1.93-6.33-1.6-2.65-4.3-4.8-5.17-4.28-.31.19-.21.62-.38,2.37-.2,2.01-.44,2.48-.52,3.43-.12,1.38.2,2.68,1.43,5.32.97,2.09,2.51,5.03,4.9,8.44Z"/>
    <path class="cls-35" d="M991.14,512.62c.79.66,1.94,1.62,3.34,2.77,2.68,2.2,5.17,4.25,7.09,5.7,2.6,1.96,6.24,4.71,11.44,6.93,3.08,1.32,5.98,2.56,10.07,2.78,4.35.23,7.87-.82,9.97-1.65-.18.79-.45,1.91-.87,3.22-.72,2.26-2.06,6.48-5.24,10.48-1.71,2.16-4.79,6.02-10.18,7.53-1.48.41-4.77,1.34-8.38,0-2.96-1.09-4.63-3.14-6.36-5.33-.82-1.03-2.75-3.6-5.48-10.37-2.37-5.87-3.72-10.88-5.1-16.08-.55-2.06-.97-3.76-1.25-4.91.31-.36.62-.72.94-1.08Z"/>
    <path class="cls-38" d="M1268.18,767.2c.45.52,1.26,1.29,2.48,1.82.53.23,1.92.81,3.63.5.88-.16,1.55-.5,1.88-.69.56-.32.97-.68,1.25-.96.04.34.08,1.12-.33,1.94-.5.99-1.34,1.41-1.73,1.61-1.19.6-2.31.46-2.64.41-1.49-.21-2.43-1.09-2.85-1.49-1.21-1.17-1.58-2.55-1.69-3.14Z"/>
    <path class="cls-38" d="M1268.95,819.4c-.21.65-.47,1.74-.3,3.06.07.57.28,2.06,1.42,3.38.58.67,1.22,1.08,1.56,1.27.56.32,1.08.49,1.46.59-.27.21-.92.64-1.84.7-1.11.07-1.9-.44-2.27-.67-1.12-.72-1.57-1.75-1.7-2.06-.58-1.39-.3-2.65-.17-3.21.39-1.64,1.4-2.65,1.84-3.05Z"/>
    <path class="cls-38" d="M1266.92,880.26c.35.42,1,1.05,2.02,1.56.45.22,1.62.78,3.15.73.78-.02,1.4-.2,1.72-.3.52-.17.91-.38,1.18-.56,0,.25-.02.81-.45,1.35-.52.66-1.3.87-1.66.97-1.1.3-2.07.09-2.36.02-1.3-.3-2.05-1.03-2.38-1.36-.97-.96-1.17-1.99-1.22-2.42Z"/>
    <path class="cls-32" d="M1268.1,877.67c.28-.32.77-.79,1.53-1.12.33-.14,1.18-.5,2.24-.31.54.1.95.31,1.16.43.34.2.6.42.77.59.02-.21.05-.69-.2-1.19-.31-.61-.83-.87-1.07-.99-.73-.37-1.42-.28-1.63-.25-.92.13-1.5.67-1.75.92-.75.72-.97,1.57-1.04,1.93Z"/>
    <path class="cls-32" d="M1270.13,819.87c.41-.09,1.1-.17,1.89.03.35.08,1.24.31,1.97,1.11.37.4.57.82.67,1.04.16.36.23.69.26.93.15-.15.46-.52.56-1.08.12-.67-.14-1.19-.25-1.43-.36-.74-.96-1.08-1.14-1.18-.81-.45-1.6-.37-1.95-.33-1.03.12-1.72.67-2,.91Z"/>
    <path class="cls-30" d="M1306.69,877.22c3-1.48,5.99-2.97,8.99-4.45.74,4.6,1.48,9.2,2.22,13.8-2.49,1.9-4.98,3.8-7.47,5.69-1.25-5.01-2.49-10.02-3.74-15.04Z"/>
    <path class="cls-12" d="M1273.18,913.04c-1.14.19-2.91.56-4.96,1.36-2.87,1.12-2.77,1.71-7.21,4.02-2.53,1.31-3.52,1.62-4.68,2.96-.66.77-1.06,1.63-1.82,3.3-1.4,3.09-2.11,4.63-2.29,6.64-.25,2.76.49,4.95.82,5.78.86,2.22,2.22,3.58,4.92,6.28.2.2.55.54,1.1.83.35.18,1.23.57,2.96.4,2.1-.2,3.81-1.06,4.85-1.7-.75-.14-1.8-.4-2.99-.91-1.07-.46-2.82-1.23-4.41-2.96-2-2.19-2.52-4.59-2.62-5.09-.63-3.18.45-5.73.96-6.88.4-.9,1.5-3.12,6.75-7.23,2.13-1.67,5.12-3.78,8.98-5.86-.12-.31-.25-.62-.37-.93Z"/>
    <path class="cls-40" d="M1268.16,895.32c.92-.24,2.44-.52,4.27-.28.9.12,3.28.43,5.09,2.07,1.91,1.72,2.1,4.54,2.48,10.19.22,3.32-.03,4.73-.96,5.37-.42.29-1.15.36-2.6.49-1.99.19-2.98.28-3.25-.13-.51-.78,1.73-2.02,2-4.36.29-2.6-2.01-4.99-3.03-6.06-2.33-2.43-4.33-2.67-4.68-4.54-.2-1.07.26-2.07.69-2.75Z"/>
    <path class="cls-40" d="M1152.93,919.1c4.78,1.07,9.87,2.02,15.26,2.8,11.42,1.65,21.93,2.17,31.26,2.07.36,1.29.73,2.58,1.09,3.87-6.73.2-14.41.04-22.82-.82-8.7-.89-16.49-2.35-23.21-3.98-.52-1.31-1.05-2.63-1.57-3.94Z"/>
    <path class="cls-40" d="M1372.11,867.78c7.16,4.62,11.78,9.35,14.6,12.67,6.58,7.76,7.11,12.29,14.04,19.41,4.96,5.1,5.58,3.7,13.49,10.19,4.52,3.71,13.69,11.85,21.89,24.37,2.48,3.79,5.71,9.26,8.73,16.31-.68.7-1.37,1.4-2.05,2.1-1.65-3.69-4.14-8.64-7.78-14.13-3.26-4.91-6.09-8.21-9.91-12.67-4.42-5.15-7.68-8.95-12.67-13.36-6.2-5.47-6.85-4.62-11.52-9.29-3.88-3.87-6.48-7.49-9.96-12.33-4.79-6.67-4.91-7.89-7.85-11.15-3.98-4.42-8.22-7.13-11.19-8.73.06-1.13.12-2.26.18-3.39Z"/>
    <path class="cls-40" d="M1213.01,950.36c.96-1.64,2.27-4.02,3.65-6.98,2.4-5.16,5.92-12.87,6.88-22.99.4-4.19.53-10.53-1.2-18.2-5.14.96-10.87,1.92-17.12,2.79-6.84.95-12.63,1.57-16.95,1.98-4.5.42-11.46,1.06-20.64,1.35-4.21.13-7.78.16-10.44.15l-4.88,5.17c.17,1.24.41,3.14.6,5.48.41,4.96.33,8.35.34,12.24.01,2.95.08,7.26.36,12.61,7.62,1.43,15.69,2.71,24.19,3.75,12.5,1.53,24.28,2.34,35.19,2.66Z"/>
    <path class="cls-1" d="M1135.24,1264.2c.63.82,1.52,2.12,2.28,3.86,1.06,2.43.97,3.7,1.91,7.12.66,2.41.82,2.21,1.94,5.69,1.01,3.15.91,3.39,2.14,7.69,2.04,7.13,2.94,8.58,3.73,9.63.74.98,1.95,2.54,4.1,3.69,2.36,1.26,4.54,1.31,6.51,1.34,1.35.02,4.24-.07,8.01-1.42,3.26-1.17,6.07-2.88,9.52-5.75,3.39-2.81,8.25-7.43,13.05-14.46.01,1.01,0,2.49-.18,4.28-.14,1.43-.21,2.16-.48,2.97-.62,1.9-1.86,2.9-3.19,4.16-3.59,3.39-2.76,3.83-5.37,6.06-2.02,1.72-3.85,2.55-7.44,4.13-3.37,1.49-6.04,2.67-9.5,3.44-4.93,1.1-11.58,2.59-16.94-.96-3.69-2.45-5.21-6.27-6.33-9.09-.82-2.07-.36-1.7-2.34-12.67-.79-4.37-1.47-7.77-2.07-10.6-.41-1.96-.77-3.59-1.02-4.7.56-1.47,1.11-2.93,1.67-4.4Z"/>
    <path class="cls-16" d="M1153.11,592.42c.45.86,1.72.63,8.62.53,2.83-.04,5.64-.31,8.47-.39,2.72-.08,4.05-.07,4.78-1.07.74-1.03.61-2.78-.26-3.81-.66-.78-1.59-.97-2.6-1.13-4.1-.65-7.03-.45-7.03-.45-5.37.36-8.08.55-9.33,1.48-.23.17-1.72,1.02-2.39,2.76-.27.69-.59,1.49-.27,2.09Z"/>
    <path class="cls-3" d="M1155.41,524.67c.51,1.38,1.13,3.38,1.47,5.86.39,2.9.21,5.13.06,7.09-.11,1.42-.32,3.84-1.11,6.86-.86,3.27-2.04,5.81-2.76,7.33-1.04,2.22-1.9,4.52-2.93,6.74-.49,1.04-.99,2.09-.64,3.22.26.86.72.78,2.4,2.58,1.01,1.08,1.51,1.82,2.93,3.17.51.48.8.73,1.23.94.35.17,1.06.45,2.76.35,1.6-.1,2.75-.16,3.93-.88.98-.6.78-.92,2.23-2.23,1.43-1.3,2.24-2.04,3.4-2.17,1.54-.17,3.08.81,3.93,1.35,1.1.7,1.61,1.35,2.29,1.17.79-.21,1.01-1.32,1.41-1.23.27.06.45.67.35,1.17-.07.38-.38,1.11-2.23,1.82-2.3.87-3.61.41-5.69.64-3.05.35-2.75,1.63-5.92,2.29-4,.83-7.34-.63-8.44-1.11-1.44-.63-2.8-1.23-3.87-2.7-1.31-1.81-1.34-3.81-1.35-4.92,0-2.5.81-3.92,1.58-6.16,1.3-3.75.37-3.59,1.58-8.56.99-4.07,1.64-4.69,1.93-7.74.2-2.1,0-2.89,0-4.98,0-2.34.25-5.71,1.47-9.91Z"/>
    <path class="cls-38" d="M1280.55,611.78c-.07,0,.38,5.46.04,14.32,0,0-.09,2.42-.25,4.78-.95,14.5-4.03,27.37-4.03,27.37-2.05,8.57-3.41,14.1-7.13,20.96-2.02,3.74-4.07,6.65-5.6,8.64,1.06-.26,2.63-.78,4.16-1.93,2.48-1.86,3.49-4.33,4.44-6.82,2.21-5.8,3.32-8.7,4.13-12.08.95-3.97,1.53-7.29,2.99-17.87,1.03-7.41,1.54-11.12,1.65-12.29,1.31-14.1-.32-25.1-.41-25.09Z"/>
    <path class="cls-38" d="M1226.54,537.73c4.73,1.4,8.55,3.05,11.36,4.44,6.01,2.97,10.25,6.15,12.91,8.16,2.11,1.59,3.8,3.02,5,4.06-1.28,1.35-3.08,3.56-4.38,6.68-1.58,3.77-1.7,7.08-1.76,9.29-.2,7.44,2.21,9.03.62,11.88-1.42,2.53-3.89,2.29-9.29,5.16-3.97,2.12-6.82,4.48-8.53,6.04-4.72-4.46-9.44-8.93-14.16-13.39-.81-7.55-.86-12.75-.74-16.2.04-1.12.18-4.51.18-9.2,0-2.2-.03-4.01-.06-5.22l1.59-4.21c2.26-1.31,3.3-2.74,3.82-3.84.49-1.02.91-2.53,2.32-3.29.43-.23.83-.33,1.1-.37Z"/>
    <path class="cls-38" d="M1242.77,586.52c2.32,2.73,5.46,6.62,8.86,11.53,2.11,3.05,3.57,5.15,5.23,8.12,2.71,4.84,6.46,11.71,7.3,20.93.32,3.56.13,6.59-.14,8.81-.48-3.89-1.39-8.76-3.17-14.18-2.31-7.03-5.12-12.06-6.2-13.91-2.57-4.42-4.69-8.06-8.4-12.39-2.91-3.4-6.12-6.43-5.27-8.02.33-.61,1.14-.81,1.78-.89Z"/>
    <path class="cls-38" d="M1236.5,590.19c1.9,2.19,3.47,3.94,4.53,5.1,3.26,3.58,4.76,5,6.06,7.71.68,1.42,1.06,2.66,1.28,3.5-3.44-3.15-7.18-6.35-11.24-9.54-1.79-1.4-3.56-2.75-5.31-4.03,1.56-.92,3.12-1.83,4.68-2.75Z"/>
    <path class="cls-38" d="M1136.33,627.01c2.58,2.91,4.61,5.32,5.98,6.97,5.34,6.44,5.51,7.26,7.99,9.23,2.43,1.93,4.53,2.93,4.27,3.86-.21.74-1.86,1.09-3.17.83-1.75-.35-2.75-1.75-3.72-3.03-2.78-3.69,2.88,4.34-6.2-7.57-2.98-3.91-3.96-5.27-4.63-7.59-.32-1.1-.45-2.04-.52-2.69Z"/>
    <path class="cls-38" d="M1325.59,867.17c1.68-4.84,3.29-8.99,4.66-12.33,0,0,2.39-5.83,7.71-14.32.69-1.1,1.69-2.66,2.2-2.48.88.32-.33,5.63-.55,6.61-.72,3.15-1.88,6.72-3.86,10.74-1.12,2.28-2.78,5.26-5.17,8.53-1.67,1.08-3.33,2.16-5,3.24Z"/>
    <path class="cls-38" d="M1345.37,851.2c.24-2.43.45-4.01.63-5.03,0,0,0,0,0,0,.04-.2.26-1.49.51-2.61.24-1.09.52-2.18.83-3.3.92-3.32,1.38-4.98,1.65-4.96.6.04.84,4.37.83,7.16-.01,1.61-.11,2.95-.2,3.85-1.41,1.63-2.83,3.26-4.24,4.9Z"/>
    <path class="cls-33" d="M1342.3,784.07c.37-1.73.99-3.8,2.07-5.99.42-.86.86-1.64,1.31-2.34.07,1.43.03,3.3-.41,5.44-.34,1.64-.83,3.03-1.31,4.13l-1.65-1.24Z"/>
    <path class="cls-38" d="M1333.84,743.03c.29-2.38.84-5.78,1.93-9.78.39-1.42,2.93-10.56,4.41-10.33.56.09.75,1.67,1.1,4.82.59,5.23.86,7.92-.14,11.15-.5,1.61-1.72,5.55-4.13,5.78-1.35.13-2.53-.95-3.17-1.65Z"/>
    <path class="cls-38" d="M1333.15,700.35c-.71,1.59-.25,2.77.69,7.57.72,3.71.88,5.24,1.24,5.23.12,0,.33-.16.83-2.89.68-3.74,1.02-5.61.74-7.77-.14-1.09-.48-2.71-1.36-4.59-.69.47-1.59,1.24-2.13,2.45Z"/>
    <path class="cls-38" d="M1190.22,717.9c.83-.68,2.86,1.23,8.95,4.96,4.71,2.89,6.62,3.66,10.81,6.68,5.5,3.96,5.32,4.86,5.23,5.09-.44,1.16-4.42.63-5.51.48-2.57-.34-12.66-2.09-17.69-10.74-1.26-2.16-2.74-5.69-1.79-6.47Z"/>
    <path class="cls-38" d="M1174.62,759.59c1.71,0,4.11,0,7-.04,12.27-.18,12.89-.81,19.83-.83,12.08-.02,17.18,1.88,19.62-1.45.95-1.29,1-2.7,1.03-4.34.26-14.26-.83-20.24-.83-20.24-.98-5.44-2.18-13.16-3.1-23.13l.62,1.03c.12,1.24.3,2.95.55,4.99.24,1.96.51,4.02,1.07,7.81.84,5.69.9,5.7,1.2,7.92.64,4.71.32,4.56,1,11.91.68,7.32,1.18,9.43,0,12.7-.61,1.69-1.4,2.96-1.96,3.75-1.92.25-4.63.58-7.88.86-2.58.22-4.94.37-8.98.55-8.72.39-7.57.16-12.7.45-4.93.28-10.18-.92-14.8.83-.15.06-.68.27-1.1.04-.68-.38-.68-1.71-.56-2.82Z"/>
    <path class="cls-38" d="M1156.98,698.61c1.02.5,2.45,1.17,4.19,1.87.73.3,3.13,1.26,7.23,2.48,3.74,1.11,5.61,1.67,7.13,1.86,1.25.15,4.92.57,8.98-.62,1.75-.51,1.66-.76,9.91-5.89,3.55-2.21,6.13-3.75,9.81-4.23,1.15-.15,3.24-.31,3.3,0,.05.25-1.28.7-2.69,1.24,0,0-2.92,1.11-7.44,3.41-3.66,1.86-3.27,2.44-6.82,4.44-2.5,1.41-5.83,3.28-10.02,3.72-1.26.13-3.1.18-10.43-1.76-2.98-.79-7.11-1.97-12.01-3.67-.39-.95-.77-1.9-1.16-2.85Z"/>
    <path class="cls-38" d="M1173.04,699.66c.44.64,1.2,1.52,2.38,2.17.85.47,2.13,1.18,3.41.72.96-.35,1.49-1.2,1.96-1.96.47-.76.7-1.47.83-1.96.1.32.21.81.19,1.41-.03.9-.33,1.54-.55,2.01-.31.65-.52,1.09-1.02,1.43-.47.32-.94.36-1.45.4-1.66.12-2.93-.52-3.22-.67-.55-.29-1.35-.71-1.93-1.65-.46-.75-.57-1.48-.6-1.89Z"/>
    <path class="cls-32" d="M1174.59,697.59c.09.12.53-.22,1.24-.41,1-.27,1.93-.09,2.62.14.02-.24.01-.6-.21-.9-.47-.65-1.6-.55-2.27-.28-.92.38-1.5,1.29-1.38,1.45Z"/>
    <path class="cls-38" d="M1307.94,752.14c1.36,0,3.38-.06,5.77-.43,2.6-.4,4.73-1.03,11.06-3.56,6.61-2.65,9.92-3.98,13.27-5.7,3.42-1.76,6.15-3.43,6.56-3.18.32.2-1.06,1.49-1.31,1.72-2.25,2.09-4.87,3.23-8.82,4.91-4.72,2.01-7.08,3.01-7.59,3.2-5.68,2.09-10.51,3.21-13.19,3.77-1.58.33-2.9.56-3.81.71-.65-.48-1.29-.95-1.94-1.43Z"/>
    <path class="cls-38" d="M1292.11,673.53c2.32,2.68,3.97,5.03,5.06,6.71,1.78,2.75,2.3,4.05,4.03,5.47,1.45,1.2,3.02,1.71,6.09,2.69,5.91,1.88,9.94,2.11,11.46,2.17,3.95.14,5.36-.43,6.3-1.03,1.38-.88,2.32-2.2,2.89-2.99,1.3-1.82,1.48-2.97,2.99-4.54.71-.74,1.39-1.24,1.86-1.55-.15.36-.41.89-.86,1.45-.56.69-.98.86-1.53,1.53-.47.56-.59.94-.93,1.6-.09.18-1.06,2.02-2.6,3.51-1.07,1.04-2.1,1.59-2.63,1.88-.57.3-2.4,1.22-5.65,1.5-.76.07-1.82.12-7.44-.57-4.99-.61-5.74-.84-6.35-1.07-1.26-.47-3.49-1.32-5.32-3.39-.67-.75-.43-.71-2.46-4.23-1.65-2.86-2.08-3.37-3.13-5.37-.84-1.6-1.44-2.93-1.79-3.75Z"/>
    <path class="cls-38" d="M1292.05,675.84c.05.33.12.84.21,1.45,1.3,9.37,1.56,16.28,1.72,19.69.58,12.21,1.45,11.14,2.27,25.82.4,7.12.72,16.64.41,16.66-.14,0-.47-1.98-.53-3.98-.04-1.16.03-2.02.05-2.36.09-1.33.06-2.28-.26-7.45-.32-5.23-.48-7.84-.59-9.14-.26-3.06-.3-2.79-.76-7.57-.44-4.58-.66-6.88-.81-9.71-.19-3.48-.09-3.84-.33-6.99-.11-1.39-.11-1.11-.57-6.09-.33-3.62-.45-5.03-.52-5.92-.14-1.86-.25-3.39-.31-4.41Z"/>
    <path class="cls-38" d="M1319.38,686.54c.28.32.79.81,1.55,1.14.33.14,1.2.51,2.27.31.55-.1.97-.31,1.18-.43.35-.2.61-.42.78-.6.02.21.05.7-.21,1.21-.31.62-.84.88-1.08,1.01-.75.37-1.44.29-1.65.26-.93-.13-1.52-.68-1.78-.93-.76-.73-.99-1.6-1.06-1.96Z"/>
    <path class="cls-32" d="M1320.51,684.84c.16-.18.43-.44.85-.62.18-.08.66-.28,1.25-.17.3.05.53.17.65.24.19.11.33.23.43.33.01-.12.03-.38-.11-.67-.17-.34-.46-.49-.6-.55-.41-.21-.79-.16-.91-.14-.51.07-.84.37-.98.51-.42.4-.54.88-.58,1.08Z"/>
    <path class="cls-32" d="M1269.96,764.6c.28-.32.77-.79,1.53-1.12.33-.14,1.18-.5,2.24-.31.54.1.95.31,1.16.43.34.2.6.42.77.59.02-.21.05-.69-.2-1.19-.31-.61-.83-.87-1.07-.99-.73-.37-1.42-.28-1.63-.25-.92.13-1.5.67-1.75.92-.75.72-.97,1.57-1.04,1.93Z"/>
    <path class="cls-38" d="M1262.08,736.07c1.94,5.76,2.14,10.37,1.94,13.57-.22,3.44-.85,4.61-.62,7.64.4,5.26,2.81,8.33,4.34,11.36,1.79,3.56,1.75,9.33,1.65,20.86-.11,13.8-.17,20.71-2.48,26.23-1.84,4.41-3.84,6.79-5.16,12.81-1.09,4.95-.92,8.69-.83,11.98.26,9.02-.37,18.04-.41,27.06-.03,5.86-.15,14.49-.62,25.18l-.86-3.29c.1-2.16.22-5.45.28-9.47.07-4.91-.03-6.56-.03-10.64-.02-10.46.6-10.5.52-19.45-.05-5.82-.32-7.1-.1-12.05.2-4.47.33-7.17,1.27-10.74.23-.87,1.22-3.59,3.2-8.98,2.13-5.82,2.28-6.18,2.55-7.3.92-3.85.91-6.95.9-9.47-.03-4.19-.5-4.96-1.03-10.53-.76-8.06.08-7.96-.72-13.53-.46-3.14-1-6.94-2.69-11.64-1.12-3.14-2.39-5.68-2.44-9.71-.02-1.98.28-1.49.41-4.44.24-5.39-.76-7.31-.1-11.46.27-1.69.7-3.06,1.05-4Z"/>
    <path class="cls-38" d="M1135.05,591.13c.3,1.7.79,4.02,1.6,6.7.9,2.97,2.11,6.95,4.75,11.15,2.95,4.69,6.32,7.46,8.33,9.09,5.83,4.72,10.87,6.24,19.62,8.88.26.08,4.41,1.29,8.47.41,1.03-.22,2.07-.58,2.96-1.45,1.15-1.12,1.48-2.51,1.58-3.17-.93-1.07-1.86-2.14-2.78-3.21-.72-.49-1.45-.98-2.17-1.47-1.19.44-2.39.87-3.58,1.31-1.59.32-3.88.73-6.68,1.03-1.84.2-2.77.3-3.79.28-.91-.02-4.42-.16-8.4-2.13-.7-.35-2.83-1.46-5.09-3.58-.52-.49-1.58-1.53-5.44-7.44-2.18-3.34-3.27-5.01-4.54-7.3-.52-.93-1.47-2.73-3.37-6.33-.62-1.17-1.13-2.13-1.47-2.78Z"/>
    <path class="cls-10" d="M1173.84,415.6c2.17-.79,2.64-.13,8.81,0,7.6.16,9.04-.81,12.12.55,2.88,1.27,4.5,3.38,5.51,4.68,4.2,5.45,3.99,11.78,3.86,15.97-.15,4.57-.26,7.95-2.75,10.74-2.17,2.43-4.94,3.05-8.54,3.86-4.29.96-8.43.56-16.52-.28-6.21-.64-7.01-1.05-7.71-1.65-1.25-1.06-2.15-2.68-2.75-13.49-.54-9.68.01-11.42.55-12.67.4-.92,2.56-5.94,7.44-7.71Z"/>
    <path class="cls-10" d="M1120.41,419.45c2.42-.74,3.31,1.21,7.16,1.65,5.11.59,6.97-2.46,11.02-1.38,2.64.71,4.23,2.64,5.23,3.86,4.02,4.89,3.6,11.3,2.75,22.03-.31,3.97-.49,5.98-1.38,7.16-.96,1.28-3.15,3.24-20.93,3.03-7.63-.09-9.04-.47-10.19-1.65-1.14-1.16-1.5-2.57-.83-14.32.43-7.51.79-10.72,2.48-14.6,2.11-4.85,4.05-5.59,4.68-5.78Z"/>
    <path class="cls-35" d="M1333.85,666.12c1.1.41,2.68,1.06,4.5,1.99,3.54,1.8,5.84,3.58,9.75,6.62,2.11,1.65,4.72,3.69,7.98,6.72.92.85,3.68,3.45,7.35,7.54,3.68,4.11,6.05,7.23,9.99,12.46,1.91,2.53,5.65,7.57,10.38,14.44,1.63,2.36.7,1.07,7.93,11.82,5.16,7.68,7.76,11.53,8.71,12.51,1.41,1.45,3.21,3.1,4.7,6.08.23.46,1.09,2.22,1.99,6.13.92,4,.88,5.84,1.33,8.8.38,2.49,1.3,5.32,3.15,10.98,1.85,5.67,3.07,8.62,4.16,13.14.55,2.27.89,3.73,1,5.79.09,1.61-.04,2.41.22,4.09.28,1.82.77,3.13,1.15,4.16.65,1.72,1.78,4.21,3.8,6.97-.65.2-1.72.42-3,.21-2.44-.41-3.9-2.14-4.27-2.59-1.1-1.35-.74-1.87-2.82-6.33-.53-1.14-.75-1.53-1.16-1.97-1.25-1.36-2.55-1.31-3.93-2.15-1.58-.95-2.25-2.44-2.95-4.01-1.85-4.1-.01-6.15-2.03-9.43-.34-.56-1.22-1.95-2.89-2.81-1.98-1.02-3.82-.63-6.22-.34-2.18.26-5.03.27-10.72.28-5.11,0-4.61-.53-8.78-.51-5.68.03-10.13,1.05-15.63,2.31-3.33.77-6.08,1.55-8.02,2.14-.6-2.21-1.45-5.8-1.91-10.29-.66-6.4,0-9.33.09-18.26.05-5.59.09-9.61-.49-14.83-.33-2.98-1.23-9.74-3.89-18-2.75-8.57-4.16-8.73-6.87-17.88-2.07-7.01-2.63-11.6-2.76-12.7-.22-1.94-.71-6.94-.19-13.41.27-3.27.72-6.04,1.14-8.15l-.8-1.54Z"/>
    <path class="cls-42" d="M1060.86,556.05c1.12-.52,2.63-1.13,4.46-1.63,3.44-.93,6.19-.96,7.02-.95,2.58.01,4.99.02,7.7,1.29,3.26,1.52,5.03,3.97,6.02,5.38,2.76,3.92,3.22,7.88,3.41,9.72.23,2.19-.04,4.33-.59,8.62-.58,4.59-1.02,4.7-1.12,4.7-.38,0-.65-1.37-1.16-3.41-.79-3.2-1.47-5.92-2.27-7.75-.22-.51-2.91-6.4-7.64-7.23-2.88-.51-3.92,1.32-7.95.72-1.11-.16-2.97-.44-4.65-1.76-3.2-2.51-3.24-6.86-3.23-7.71Z"/>
    <path class="cls-42" d="M1097.76,586.37c1,2.42,2.47,6.28,3.82,11.15,2.05,7.4,2.13,11.1,3.72,20.03,1.57,8.83,3.3,15.49,4.34,19.41,3.37,12.79,6.62,20.71,6.37,20.81-.26.1-4.44-8.33-7.61-19.67-3.98-14.26-1.32-15.05-5.37-25.61-2.04-5.32-4.3-9.25-5.16-16.42-.49-4.06-.32-7.46-.1-9.71Z"/>
    <path class="cls-35" d="M1147.95,710.54c-.08,0,.38,4.62.83,8.26.15,1.2.34,2.68.59,4.37.34,2.27.99,6.38,1.06,6.37.16-.02-2.31-19.02-2.48-19Z"/>
    <path class="cls-42" d="M1368.74,658.35c-4.73-6.13-9.88-12.42-15.49-18.8-2.84-3.22-5.66-6.32-8.47-9.29.87-.94,2.24-2.11,4.13-2.48,3.45-.67,6.36,1.81,9.5,3.92,4.21,2.83,9.83,5.69,13.84,6.61,7.83,1.79,15.05-2.54,21.48-6.4,3.77-2.27,9.89-6.6,15.49-14.25,1.02,0,2.6.16,3.51,1.24,1.52,1.8.32,5.07-.62,7.64-1.67,4.55-3.24,5.02-3.51,7.64-.41,4.01,2.82,7.36,3.1,7.64,6.9,6.97,22.73.52,23.96,0,1.85-.78,5.33-2.42,15.9-11.57,6.18-5.35,10.67-9.23,16.32-15.28,15.16-16.24,14.63-22.32,24.37-28.09,4.03-2.38,10.58-5.17,20.62-5.27-2,2.37-4.77,5.73-8,9.84-2.91,3.71-4.37,5.57-5.86,7.69-4.57,6.53-4.44,7.93-9.49,15.2-3.85,5.53-5.58,7.11-6.86,8.1-.82.64-1.78,1.29-2.96,2.56-2.07,2.22-2.85,4.19-3.69,5.83-1.02,2-3.26,6.38-7.15,8.85-3.67,2.33-5.66.98-9.57,3.96-.95.72-2.45,1.9-3.47,3.92-.42.84-.37,1.05-1.21,3.24-.86,2.24-1.29,3.36-1.86,4.11-1.15,1.49-2.68,2.04-4.26,2.6-.89.32-5.19,1.85-9.93.34-1.99-.63-2.48-1.3-4.6-1.58-1.88-.25-3.2.06-4.65.31,0,0-4.05.69-9.75.58-4.76-.1-5.03-.98-8.58-.89-3.72.1-6.7,1.15-8.57,1.98-11.22.03-22.44.06-33.67.09Z"/>
    <path class="cls-42" d="M1428.84,588.13c2.28,3.82,4.48,6.87,6.2,9.09,3.12,4.03,6.47,8.35,11.57,12.39,1.41,1.11,3.99,3.03,7.44,6.2,1.3,1.2,2.31,2.19,2.96,2.84,2.86,2.86,6.95,6.96,6.54,7.49-.62.8-12.27-4.86-21.48-14.87-7.93-8.62-11.54-17.72-13.22-23.13Z"/>
    <path class="cls-42" d="M1396.62,594.74c-1.46,1.82-3.61,4.53-6.2,7.85-10.62,13.64-10.59,14.59-10.33,14.87.73.81,5.23-1.58,8.33-4.75,2.46-2.51,3.56-5.04,5.09-8.54,1.02-2.34,2.21-5.51,3.1-9.43Z"/>
    <path class="cls-42" d="M1350.67,581c.6,5.08.99,9.41,1.24,12.7,0,0,.89,11.53-.93,22.51-.23,1.39-.63,3.49-1.24,3.51-.66.03-1.29-2.33-1.55-3.72-.75-3.99.26-6.91.83-9.6,1.49-7.13-1.08-8.37,0-17.45.42-3.52,1.16-6.31,1.65-7.95Z"/>
    <path class="cls-42" d="M1385.88,586.37c-5.29,4.09-8.67,8.15-10.74,11.05-1.68,2.36-3.74,6.36-7.85,14.35-4.63,9.01-4.67,9.63-4.54,9.71.52.32,5.67-7.23,6.09-7.85,4.83-7.1,3.96-7.28,7.13-11.36,3.66-4.72,5.77-5.68,7.95-10.22,1.1-2.28,1.66-4.32,1.96-5.68Z"/>
    <path class="cls-42" d="M1415.73,573.57c-1.96,8.18-4.26,14.86-6.2,19.83-3.76,9.62-6.42,13.49-7.75,15.28-2.85,3.86-5.77,6.63-7.95,8.47,1.24.35,3.17.68,5.27.1,1.81-.5,4.87-1.98,8.78-10.22,2.24-4.72,3.57-9.16,4.96-15.59.97-4.52,2.09-10.58,2.89-17.87Z"/>
    <path class="cls-42" d="M1420.17,598.66c.31-.02,1.07,4.38.72,9.29-.02.34-.36,4.94-1.03,4.96-.35.01-.69-1.24-.83-2.07-.35-2.11.25-3.66.62-5.06,1.1-4.13.26-7.11.52-7.13Z"/>
    <path class="cls-42" d="M1281.35,548.89c5.56,1.33,10.26,2.7,13.93,3.85,7.06,2.22,9.95,3.56,12.67,6.06,2.64,2.44,4.51,5.41,4.13,5.78-.41.41-3.21-2.7-8.26-5.51-3.84-2.13-7.02-3.01-12.12-4.41-8.35-2.29-13.44-2.54-13.49-3.85-.02-.42.48-1.06,3.14-1.93Z"/>
    <path class="cls-42" d="M1313.43,549.26c.93.34,1.71.67,2.3.93,2.06.91,3.58,1.81,4.34,2.28.3.18.96.6,1.83,1.2.28.2,5.34,3.76,5.06,4.3-.22.42-3.71-.74-14.87-5.78.45-.98.9-1.95,1.35-2.93Z"/>
    <path class="cls-42" d="M986.37,508.13c1.23,1.19,2.45,2.37,3.68,3.56.23,1.46.57,3.42,1.08,5.72,1.04,4.73,2.17,8.11,3.47,11.99,1.75,5.21,2.77,8.2,4.57,11.38,1.65,2.92,2.48,4.38,3.9,5.54.5.41,1.24.94,1.85,1.94.94,1.53.94,3.12.93,3.77-.15,14.63-1.24,32.63-1.24,32.63-.5,8.32,1.45,15.05,5.37,28.5,4.03,13.83,6.04,20.74,11.98,26.85,2.22,2.28,12.83,13.19,23.68,11.29,7.77-1.36,15.7-3.03,15.7-3.03,2.47-.52,4.57-.98,5.65.14,1.75,1.82-.99,5.95-2.07,10.74-1.89,8.46,2.11,16.05,4.82,21.2,5.81,11.03,11,8.7,17.62,19.28,5.01,8,6.16,15.93,7.57,25.61,1.79,12.32-.22,14.12,1.79,24.37.96,4.9,3.45,10.81,8.4,22.44,11.26,26.49,15.22,31.6,20.1,32.08,3.02.3,6.46-1.17,8.4.96,1.46,1.61.91,3.99.83,6.2-.19,4.61,1.9,8.21,6.06,15.42,9.65,16.72,22.31,30.15,22.31,30.16,9.81,10.42,20.14,21.38,37.32,30.43,8.27,4.36,15.64,6.96,20.87,8.53-2.69,1.32-5.38,2.65-8.07,3.97-7.6-.43-14.47-1.13-20.48-1.92-8.81-1.16-15.73-2.5-19.43-3.27-4.71-.97-8.76-1.94-11.96-2.75-6.17,1.99-12.34,3.97-18.51,5.96-2.24-2.87-4.51-6.02-6.75-9.46-4.36-6.7-7.71-13.15-10.31-18.98.55-.96,1.3-2.51,1.64-4.52.52-3.07-.37-4.65-1.41-9.91-.75-3.81-1.05-6.79-1.29-9.29-.35-3.55-.52-5.32-.46-7.85.07-3.28.46-5.32.36-9.81-.02-1.06-.07-1.94-.1-2.53-.98.18-2.36.55-3.87,1.34-.7.37-2.74,1.51-4.49,3.75-2.68,3.43-2.93,7.2-2.96,8.59-3.63.36-7.25.72-10.88,1.08-.32-2.43-.55-5.86-.05-9.91.52-4.2,1.59-7.25,2.38-9.45,1.01-2.83,2.66-6.65,5.37-10.84l-7.05-.35c-6.05-8.68-12.1-17.35-18.16-26.03-.91-1.4-2.1-3.56-2.73-6.39-.53-2.38-.37-3.92-.36-5.96,0-1.59-.65-5.54-1.96-13.37-1.26-7.52-1.51-8.58-2.17-10.22-1.63-4.07-3.74-6.61-4.22-7.18-2.18-2.58-3.6-3.11-7.61-6.03-4.86-3.54-8.08-6.62-11.33-9.73-4.01-3.84-6.04-5.81-7.21-8.13-1.12-2.24-1.61-5.26-2.53-11.21-.96-6.18-.8-7.15-1.45-10.64-.56-3.05-1.62-7.36-3.78-12.47-2.08-.91-4.79-2.18-7.87-3.88-2.68-1.48-7.33-4.08-12.45-8.25-3.42-2.78-8.03-6.59-12.38-12.99-1.53-2.25-5.04-7.77-7.36-15.73-1.47-5.06-1.99-9.5-2.17-12.81-3.3-4.78-6.83-10.81-9.86-18.09-3.75-9.01-5.26-16.44-5.8-19.37-1.4-7.59-1.47-13.36-1.55-19.3-.03-2.43-.06-9.24.84-17.96.33-3.25.91-7.11,2.05-14.83,1.2-8.08,1.43-9,1.96-12.91.59-4.3,1.3-10.47,1.74-18.09Z"/>
    <path class="cls-42" d="M1076.9,601.35c-2.61,9.37-6.39,15.69-9.5,19.83-1.47,1.96-5.39,6.54-13.22,15.7-1.45,1.7-2.88,3.42-4.34,5.12-4.69,5.48-6.2,7.03-5.99,7.27.33.37,4.67-2.73,8.57-6.09,2.37-2.05,7.21-6.47,12.6-13.63,4.11-5.47,6.99-9.29,9.19-15.28,1.91-5.18,2.5-9.77,2.69-12.91Z"/>
    <path class="cls-42" d="M1079.79,635.63c-.61-.09-.71,5.18-4.13,11.05-3.81,6.54-9.31,9.64-8.88,10.22.29.4,2.92-.93,4.85-2.27,1.28-.89,5.68-4.04,7.64-10.02,1.45-4.43,1.08-8.9.52-8.98Z"/>
    <path class="cls-42" d="M1092.29,664.03c-.08,6.26-.79,11.27-1.45,14.77-.75,3.99-1.99,8.95-2.27,16.21-.05,1.17-.21,5.4.31,5.47.48.06,1.31-3.45,1.45-4.03,1.14-4.85.81-7.35,1.14-11.46.57-7.28,2.26-7.86,2.07-13.53-.11-3.16-.73-5.74-1.24-7.44Z"/>
    <path class="cls-42" d="M1159.31,771.95c.56-.34,10.14,14.23,17.97,27.26,15.67,26.07,9.99,22.04,19.41,35.94,1.66,2.45,9.13,13.34,10.74,26.23.15,1.23.61,4.91-.21,5.16-1.23.38-4.56-7.26-7.02-12.81-4.73-10.67-10.13-21.05-14.66-31.81-12.49-29.6-26.9-49.58-26.23-49.98Z"/>
    <path class="cls-36" d="M1394.15,911.98c.26-1.46-8.82-4.97-18.18-6.2-7.25-.95-14.05-.46-26.85,2.48-19.72,4.53-29.59,6.8-38,12.39-12.08,8.03-18.58,18.2-24.37,27.26-5.92,9.26-8.6,16.64-10.33,21.48-1.8,5.04-2.91,9.33-2.48,9.5.62.24,2.97-8.35,10.33-16.94,4.26-4.98,5.33-4.27,9.09-9.09,4.8-6.17,4.62-9.35,8.26-14.87,3.83-5.81,8.37-8.86,13.63-12.39,8.34-5.6,18.16-9.55,31.39-11.98,27.24-4.99,47.12.49,47.5-1.65Z"/>
    <path class="cls-36" d="M1278.17,976.63c-.61-.49,4.5-7.7,4.75-8.06,1.83-2.57,3.45-4.83,6.09-7.44,5.18-5.11,8.66-6.05,10.64-6.3.6-.08,2.21-.28,2.48.31.36.79-1.91,2.5-4.13,4.23-3.16,2.47-6.18,5.12-9.29,7.64-6.99,5.66-10.06,9.99-10.53,9.6Z"/>
    <path class="cls-36" d="M1264.85,949.58c-.47-.43-5.77,5.06-23.13,21.89-20.89,20.25-20.83,19.7-23.55,23.13-14.9,18.86-20.29,40.27-19,40.9.4.2,1.43-1.66,9.09-13.22,8.02-12.11,12.03-18.16,15.7-23.13,6.51-8.82,7.56-8.5,19.83-22.72,9.24-10.7,21.83-26.16,21.07-26.85Z"/>
    <path class="cls-36" d="M1284.06,1137.32c.72,7.66,1.43,18.55,1.24,31.6-.35,23.05-3.34,40.33-6.2,56.39-2.46,13.82-6.27,31.73-12.38,52.4-1.34-8.07-2.4-16.86-2.97-26.28-.27-4.47-.42-8.8-.46-12.97,1.28-5.83,3.31-15.38,5.55-27.26,3.73-19.81,4.58-27.82,7.85-43.51,1.45-6.97,3.81-17.49,7.37-30.36Z"/>
    <path class="cls-36" d="M1262.05,1195.98c.57-10.61,1.2-19.4,1.7-25.68,1.45-18.27,2.18-27.41,3.58-37.45.49-3.53,1.56-10.79,2.2-20.79.24-3.73.35-6.79.41-8.81-.92,4.07-2.48,10.76-4.68,19-3.94,14.75-5.01,16.08-6.75,25.06-1.13,5.84-2.13,12.77-3.3,20.93-.48,3.36-.87,6.15-1.12,8.07.99,1.88,1.97,3.87,2.91,5.97,2.18,4.84,3.81,9.46,5.04,13.7Z"/>
    <path class="cls-36" d="M1307.95,1155.15c.29,4.4.78,9.87,1.65,16.11.58,4.15,1.73,11.62,3.99,21.2,3.03,12.87,4.14,12.95,7.99,27.26,1.82,6.78,1.05,4.81,6.88,28.92,1.04,4.3,2.73,11.18,5.92,19.97,1.11,3.05,2.12,5.56,2.84,7.3.78-4.02,1.78-8.32,3.06-12.85,1.15-4.09,2.4-7.9,3.69-11.42-6.61-15.9-11.18-29.04-14.14-38.1-4.39-13.47-6.88-23.03-12.94-38.14-3.51-8.75-6.77-15.74-8.95-20.24Z"/>
    <path class="cls-36" d="M1264.42,1009.16c-.88,2.33-2.05,5.52-3.32,9.35-1.59,4.8-2.89,8.71-4.06,13.69-2.18,9.22-2.61,16.42-2.69,18.03-.29,5.45-.07,10.14.26,13.77-3.67,6.59-6.33,12.36-8.18,16.74-2.89,6.84-5.92,14.12-7.94,24.16-1.6,7.98-1.85,14.11-1.9,15.82-.27,8.67.76,15.33,1.24,18.05.77,4.39,2.14,11.88,6.46,20.6.58,1.18,2.2,3.95,3.81,6.71,2.59,4.44,3.11,5.1,4.59,7.68,1,1.75,3.47,6.14,5.97,12.01,3.49,8.2,1.6,6.48,3.56,11.12.26.63.94,2.16.42,3.82-.36,1.16-1.16,1.93-1.72,2.37-.47,2.01-1.25,4.76-2.58,7.87-.85,2-2.64,5.81-6.72,11.24-3.39,4.51-7.06,8.04-14.26,14.91-5.52,5.27-8.33,7.94-10.97,9.55-7.41,4.55-15.5,6.15-15.95,5.13-.53-1.2,10.36-3.89,19.01-13.76,8.93-10.18,10.65-22.49,11.7-30.02,1.88-13.42-.44-23.96-1.79-29.88-3.86-16.85-8.5-16.11-11.15-29.19-3.46-17.09,1.61-32.5,5.65-44.75,4.57-13.87,6.85-20.81,11.15-27.81,2-3.26,4.66-7.07,5.78-13.08,1.15-6.21-.58-8.08-.83-15.83-.12-3.86-.01-13.61,4.54-23.82,1.57-3.52,4.49-8.92,9.9-14.5Z"/>
    <ellipse class="cls-36" cx="1258.11" cy="1001.24" rx=".92" ry="12.75" transform="translate(-274.67 515.54) rotate(-20.93)"/>
    <ellipse class="cls-36" cx="1267.56" cy="998.22" rx="12.75" ry=".92" transform="translate(-126.83 1809.92) rotate(-68.43)"/>
    <ellipse class="cls-36" cx="1270.43" cy="1001.73" rx="10.5" ry=".92" transform="translate(-260.3 1525.49) rotate(-57.14)"/>
    <path class="cls-1" d="M1302.51,1324.43c-.16,0-.2,2.46-.48,5.07-.74,6.87-2.87,12.03-4.85,16.73-.95,2.26-2.49,5.4-5.58,11.67-1.99,4.04-3.14,6.27-3.51,9.71-.23,2.14-.54,4.96.83,7.85,1.42,3.02,4.25,4.6,9.91,7.75,2.28,1.27,4.21,2.05,8.06,3.61,3.96,1.61,4.8,1.7,4.96,1.45.33-.54-2.18-2.64-2.48-2.89-1.84-1.53-3.23-2.13-7.95-4.44-3.53-1.73-2.2-1.13-4.54-2.27-3.64-1.77-4.12-1.9-4.96-2.69-2.16-2.04-2.67-4.7-2.79-5.37-.23-1.29-.23-2.86.93-6.51,1.11-3.48,2.01-4.87,5.16-11.5,1.4-2.95,2.28-4.89,2.98-6.49,1.4-3.19,2.11-4.82,2.72-6.73.53-1.64,1.4-4.42,1.74-8.07.33-3.59.04-6.88-.14-6.88Z"/>
    <path class="cls-1" d="M1257.62,1381.76c.9-.53,2.21-1.29,3.82-2.17,2.44-1.34,3.69-2.01,4.75-2.38,2.83-.97,3.82-.28,6.3-.83,3.14-.69,5.18-2.59,6.61-3.92,1.63-1.52,3.92-4.37,6.09-17.04.41-2.41,1.48-9,1.96-19.11.31-6.5.32-13.16.1-13.17-.21,0-.7,6.12-.92,10.04-.18,3.03-.28,5.76-.28,5.76-.12,2.96-.11,3.81-.26,5.83-.15,2.04-.34,3.59-.49,4.83-.19,1.58-.46,3.72-.98,6.48-.32,1.69-.62,2.96-1.21,5.5-.78,3.33-1.04,4.07-1.16,4.41-.76,2.11-1.23,3.42-2.32,4.62-1.95,2.16-4.73,2.69-7.07,3.15-2.7.52-3.12.02-5.65.77-.55.16-.28.11-4.26,1.78-2.66,1.11-3.36,1.38-4,2.19-.86,1.09-1,2.4-1.01,3.23Z"/>
    <path class="cls-1" d="M1162.92,1302.57c-.64.74-1.6,2.05-2.03,3.91-.44,1.93-.07,3.46.41,5.51.66,2.76.99,4.14,2.07,5.09,2.55,2.25,7.28,1.11,7.3.69,0-.15-1.33-.09-3.86-.83-1.88-.55-2.83-.83-3.5-1.61-.37-.43-.66-1.47-1.21-3.54-.47-1.75-.71-2.63-.7-3.07.02-1.19.41-1.61,1.01-3.87.26-.97.42-1.77.51-2.28Z"/>
    <path class="cls-1" d="M1153.94,1302.8c.32.02.24,4.29.23,4.76-.09,4.59-.59,4.2-.44,6.92.1,1.91.39,2.84-.28,3.69-.27.34-.7.69-2.89,1.16-2.06.44-5.41.93-5.52.44-.05-.2.46-.48,1.19-.88,1.35-.74,1.88-.69,3.15-1.27.95-.43,1.86-.84,2.58-1.78.51-.67.71-1.31.9-1.96.27-.92.36-1.72.39-3.56.05-2.86-.12-3.46.1-5.14.13-.94.41-2.4.6-2.38Z"/>
    <path class="cls-27" d="M1274.88,1370.15c3.95-.87,8.01-.81,12.02-.45,1.88.17,3.86.27,5.7.67.85.18,1.07.44,1.46,1.17.31.57.73.94,1.41.93,1.18-.02,1.18-1.85,0-1.83.46,0-.59-1.23-.82-1.39-.58-.41-1.27-.6-1.96-.71-1.98-.32-3.99-.51-5.98-.68-4.12-.36-8.26-.36-12.31.53-1.15.25-.66,2.02.49,1.76h0Z"/>
    <path class="cls-27" d="M1276.1,1362.62c.95-1.18,3.32-.77,4.66-.78,1.81-.01,3.62,0,5.43.06s3.48.06,5.2.25c1.49.17,3.37.5,4.07,2,.5,1.07,2.07.14,1.58-.92-1.64-3.52-7.28-3.06-10.45-3.15-2.28-.07-4.56-.08-6.84-.06-1.68.02-3.77-.15-4.95,1.31-.73.91.55,2.21,1.29,1.29h0Z"/>
    <path class="cls-27" d="M1280.21,1355.03c5.72-2.81,12.73-2.17,17.92,1.5.96.68,1.88-.9.92-1.58-5.73-4.05-13.49-4.58-19.76-1.5-1.06.52-.13,2.1.92,1.58h0Z"/>
    <path class="cls-27" d="M1281.39,1349.1c3.22-1.9,6.87-2.96,10.62-3.01,2.9-.04,6.81.37,8.16,3.38.48,1.07,2.05.14,1.58-.92-1.51-3.4-5.7-4.22-9.05-4.29-4.29-.08-8.54,1.08-12.23,3.26-1.01.6-.09,2.18.92,1.58h0Z"/>
    <path class="cls-27" d="M1282.93,1341.16c3.36.76,6.77,1.25,10.21,1.45s6.82-.02,10.1.99c1.13.35,1.61-1.42.49-1.76-3.19-.99-6.52-.86-9.81-1.01-3.54-.16-7.04-.65-10.49-1.43-1.15-.26-1.64,1.5-.49,1.76h0Z"/>
    <path class="cls-27" d="M1283.77,1337.03c3.92-.81,7.92-1.37,11.92-1.46,1.91-.04,3.6.27,5.33,1.1,1.47.71,2.89,1.49,4.49,1.86,1.15.27,1.63-1.5.49-1.76-1.8-.42-3.35-1.41-5.03-2.12s-3.44-.95-5.27-.91c-4.16.1-8.34.68-12.41,1.53-1.15.24-.66,2,.49,1.76h0Z"/>
    <path class="cls-27" d="M1283.68,1331.82c8.36-1.69,17-1.28,25.17,1.13,1.13.33,1.61-1.43.49-1.76-8.49-2.5-17.46-2.88-26.14-1.13-1.15.23-.66,2,.49,1.76h0Z"/>
    <path class="cls-27" d="M1150.44,1316.8c2.4-.83,4.84-1.56,7.34-2.02,1.23-.23,2.48-.39,3.73-.45.91-.04,1.97-.08,2.68.58.86.8,2.16-.49,1.29-1.29-1.85-1.72-4.85-1.13-7.11-.79-2.88.43-5.68,1.25-8.43,2.2-1.11.38-.63,2.15.49,1.76h0Z"/>
    <path class="cls-27" d="M1152.51,1313.4c3.71-1.57,7.91-1.92,11.83-1.03,1.15.26,1.64-1.5.49-1.76-4.45-1.01-9.05-.56-13.24,1.22-.46.19-.55.86-.33,1.25.27.47.8.52,1.25.33h0Z"/>
    <path class="cls-27" d="M1152.93,1310.12c.62-.66,1.49-.89,2.34-1.1,1.08-.28,2.18-.5,3.29-.65s2.14-.23,3.22-.27c.54-.02,1.08-.02,1.61,0,.25,0,.5,0,.74.03.13.01.27.05.27.05.53,1.05,2.11.12,1.58-.92s-1.94-.98-2.97-.99c-1.41-.01-2.81.07-4.21.25s-2.7.41-4.02.75c-1.16.3-2.31.68-3.15,1.57s.48,2.15,1.29,1.29h0Z"/>
    <path class="cls-27" d="M1152.49,1305.79l6.23.1c1.96.03,4.03-.12,5.92.43,1.13.33,1.62-1.44.49-1.76-1.98-.58-4.12-.46-6.16-.49l-6.48-.11c-1.18-.02-1.18,1.81,0,1.83h0Z"/>
    <path class="cls-9" d="M1217.69,549.45c.03,1.05.07,2.61.08,4.49.03,4.77-.15,5.52-.21,9.92-.05,4.43.12,4.92.14,13.63,0,.79,0,1.44,0,1.88,4.44,4.99,8.48,8.72,11.53,11.32,1.79,1.53,2.96,2.43,6.21,5.04,5.05,4.05,9.17,7.44,12.06,9.85-1.39.82-3.48,1.99-6.1,3.21-6.64,3.09-10.52,3.63-16.83,5.58-11.98,3.69-10.17,5.49-17.25,6.61-7.18,1.14-13.59.01-17.76-.72-4.49-.79-8.16-1.9-10.74-2.8,1.28-.52,3.01-1.35,4.89-2.64.39-.27,1.93-1.35,4.27-3.68.98-.98,2.29-2.37,4.89-5.65,2.58-3.26,4-5.05,5.75-7.75,2.1-3.24,3.41-5.83,4.51-8.02,1.06-2.1,2.72-5.6,4.41-10.12.55-1.47.61-1.73,3.34-10.22,1.55-4.83,2.34-7.27,2.84-8.77.89-2.67,2.22-6.5,3.98-11.15Z"/>
    <ellipse class="cls-9" cx="1112.08" cy="534.25" rx=".69" ry="6.74" transform="translate(-57.67 142.05) rotate(-7.12)"/>
    <ellipse class="cls-9" cx="1222.34" cy="521.83" rx="7.91" ry=".81" transform="translate(640.1 1716.57) rotate(-87.14)"/>
    <path class="cls-9" d="M1225.28,526.44c-.16-.04.17-1.61.88-6.87.44-3.27.77-6.06-.29-8.48-.19-.42-.87-1.98-1.9-2.05-.58-.04-.97.42-1.24.22-.35-.25-.14-1.27.29-1.97.45-.74,1.43-1.62,2.41-1.46.37.06,1.2.34,2.05,2.56,1.1,2.9,1.08,6.06.22,10.31-.83,4.13-2.16,7.81-2.41,7.75Z"/>
    <path class="cls-1" d="M1274.14,1321.78c2.47.29,5.69.66,9.45,1.04,2.07.21,3.82.37,13.76,1.22,9.21.78,10.86.91,13.78.78,4.55-.19,7.2-.78,9.25-1.41,3.12-.96,5.42-2.22,6.58-2.9,2.36-1.39,4.18-2.9,5.5-4.14.19,1.33.38,2.67.57,4-1.12,1.06-2.86,2.5-5.25,3.74-3.92,2.03-7.44,2.4-10.05,2.62-6.89.58-14.11.69-23.82.28-5.36-.23-9.06-.51-12.94-.96-3.05-.36-5.61-.75-7.5-1.06.23-1.06.45-2.13.68-3.19Z"/>
    <polygon class="cls-40" points="1303.75 878.66 1306.7 877.41 1310.42 892.26 1308.56 893.6 1303.75 878.66"/>
    <path class="cls-40" d="M1194.62,906.45l-3.4.43,5.57,20.77c.28-.49,4.37-.15,4.37-.15l-6.54-21.05Z"/>
    <path class="cls-40" d="M1145.11,901.22c-.06,1-.17,2.35-.37,3.95-.25,1.92-.86,5.97-2.44,10.85-2.33,7.19-5.46,12.21-7.09,14.79-3.07,4.85-4.6,7.27-6.75,9-.58.46-2.61,2.02-4.51,4.72-.43.61-.75,1.14-.95,1.48.3.35.6.7.91,1.05.77-.59,1.79-1.41,2.95-2.45.84-.75,3.44-3.15,6.47-7.09,1.24-1.62,4.22-5.66,7.02-11.5,2.75-5.73,4.04-10.51,4.54-12.53,1-4.01,1.45-7.53,1.67-10.25-.48-.67-.97-1.34-1.45-2.01Z"/>
    <path class="cls-30" d="M1194.62,906.45c2.18-.43,4.36-.86,6.54-1.28,2.48,7.44,4.97,14.89,7.45,22.33l-7.25.32c-2.25-7.12-4.5-14.24-6.74-21.36Z"/>
    <path class="cls-17" d="M1061.11,490.05c14.61-.3,29.22-.61,43.84-.91,2.71-9.26,2.73-16.58,2.28-21.46-.97-10.65-4.53-13.81-3.65-23.29.58-6.25,2.2-5.66,5.02-16.9,3.48-13.85,1.48-16.65,5.02-20.09,6.06-5.89,17.92-3.54,21.92-2.74,7.13,1.42,6.73,3.4,12.33,4.11,8.51,1.08,11.01-3.3,24.66-6.39,6.48-1.47,12.51-2.83,20.09-1.37,3.38.65,12.21,2.35,17.81,9.59,3.45,4.46,4.03,8.89,5.02,16.44,1.99,15.13-2.34,19.58,1.83,28.77.5,1.11,2.01,4.23,4.11,9.13,2.3,5.37,2.99,7.46,3.2,10.05.26,3.3-.37,6.04-.91,7.76,1.92.45,5.01.95,8.68.46,6.51-.88,6.88-3.84,13.7-5.02,5.56-.97,9.43.28,11.87-1.83.81-.7,1.91-1.23,4.11-2.28.39-.19,1.01-.47,1.6-.24.85.33,1.1,1.52,1.15,1.75.54,2.53-5,6.27-7.82,8.1-10.88,7.05-14.88,8.42-14.88,8.42-21.08,8.01-24.14,13.11-46.35,19.99-24.63,7.64-44.55,8.72-59.69,9.44,0,0-32.96,1.57-59.42-8.33-4.88-1.83-11.14-4.75-14.16-11.11-2.22-4.68-1.81-9.39-1.34-12.05Z"/>
    <path class="cls-19" d="M1231.08,496.69c.07,2.51.13,6.48,0,11.35-.34,13.72-.58,20.72-4.26,27.69-1.22,2.3-3.44,5.85-7.54,9.5-.73,1.95-1.82,4.91-3.11,8.52-6.18,17.31-5.79,18.71-8.85,26.38-2.55,6.4-6.79,16.81-15.89,27.03-3.72,4.18-6.07,6.82-10.32,9.18-7.59,4.2-19.48,6.51-28.35.98-3.22-2-5.42-5.32-9.83-11.96-3.38-5.1-4.11-7.21-10.32-19.17-5.68-10.92-5.78-10.53-8.19-15.57-3.68-7.69-6.25-14.51-8.03-19.83-2.42-2.4-5.15-5.8-7.21-10.32-.31-.69-1.75-3.91-2.62-8.52-.92-4.87-.78-9.03-.48-11.9"/>
    <path class="cls-17" d="M1226.05,537.11c1.39.27,3.47.75,5.91,1.63,4.08,1.47,6.68,3.16,13.14,7.21,5.08,3.18,7.61,4.77,7.84,4.87,2.92,1.38,10.15,4.25,18.23,2.97,7.28-1.16,5.98-4.22,15.26-6.78,5.7-1.58,12.81-3.54,19.07-.42,2.39,1.19,3.84,2.71,6.78,2.75,2.79.04,3.56-1.31,7.84-2.54,3.02-.87,6.08-1.75,9.11-.85,3.48,1.04,3.17,3.3,7.63,6.57,2.22,1.63,5.23,2.71,11.23,4.87,7.99,2.88,7.98,2.1,10.17,3.6,5.28,3.61,5.82,8.44,8.9,8.26,1.98-.11,2.43-2.14,6.15-3.18.32-.09,2.12-.57,4.24-.42,5.91.42,7.67,5.31,12.08,5.09,1.48-.07,1.4-.63,5.09-2.54,4.62-2.4,5.59-1.97,13.99-5.09,6.24-2.32,6.7-2.92,9.96-3.6,4.07-.85,7.57,1.2,9.11-.64.69-.82.72-1.94.64-2.75-4.7-.67-8.1-2.22-10.17-3.39-2.57-1.45-4.43-2.53-5.3-4.66-1.03-2.53.42-3.89.64-7.84.19-3.59-.89-4.75-2.54-11.02-1.5-5.67-1.4-7.69-2.12-10.81-1.07-4.63-3.82-11.09-11.44-18.44-.3-.71-1.43-3.64-.21-6.99.25-.69,1.33-3.66,4.45-5.09,2.8-1.28,5.43-.49,6.36-.21,4.22,1.27,6.16,4.91,6.57,5.72.04-.45.43-4.51,3.6-6.36,3.3-1.92,8.33-.73,11.23,3.39.4-.75,1.93-3.41,5.09-4.45,3.53-1.17,7.67.16,10.38,3.39.23-1.38.99-4.94,3.6-6.15,3.67-1.69,8.54,2.4,11.23,4.66,2.8,2.35,3.66,3.91,8.69,10.81,7.27,9.98,7.13,9.02,8.48,11.66.67,1.32,3.57,7.16,4.66,15.47.34,2.56.42,4.75.42,6.36,2.96.15,7.23.67,12.08,2.33,8.74,2.99,14.25,7.95,16.32,9.96,5.72,5.56,8.37,11.25,9.11,12.93,2.08,4.71,2.86,8.95,3.18,11.87-3.47,4.34-8.59,10.77-14.83,18.65-5.83,7.35-8.76,11.05-9.32,11.87-7.69,11.1-9.74,18-15.89,22.68-.75.57-2.49,1.81-4.24,4.03-2.51,3.18-2.05,4.57-4.03,7.63-3.14,4.86-8.03,7.14-9.54,7.84-3.96,1.84-4.48.75-6.57,2.33-4.21,3.2-2.11,7.68-6.15,11.23-2.97,2.62-6.98,2.7-9.32,2.75-4.27.09-7.52-1.3-9.11-2.12-8.11,1.6-13.59,1.28-17.17.64-1.47-.26-5.1-1.02-9.54,0-2.03.47-3.63,1.17-4.66,1.7-10.88.07-21.76.14-32.64.21,5.6,7.61,11.66,15.41,18.22,23.31,3.4,4.1,6.8,8.05,10.17,11.87,1.34.14,2.68.28,4.03.42-.02,1.53,0,3.81.21,6.57.41,5.31,1.21,8.15,1.7,11.02,1.41,8.44-1.13,10.18-.64,19.92.06,1.22.13,1.71,2.33,13.35,4.26,22.52,4.63,23.91,5.51,26.28.41,1.12,2.09,5.55,3.81,11.44.94,3.2,1.38,5.08,1.7,7.21.64,4.26.06,4.63.64,7.21,1.3,5.82,5.23,8.35,4.45,9.32-.71.9-4.93-.08-7.42-2.97-2.68-3.11-1.47-6.27-4.45-8.48-1.79-1.33-2.64-.48-4.24-1.91-1.2-1.07-1.65-2.36-2.76-7.42-1.34-6.12-1.15-6.3-1.7-6.99-2.01-2.56-6.15-1.99-12.29-1.7-12.21.58-9.99-1.03-18.86-.21-5.15.47-12.29,1.6-20.56,4.45.06,2.77.31,6.84,1.27,11.66,1.27,6.38,2.87,9.55,5.93,17.8,2.75,7.4,4.55,13.19,6.78,20.34,1.97,6.33,4.35,12.54,6.36,18.86,1.5,4.74,3.3,10.64,7.84,12.29,1.39.5,2.09.27,3.6,1.06,3.77,1.95,4.99,6.26,5.72,8.26,1.07,2.95,4.74,6.77,12.08,14.41,6.18,6.44,8.18,7.01,19.5,16.53,8.65,7.28,12.97,10.92,16.95,15.26,4.77,5.19,11.07,13.38,16.32,25.64-3.04,3.11-6.07,6.22-9.11,9.32-2.24-4.75-5.38-10.62-9.75-16.95-1.06-1.53-5.6-8.04-12.93-15.68-4.47-4.67-10.56-10.36-18.44-16.11-1.72,10.43-2.32,18.9-2.54,24.58-.48,11.89.55,13.94-1.06,21.19-.78,3.54-1.04,3.09-7.21,20.34-3.21,8.99-3.43,9.91-4.87,13.35-1.89,4.52-3.11,6.72-8.05,16.11-12.49,23.73-11.88,23.25-13.77,25.85-1.82,2.49-4.77,6.2-7.42,12.08-1.06,2.35-1.33,3.41-2.33,5.3-2.59,4.88-6.19,8.03-8.9,9.96.45,4.64.49,8.54.42,11.44-.11,4.61-.2,7.35-1.27,10.81-1.02,3.3-2.5,5.8-3.6,7.42.87,1.4,2.1,3.5,3.39,6.15,5.88,12.06,6.82,22.93,7.21,28.61,1.24,18.49.24,37.12-.64,52.13-.66,11.37-1.66,27.69-3.39,48.74-2.42,29.43-3.46,34.01-5.3,39.21-1.79,5.08-4.08,9.98-4.87,18.01-.96,9.66,1.47,11.3.21,20.34-1.5,10.74-5.23,10.65-5.09,19.5.09,5.3,1.53,11.65,2.54,16.11.51,2.23.92,4,1.7,6.36,2.1,6.32,4.17,8.68,5.72,12.29,1.63,3.79,1.32,5.79,1.48,17.38.07,4.72.22,11.69.64,20.34-1.55,2.68-3.11,5.37-4.66,8.05-1.48.07-2.97.14-4.45.21-.28,4.1-.57,8.19-.85,12.29-.05,1.09-.33,3.64-2.12,6.15-1.32,1.85-2.89,2.88-3.81,3.39-6.65,2.46-15.31,5.22-25.64,7.42-9.02,1.91-15.39,2.56-25.64,3.6-6.18.63-.8-.08-31.79.42-4.6.07-9.36.17-11.66-2.97-2-2.72-2.03-7.71.21-10.17,1.08-1.18,1.82-.84,2.75-2.12,1.59-2.19.26-4.33,1.06-7.42.28-1.09.8-2.18,3.6-5.3,4.74-5.27,7.13-6.45,9.75-9.32,3.11-3.41,3.15-5.49,5.93-11.23,5.95-12.28,9.58-10.63,12.72-18.86,2.6-6.83.45-8.85,1.91-24.79.6-6.51,1.47-11.8,2.12-15.26-4.8-3.81-9.61-7.63-14.41-11.44-.22-6.03.25-14.22,3.18-23.31,1.13-3.5,2.46-6.61,3.81-9.32-1.9-11.09-2.64-20.15-2.97-26.28-.74-13.79-.77-38.81-.85-44.5-.01-1.07-.05-3.06-.21-5.62,0,0-.06-1-.14-1.99-1.02-12.73-14.44-33.22-14.44-33.22-13.44-20.51-11.8-45.39-11.07-52.24,1.37-12.99,6.17-25.02,8.67-31.3,3.1-7.77,6.35-14.04,8.91-18.54-.92-10.5-.04-18.95.96-24.8,1.38-8,3.68-15.04,5.54-20.7,1.37-4.19,2.66-7.65,3.61-10.11"/>
    <path class="cls-17" d="M1105.05,526.23c-2.03.54-5.19,1.5-8.86,3.15-9.28,4.17-9.85,7.34-17.53,10.24-6.09,2.3-7.95,1.15-13.2,4.14-3.5,2-5.95,4.38-7.49,6.11-8.18-18.69-9.99-29.33-10.05-35.66-.04-4.48.79-7.82-.2-14.58-.7-4.83-1.81-7.78-.39-11.62,1.19-3.24,2.82-3.45,4.33-6.5,2.83-5.71.67-12.18.2-13.59-3.79-11.36-17.29-15-20.09-15.76-10.2-2.75-18.74.13-21.87,1.38-2.74,1.09-11.95,4.77-16.55,13.59-3.83,7.36-1.76,13.15-6.89,19.9-.64.84-2.05,2.56-2.36,5.12-.41,3.28,1.2,6.19,2.56,8.08-.12,5.33-.45,13.67-1.58,23.84-1.65,14.95-3.38,19.3-4.53,30.53-.76,7.42-2.11,20.64.59,35.66,1.55,8.63,5.34,22.82,15.96,38.61.33,6.48,1.87,15.92,7.49,25.41,6.25,10.56,14.67,16.32,20.49,20.29,5.61,3.83,10.72,6.32,14.38,7.88,2.4,6.91,3.54,12.69,4.14,16.74,1.32,8.89.52,12.77,3.74,18.12,1.4,2.32,3.56,4.37,7.88,8.47,2.77,2.63,5.37,4.74,10.44,8.86,7.73,6.28,7.52,5.77,8.47,6.89,2.81,3.33,3.88,6.88,5.52,17.14,2.8,17.57,1.14,16.38,2.95,21.28.62,1.66,1.48,3.63,12.61,19.31,3.08,4.34,5.67,7.93,7.49,10.44,2.3.13,4.6.26,6.89.39-1.99,2.84-4.89,7.71-6.5,14.38-1.61,6.67-1.26,12.32-.79,15.76,3.55-.26,7.09-.53,10.64-.79-.02-1.15.05-5.15,2.95-8.86,3.13-4.01,7.4-4.92,8.47-5.12-.57,5.59-.8,12.48,0,20.29.62,6.07,1.73,11.44,2.95,15.96-.06,1.39-.28,3.33-.98,5.54-.19.59-.62,1.88-1.42,3.45-1.71,3.35-3.83,5.48-4.29,5.98-4.56,4.92-3.54,18.2-3.35,23.84.29,8.64,2.14,15.78,3.94,20.88-3.55-2.21-7.09-4.42-10.64-6.63-3.37,1.23-6.73,2.46-10.1,3.69,6.73,5.44,13.46,10.87,20.2,16.31.58,3.5,1.17,6.99,1.75,10.49,1.31,1.56,3.11,3.96,4.66,7.18,3.26,6.75,2.96,11.95,3.69,17.28,1.16,8.54,3.79,9.02,8.93,22.33,2.13,5.5,5.54,14.49,7.18,26.02.83,5.8,2.53,18.58-1.17,33.79-2.34,9.65-4.04,8.67-6.41,18.84-2.04,8.78-1.68,13.37-2.52,28.74-1.15,20.82-2.1,17.47-1.94,25.24.51,24.42,9.35,30.03,4.08,42.72-1.81,4.37-4.57,7.8-6.41,15.73-1.19,5.12-1.1,8.25-1.36,13.59-1.15,23.94-5.94,25.4-3.11,35.54.17.6,1.92,5.84,5.44,16.31,1.95,5.81,2.01,5.95,2.14,6.6,1.45,7.4-1.68,12.87-5.24,21.55-1.38,3.37-5.6,13.76-7.96,25.24-2.09,10.17-2.04,17.82-1.94,20.97.28,9.21.5,16.49,5.24,23.5,4.4,6.51,10.46,9.47,12.62,10.49,17.33,8.19,43.84,1.75,50.1-13.4,1.7-4.11,2.75-10.88,1.17-17.48-1.22-5.1-2.92-5.52-4.27-11.46-1.68-7.39-.66-13.78-.19-16.51.95-5.59,2.13-6.29,3.11-12.23.8-4.86.75-8.94.58-11.65,5.37-7.51,10.75-15.02,16.12-22.53,3.92.35,10.09.35,16.7-2.33,1.62-.66,5.19-2.26,15.73-12.23,10.05-9.51,15.15-14.43,19.03-21.94,2.92-5.65,4.32-10.81,5.05-14.37"/>
    <path class="cls-17" d="M1349.58,781.39c-.78-3.27-1.75-8.18-2.19-14.21-.59-8.17.31-11.41.46-17.83.28-12.56-2.69-22.42-5.72-32.47-3.39-11.27-4.91-11.3-6.86-18.98-3.19-12.57-1.97-23.69-.46-31.1-8.55-5.99-14.65-11.65-18.52-15.55-7.97-8.03-11.32-13.48-24.47-29.04-4.4-5.21-8.04-9.35-10.29-11.89-2.79-6.95-3.52-12.69-3.66-16.69-.13-3.91.3-5.95.46-11.2.2-6.71-.26-12.17-.69-15.78-7.95-3.76-14.05-7.33-18.06-9.83-9.04-5.63-13.59-9.61-23.09-14.18-4.64-2.23-8.58-3.69-11.06-4.55"/>
    <path class="cls-17" d="M1482.03,532.17c.53,1.22,1.23,3.23,1.27,5.74.06,3.54-1.26,4.72-.82,7.85.22,1.53.97,2.95,2.46,5.74,1.02,1.9,2.36,4.18,4.1,6.68-.97.99-2.49,2.37-4.57,3.63-7.66,4.66-16.37,3.8-19.32,3.51-4.64-.46-9.31-.71-13.94-1.29-1.22-.15-3.01-.38-3.28.23-.41.95,2.95,3.46,5.62,4.92,4.74,2.59,9.11,2.87,14.76,3.16,4.54.24,8.94.47,14.64-.82,5.99-1.35,9.62-2.17,11.95-5.39,2.93-4.05,1.89-9.29.82-14.64-.69-3.48-1.48-7.16-4.57-10.54-2.56-2.79-5.51-4.08-7.26-4.68"/>
    <path class="cls-17" d="M1428.18,558.21c3.19,1.96,7.8,4.21,13.67,5.34,2.2.43,4.24.63,6.09.7"/>
    <path class="cls-17" d="M1217.97,548.78c-.33,7.44-.48,15.14-.4,23.08.02,2.53.07,5.03.14,7.51,1.65,1.86,4.15,4.57,7.37,7.65,9.12,8.69,14.3,10.97,19.94,16.11,7.51,6.84,10.91,14.27,14.2,21.44,7.07,15.4,7.5,28.9,7.65,35.77.39,18.12-4.29,32.62-8.06,41.51"/>
    <path class="cls-17" d="M1133.77,588.42c-.5,3.95-.97,9.44-.77,16.01,0,0,.08,2.67.3,5.37.99,12.17,5.27,26.06,5.96,28.3,4.62,15.09,2.57,12.28,8.19,31.83,5.63,19.6,6.76,19.21,15.27,45.98,7.55,23.79,10.02,34.68,11.36,41.14,2,9.67,3.2,17.75,3.91,23.27,1.81,2.66,4.34,6.32,7.45,10.61,4.8,6.64,13.69,18.92,24.57,30.9,13.73,15.13,16.34,14.04,26.99,26.62,8.05,9.51,13.45,18.28,16.75,24.2-4.72,4.5-10.58,9.47-17.69,14.33-7.45,5.1-14.53,8.9-20.66,11.73"/>
    <path class="cls-17" d="M1350.85,793.04c-21.95-22.18-40.24-39.64-53.04-51.62-33.98-31.79-37.44-32.6-48.36-46.69-6.45-8.32-12.89-17.9-25.85-28.35-7.93-6.4-14.72-10.24-26.12-16.68-22-12.43-27.23-12.46-38.91-20.84-6.26-4.49-15.21-12-24.18-24.18"/>
    <path class="cls-17" d="M1177.86,617.91c3.83,3.63,7.69,7.37,11.56,11.24,5.01,4.99,12.78,12.77,22.23,23.35,3.1,3.47,7.21,8.17,11.95,13.9"/>
    <path class="cls-17" d="M1142.88,897.45c1.11-.33,16.26-4.98,17.39-5.31,0,0,.81-.24.81-.24,7.66,1.96,17.97,4.22,30.32,5.85,8.84,1.17,19,2.51,30.85,2.13,14.09-.46,23.77-3.15,42.55-8.51,22.47-6.41,33.7-9.62,47.87-17.02,12.2-6.37,26.38-13.97,38.3-29.79,4.66-6.19,7.72-11.96,9.65-16.14-18.73-17.34-34-31.6-44.47-41.41-47.98-44.94-40.86-39.12-57.81-54.47-6.59-5.97-22.79-20.55-42.21-39.92-1.66-1.66-4.18-4.17-7.54-7.6-16.34-16.7-28.3-30.31-34.74-37.8-3.93-4.56-9.19-10.79-15.29-18.34"/>
    <path class="cls-17" d="M1270.28,889.8c1.98,1.36,10.14,6.19,12.33,8.19,3.32,3.02,5.89,6.06,7.84,8.71,9.44-6.83,18.88-13.65,28.32-20.48.72-.42,3.21-1.78,6.54-1.31,3.11.44,5.05,2.22,5.66,2.83"/>
    <path class="cls-17" d="M1154.5,923.04c5.1,1.23,12.17,2.69,20.7,3.7,15.3,1.81,26.89,1.17,39,.44,10.84-.66,24.78-2.03,40.96-5.01,3.38-2.27,6.36-4.08,8.71-5.45,4.32-2.5,6.71-3.6,9.8-3.7,1.46-.05,3.44-.11,4.36,1.09,1.46,1.92-.75,5.82-1.96,8.06-2.35,4.35-5.42,12.3-8.5,21.35"/>
    <path class="cls-17" d="M1290.45,906.7c1.28,3.24,5.03,10.2,5.23,15.03.04,1.06.07,4.95.03,5.92"/>
    <path class="cls-17" d="M1125.86,870.1c3.78,9,10.96,20.53,14.22,24.66,2.51,3.18,5.85,6.87,9.06,13.13,1.88,3.65,3.04,6.85,3.73,9.04"/>
    <path class="cls-17" d="M1153.63,943.95c1.09,4.64,4.67,17.28,5.82,26.12,1.01,7.77,1.79,17.2,1.56,50.63-.04,6.02-.13,14.24-.31,24.06-1.3.54-4.6,1.69-8.44.63-1.44-.4-2.59-1-3.44-1.56"/>
    <path class="cls-17" d="M1161.18,892.33c-1.08,2.78-2.9,13.34-3.98,16.11"/>
    <path class="cls-17" d="M1107.06,466.07c6.02-1.13,14.55-2.61,24.85-3.92,15.86-2.03,27.74-2.65,41.68-3.35,11.61-.58,26.73-1.11,44.56-1.12"/>
    <path class="cls-17" d="M1104.95,489.14c14.69-.17,26.65-.61,34.71-.98,16.33-.74,25.87-1.58,56.89-3.65,11.65-.78,21.13-1.38,27.12-1.76"/>
    <path class="cls-18" d="M1403.16,505.45c1.45.39,3.67.83,6.38.7,2.81-.14,5.12-.25,6.73-1.97,1.75-1.88,1.61-4.56,1.51-5.57.67,1.5,2.07,4.66,3.94,8.81,2.13,4.73,3.24,7.12,5.33,8.23.79.42,3.04,1.43,5.57.58,3.35-1.13,4.41-4.61,4.52-4.99,0,2.67,1.42,5.02,3.59,5.91,2.68,1.11,5.22-.51,5.68-.81,2.64-1.69,3.21-4.66,3.48-6.03.6-3.12-.31-5.68-.81-6.84.32.29,3.28,2.88,6.61,1.97,2.46-.68,3.64-2.87,4.41-4.29,2.72-5.05,1.22-10.57.61-12.46"/>
    <line class="cls-18" x1="1445.14" y1="490.26" x2="1449.09" y2="503.48"/>
    <line class="cls-18" x1="1430.18" y1="491.07" x2="1437.14" y2="509.51"/>
    <path class="cls-18" d="M1408.76,517.78c.87-.85,2.87-2.56,5.42-2.45,3.53.15,5.8,3.68,7.38,6.12,1.92,2.98,2.19,4.92,4.08,10.36,1.28,3.67,2.49,6.6,3.3,8.47"/>
    <path class="cls-17" d="M1060.13,556.4c2.04-1.03,5.51-2.46,10-2.8,2.73-.21,6.92-.52,10.8,1.6,5.68,3.11,7.38,9.62,8,12,2.31,8.86-1.6,12.88-2.4,24.01-.47,6.49.62,11.53,2.8,21.61,2.94,13.59,6.73,22.72,10,31.21,9.89,25.63,7.36,25.32,15.2,45.21,4.44,11.27,10.79,27.36,22.01,44.81,7.73,12.02,20.66,29.19,41.42,46.28"/>
    <path class="cls-17" d="M986.37,508.13c1.98,2.44,6.66,5.95,10.03,8.9,1.19,1.04,5.09,4.38,10.98,7.82,4.93,2.88,7.4,4.33,10.68,5.12,2.19.53,9.77,2.35,17.3-1.96,7.99-4.57,12.24-14.95,12.62-16.52"/>
    <path class="cls-17" d="M990.08,513.12c.66,3.48,6.47,25.01,10.83,30.54,2.53,3.21,4.94,6.27,9.03,7.22,7.38,1.73,14-4.84,15.5-6.32,4.59-4.55,7.07-12.68,7.61-15.41"/>
    <path class="cls-18" d="M1032.27,466.39c-.93,3.39-1.77,6.55-2.5,9.43-1.7,6.66-1.95,8.21-1.35,10.2,1.29,4.22,5.18,6.16,5.58,6.35,4.96,2.38,9.7-.11,10.2-.38"/>
    <path class="cls-18" d="M988.99,488.32c4.38,4.22,9.11,9.96,12.7,17.51.65,1.37,1.22,2.72,1.73,4.04"/>
    <path class="cls-18" d="M1020.34,469.47c-.49.63-2.23,2.99-1.92,6.16.33,3.48,2.99,6.53,6.73,7.69"/>
    <path class="cls-18" d="M1274.14,1321.78c7.53.88,13.99,1.5,19.01,1.94,18.55,1.61,24.12,1.27,29.92-1.22,4.45-1.92,7.64-4.5,9.59-6.32"/>
    <path class="cls-17" d="M1135.44,1263.34c3.47,10.02,6.02,18.1,7.68,23.54,2.59,8.48,3.45,11.92,6.92,14.25,6.76,4.55,16.67.33,17.91-.2,6.7-2.86,11.41-8.52,18.73-17.3.9-1.08,1.63-1.99,2.11-2.61"/>
    <path class="cls-19" d="M1216.1,529.17c-2.78,6.3-5.75,12.74-8.92,19.28-5.03,10.38-10.16,20.21-15.3,29.48-1.21-.08-3.11-.23-5.42-.48-7.43-.81-9.86-1.7-16.25-2.39-4.75-.51-7.12-.77-10.04-.48-5.43.55-9.68,2.45-12.43,3.98-5.48-3.5-8.64-7.24-10.52-10.04-3.1-4.61-2.06-5.68-6.06-11.79-2.53-3.88-4.2-5.37-7.49-10.68-1.42-2.3-2.49-4.25-3.19-5.58-1.38-2.5-2.76-4.99-4.14-7.49"/>
    <path class="cls-18" d="M1336.04,666.75c3.33,1.9,8.14,4.87,13.49,9.09,12.05,9.5,19.32,19.4,27.54,30.57,6.37,8.67,13.64,19.75,14.04,20.38,1.65,2.52,4.41,6.79,8.54,12.39,2.67,3.62,4.98,6.52,6.56,8.47"/>
    <path class="cls-17" d="M1255.9,922.66c-.53.67-1.22,1.64-1.86,2.89-.71,1.38-1.9,3.79-1.86,7.02.01.88.08,3.62,1.79,6.4,2.72,4.44,7.49,5.53,8.47,5.73"/>
    <path class="cls-17" d="M1274.63,913.43c-3.35,1.65-5.96,3.33-7.78,4.61-2.82,1.99-5.21,3.71-7.44,6.75-1.31,1.79-2.4,3.31-2.75,5.65-.51,3.36.86,6.03,1.31,6.82,2.94,5.18,9.2,5.72,9.78,5.76"/>
    <path class="cls-17" d="M1201.17,905.17c2.48,7.44,4.97,14.89,7.45,22.33"/>
    <path class="cls-17" d="M1194.62,906.45c2.25,7.12,4.5,14.24,6.74,21.36"/>
    <path class="cls-17" d="M1306.7,877.41c1.24,4.95,2.48,9.9,3.72,14.85"/>
    <path class="cls-17" d="M1315.67,872.76c.75,4.69,1.51,9.38,2.26,14.06"/>
  </g>
  <path class="cls-5" d="M1024.42,480.79c-33.05-11.27-66.09-22.53-99.14-33.8-2.81-1.63-13.63-7.45-27.88-5.25-1.4.22-15.34,2.55-23.51,12.24-13.84,16.42-4.99,46.7,10.49,62.94,19.69,20.65,56.71,25.53,91.7,11.07,8.73-3.74,21.99-9.63,37.8-17.48,28.14-13.99,41.36-22.8,55.77-30.3,16.62-8.66,35.84-16.11,82.41-26.23,65.83-14.3,80.74-11,164.82-24.48,74.77-11.99,119.07-23.59,154.91-34.97,17.94-5.69,36.28-8.52,35.94-12.24-.54-5.89-49.92-4.1-105.34-6.99-74.31-3.88-122.51-14.25-151.19-18.65-195.8-30.05-591.67,47.46-596.7,26.23-.73-3.07,6.5-9.19,44.61-22.73,1.18-.42-13.11,2.77-22.44,6.41-10.72,4.18-24.28,9.47-23.82,15.15.11,1.33,1.02,3.27,5.23,5.44,3.68.38,9.39.86,16.39,1.04,16.36.4,28.62-1.45,33.46-1.81,23.68-1.77,47.07-3.56,70.36-6.17,8.51-.96-8.22,1.08,59.62-6.33,54.02-5.9,57.02-6.48,70.5-7.85,17.74-1.8,36.93-3.9,63.06-6.06,39.2-3.24,68.19-5,75.04-5.37,19.74-1.06,35.44-1.36,57.14-1.79,18.07-.36,44.2-1.24,76.83-.36,28.25.76,44.58,2.72,67.47,6.28,14.28,2.22,21.48,3.45,46.4,7.25,8.18,1.25,21.68,3.3,38,5.24,11.62,1.38,33.8,3.8,61.96,5.31,43.14,2.31,77.93,2.72,77.93,2.72,14.2.17,31.29.19,31.53,2.46.13,1.23-4.69,2.59-7.85,3.5-14.77,4.21-29.19,9.57-44.2,12.95-24.82,5.6-19.14,5.6-45.16,11.53-15.87,3.61-26.89,5.64-46.95,9.32-31.83,5.85-55.65,9.42-61.14,10.23-18.83,2.8-17.97,2.34-50.4,6.73-36.04,4.89-54.05,7.33-72.56,10.75-27.65,5.11-41.48,7.66-58.8,13.21-31.14,9.98-57.11,23.71-80.14,35.87-10.85,5.73-20.1,10.99-36.21,18.39-20.99,9.64-31.48,14.47-42.41,15.93-6.13.82-33.39,3.78-57.14-12.43-5.62-3.84-20.51-14-23.68-31.34-.79-4.33-2.77-15.15,4.54-23.7,7.58-8.85,19.88-9.14,22.17-9.2,7.85-.19,13.82,2.42,16.66,3.89,37.09,12.78,74.17,25.56,111.26,38.33-2.46-4.96-4.91-9.93-7.37-14.89Z"/>
  <g>
    <path class="cls-26" d="M634.73,727.55c-5.74-2.65-13.35-5.45-22.57-7.09-8.57-1.53-15.82-1.56-20.74-1.32-4.07.2-10.51.79-18.21,2.75-6.85,1.74-12.58,4.03-17.05,6.16-.83,14.35-1.67,28.69-2.5,43.04-.01.92.1,2.23.63,3.68.8,2.17,2.13,3.53,2.81,4.14.96.86,1.91,1.38,2.56,1.68-.51,5.38-1.03,10.76-1.54,16.15-.93,9.71-1.85,19.42-2.78,29.13-.98,10.24-1.95,20.49-2.93,30.73-1.12,11.71-2.23,23.41-3.35,35.12-1.07,11.2-2.14,22.4-3.2,33.6l-3.38,35.48c.05-.77-.37,3.65-1.19,12.52-.18,1.88-.4,4.28-1.15,7.42-.69,2.88-1.51,5.03-1.87,5.94-.6,1.53-2.11,5.08-4.94,9.11-3.12,4.44-6.28,7.23-7.19,8.01-1.86,1.6-2.14,1.55-5.01,3.99-1.92,1.63-3.68,3.14-5.61,5.35-.83.95-1.92,2.29-3.49,4.62-3.17,4.73-5.2,8.97-6.21,11.14-3.97,8.56-6.25,15.72-7.7,20.3-1.65,5.22-2.8,9.62-3.56,12.52-1.05,4.04-1.87,7.49-2.46,10.12-.03,5.57-.06,11.14-.08,16.7-.07,13.42-.13,26.84-.2,40.26-.04,8.01-.08,16.01-.12,24.02-.05,10.45-.1,20.89-.16,31.34-.05,10.02-.1,20.05-.15,30.07-.06,12.71-.13,25.43-.19,38.14-.06,12.45-.13,24.9-.19,37.35-.05,10.74-.11,21.49-.16,32.23-.05,10.09-.1,20.17-.15,30.26-.08,15.4-.36,71.31-.36,72.35-.04,8.92-.17,36.83-.21,46.02.06,1.05.17,2.43.43,4.04.59,3.67,1.57,6.48,2.18,8.03.55,1.39,1.81,4.38,4.15,7.78,2.47,3.61,4.92,5.89,6.42,7.27,1.47,1.36,4.2,3.85,8.32,6.16,3.18,1.78,5.68,2.61,9.93,4.01,5.85,1.92,10.45,2.94,11.64,3.2,16.38,3.6,28.85,5.14,28.85,5.14,5.96.74,19.24,2.2,36.54,2.32,16.48.12,29.02-1.04,34.59-1.63,5.3-.56,13.32-2.08,29.36-5.14,3.09-.59,7.79-1.52,13.2-4.37,3.88-2.04,6.51-4.22,9.01-6.32,3.24-2.72,7.56-6.34,11.47-12.36,1.88-2.89,4.4-7.48,6.08-13.71.02-12.45.03-24.9.05-37.35.03-21.68.05-43.35.08-65.03.04-28.6.07-57.21.11-85.81.01-8.66.15-119.02.15-119.4,0-6.72.09-83.25.1-90.23-.25-3.14-.68-7.08-1.48-11.59-1.39-7.81-3.26-13.75-4.2-16.56-.88-2.63-3.46-10.03-8.34-18.99-4.26-7.83-7.54-13.84-13.61-20.01-2.1-2.13-5.07-4.83-9-9.66-1.88-2.32-3.66-4.52-5.58-7.75-.62-1.05-3.19-5.46-5.26-12.03-.38-1.21-1.55-5.04-2.67-12.92-.89-6.25-1.05-10.15-1.43-15.7-.07-.96-.03-.39-2.01-21.49,0,0-1.65-17.64-2.34-25.11-.81-8.65-1.62-17.29-2.42-25.94-.88-9.41-1.76-18.83-2.64-28.24-.82-8.78-1.64-17.55-2.46-26.33-.65-6.98-1.3-13.95-1.95-20.93-.71-7.62-1.42-15.24-2.13-22.85.8-.69,1.94-1.83,2.9-3.51.38-.66,1.28-2.35,1.66-4.73.4-2.51.03-4.6-.29-5.84-.97-7.94-1.94-15.89-2.9-23.83-.62-5.22-1.25-10.43-1.87-15.65Z"/>
    <path class="cls-15" d="M639.09,853.68c-1.71-.67-3.41-1.34-5.12-2.01-1.22-.48-2.05-1.62-2.14-2.94-.69-10.03-1.39-20.06-2.08-30.1-.01-.2-.01-.4.01-.6.2-1.72.54-7.12-3.04-12.11-2.29-3.19-5.17-4.79-6.86-5.54-.41-.18-.84-.27-1.29-.28-13.35-.25-26.7-.49-40.05-.74-.41,0-.81.06-1.2.2-1.57.57-4.29,1.85-6.65,4.59-2.8,3.25-3.52,6.74-3.74,8.23-.01.08-.02.15-.02.22-4.42,53.25-8.83,106.51-13.25,159.76-.34,2.63-.58,7,.75,12.12,1.16,4.46,3.08,7.86,4.66,10.14.64.91,1.66,1.45,2.77,1.45,4.52,0,10.77.79,16.85,4.33,2.57,1.5,5.5,3.26,7.01,6.82,1.88,4.45.33,8.89,0,9.85-2.87,8.23-11.4,8.66-24.27,17.17-4.76,3.15-13.23,8.76-19.02,17.93-6.22,9.86-7.12,20.32-7.01,27.02-.78,47.78-1.28,96.02-1.5,144.72-.3,67.61-.04,134.36.75,200.22,0,.21.02.41.06.62,1.22,6.29,4,16.41,10.95,26.98,9.34,14.18,20.88,21.07,23.77,22.73,11.68,6.69,22.66,8.36,29.02,8.82.18.01.34.04.52.08,14.42,3.52,39.07,7.35,68.06.69,13.42-3.08,24.64-7.69,33.45-12.18,1.13-.58,1.83-1.75,1.83-3.02.02-13.64.12-83.68.12-88.22,0-7.38.12-92.62.13-97.37.04-33.76.15-67.52.13-101.28-.01-16.12-.04-38.38.13-69.46.08-14.33.18-26.15.25-34.13,0-.15,0-.3-.02-.45-.79-6.79-2.05-12.47-3.23-16.82-.68-2.51-1.59-5.84-3.25-10.1-1.46-3.76-2.5-5.66-5.63-12.5-2.66-5.82-2.57-5.87-3.5-7.83-5.27-11.05-12.47-19.01-15.76-22.6-5.5-6-6.29-5.5-9.26-9.72-2.87-4.08-5-8.63-7.09-16.09-1.63-5.84-3.56-14.6-4.21-25.95-1.48-17.92-2.96-35.83-4.44-53.75-1.81-15.38-3.62-30.76-5.43-46.14-.15-1.25-.97-2.32-2.13-2.77Z"/>
    <path class="cls-22" d="M634.73,727.55c-7.31-3.37-20.26-8.2-37.03-8.51-19.27-.36-34,5.42-41.54,9.01-.83,14.35-1.67,28.69-2.5,43.04-.01.93.08,3.18,1.5,5.5,1.52,2.5,3.67,3.62,4.5,4-6.17,64.73-12.34,129.45-18.52,194.18-.37,3.51-1.3,8.79-4,14.51-5.2,10.98-13.76,16.84-16.01,18.52-8.63,6.43-19.5,22.31-29.03,64.06-.67,132.79-1.33,265.57-2,398.36.14,3.35.99,13.32,8.51,22.52,8.97,10.96,19.78,14.65,22.71,15.08,47.1,14.7,115.85,13.64,151.07.94,3.95-.97,11.62-5.95,19.89-15.01,6.47-7.08,8.99-14.58,10.01-18.52-4.73-237.61-2.81-318.81.43-343.31.13-1,3.29-24.75.07-54.55-1.54-14.29-4.09-25.54-9.01-37.03-1.45-3.39-5.55-12.51-13.01-23.02-9.29-13.08-13.77-14.21-19.52-23.52-3.76-6.1-8.13-15.8-9.01-30.53-5.67-60.72-11.34-121.44-17.02-182.16,1.39-1.26,3.22-3.31,4.13-6.26.87-2.82.51-5.22.38-6.13-.77-5.3-2.53-20.49-5-41.16Z"/>
    <g>
      <path class="cls-14" d="M565.42,733.81c-.57,3.77-1.08,7.69-1.5,11.76-.7,6.77-1.09,13.21-1.25,19.27,0,.78.13,3.83,2.5,6.51,2.31,2.61,5.22,3.14,6.01,3.25,14.35.25,28.69.5,43.04.75.33-.06,2.29-.42,3.5-2.25,1.43-2.17.59-4.52.5-4.75-.33-10.43-.67-20.85-1-31.28-5.61,1.4-10.35,2.11-13.76,2.5-8.25.94-16.83,1.84-26.77-1-4.97-1.42-8.81-3.35-11.26-4.75Z"/>
      <path class="cls-14" d="M569.67,786.86c17.77.58,35.53,1.17,53.3,1.75,1.27.33,2.18,1.45,2.25,2.75.07,1.32-.74,2.55-2,3-18.02.25-36.03.5-54.05.75-1.91-1-2.92-3.08-2.5-5,.51-2.35,2.87-3.21,3-3.25Z"/>
      <path class="cls-34" d="M656.75,984.53c-1.71.72-4.58,1.84-8.26,2.75-6.39,1.59-9.53,1.15-17.27,3-6.64,1.59-8.52,2.92-9.51,4.75-1.38,2.56-.58,5.27-.5,5.5.35,1.11,1.51,3.75,8.01,6.26,5.34,2.06,9.51,2.18,13.26,2.5,3.94.34,12,1.03,19.52,3.75,7.33,2.66,12.54,6.67,18.52,11.26,3.87,2.97,6.9,5.72,9.01,7.76-1.24-2.77-2.79-5.81-4.75-9.01-.67-1.1-2.94-4.72-7.51-10.26-2.16-2.62-5.7-6.5-12.76-14.26-1.87-2.05-4.4-4.83-6.26-9.26-.81-1.93-1.25-3.61-1.5-4.75Z"/>
      <ellipse class="cls-39" cx="655.22" cy="1058.16" rx="17.27" ry="32.65" transform="translate(-556.32 773.24) rotate(-45)"/>
      <ellipse class="cls-39" cx="627.97" cy="917.97" rx="2.75" ry="34.53"/>
      <ellipse class="cls-39" cx="621.88" cy="840.28" rx="3.34" ry="22.14"/>
      <ellipse class="cls-39" cx="559.41" cy="1171.7" rx="11.26" ry="74.32"/>
      <path class="cls-39" d="M560.91,957.01c-3.4-5.25-3.67-11.66-.75-16.51,2.35-3.9,7.33-7.76,12.01-6.76,6.57,1.41,8.84,11.6,8.26,18.02-.11,1.21-.99,9.51-7.51,13.51-1.35.83-5.02,3.08-8.26,1.5-2.86-1.4-4.47-5.34-3.75-9.76Z"/>
      <path class="cls-31" d="M489.6,1118.4c15.34,10.88,50.75,32.88,101.34,37.53,53.73,4.95,94.57-12.43,111.4-20.74-.85,59.21-1.7,118.43-2.55,177.64-14.78,9.62-50.54,30.07-100.59,31.52-54.2,1.57-93.49-20.06-108.32-29.26-.43-65.56-.85-131.13-1.28-196.69Z"/>
      <text class="cls-20" transform="translate(510.19 1234.39) rotate(17.57)"><tspan x="0" y="0">F</tspan></text>
      <text class="cls-20" transform="translate(526.01 1239.41) rotate(14.36)"><tspan x="0" y="0">R</tspan></text>
      <text class="cls-20" transform="translate(544.85 1244.19) rotate(10.95)"><tspan x="0" y="0">I</tspan></text>
      <text class="cls-20" transform="translate(562.88 1247.57) rotate(8.3)"><tspan x="0" y="0"> </tspan></text>
      <text class="cls-20" transform="translate(573.97 1249.25) rotate(5.65)"><tspan x="0" y="0">E</tspan></text>
      <text class="cls-20" transform="translate(592.48 1251.08) rotate(2.18)"><tspan x="0" y="0">N</tspan></text>
      <text class="cls-20" transform="translate(612.73 1251.77) rotate(-1.11)"><tspan x="0" y="0">T</tspan></text>
      <text class="cls-20" transform="translate(629.64 1251.45) rotate(-4.31)"><tspan x="0" y="0">R</tspan></text>
      <text class="cls-20" transform="translate(649.01 1249.95) rotate(-7.67)"><tspan x="0" y="0"></tspan></text>
      <text class="cls-20" transform="translate(667.17 1247.4) rotate(-10.32)"><tspan x="0" y="0"> </tspan></text>
      <path class="cls-21" d="M555.91,728.3c8.98,3.17,16.69,4.89,22.27,5.88,10.91,1.94,23.44,4.16,38.41.63,7.98-1.88,14.17-4.82,18.14-7.01"/>
      <path class="cls-23" d="M619.19,729.09c0,2.79-10.13,5.05-22.63,5.05s-22.63-2.26-22.63-5.05,10.13-5.05,22.63-5.05,22.63,2.26,22.63,5.05Z"/>
    </g>
  </g>
</svg>